<svg aria-hidden="true" xmlns="http://www.w3.org/2000/svg" xmlns:xlink="http://www.w3.org/1999/xlink"><symbol viewBox="0 0 16 16" fill="none" id="icon-arrow" xmlns="http://www.w3.org/2000/svg">
<path d="M3.33325 12.6666L11.9999 3.99996" stroke="currentColor" stroke-width="2" stroke-linecap="round" stroke-linejoin="round"/>
<path d="M4 4L12 4L12 12" stroke="currentColor" stroke-width="2" stroke-linecap="round" stroke-linejoin="round"/>
</symbol><symbol viewBox="0 0 24 24" fill="none" id="icon-arrow-2" xmlns="http://www.w3.org/2000/svg">
<path d="M21 12H3M3 12L8 17M3 12L8 7" stroke="currentColor" stroke-width="2" stroke-linecap="round" stroke-linejoin="round"/>
</symbol><symbol viewBox="0 0 8 14" fill="none" id="icon-arrow-clean" xmlns="http://www.w3.org/2000/svg">
<path d="M1.09473 12.7145L6.80901 7.00017L1.09473 1.28589" stroke="currentColor" stroke-width="2" stroke-linecap="round" stroke-linejoin="round"/>
</symbol><symbol viewBox="0 0 16 16" fill="none" id="icon-arrow-fill" xmlns="http://www.w3.org/2000/svg">
<path d="M7.58915 11.7845C7.63502 11.8511 7.6964 11.9056 7.768 11.9432C7.8396 11.9809 7.91927 12.0005 8.00015 12.0005C8.08104 12.0005 8.16071 11.9809 8.23231 11.9432C8.30391 11.9056 8.36528 11.8511 8.41115 11.7845L12.9112 5.2845C12.9632 5.20953 12.9938 5.12172 12.9995 5.0306C13.0052 4.93949 12.9858 4.84856 12.9434 4.7677C12.901 4.68683 12.8373 4.61912 12.7592 4.57193C12.681 4.52473 12.5914 4.49986 12.5002 4.5H3.50015C3.40907 4.50038 3.31982 4.52557 3.24199 4.57288C3.16416 4.62019 3.1007 4.68782 3.05844 4.7685C3.01617 4.84917 2.99669 4.93985 3.00211 5.03077C3.00752 5.12168 3.03761 5.20941 3.08915 5.2845L7.58915 11.7845Z" fill="currentColor"/>
</symbol><symbol viewBox="0 0 25 24" fill="none" id="icon-clinic" xmlns="http://www.w3.org/2000/svg">
<g clip-path="url(#eclip0_557_11024)">
<path d="M12.9001 16.4195C11.5536 16.4195 10.2373 16.0202 9.11769 15.2721C7.99808 14.524 7.12546 13.4607 6.61016 12.2167C6.09487 10.9726 5.96004 9.60374 6.22274 8.28308C6.48544 6.96242 7.13385 5.74932 8.086 4.79718C9.03814 3.84503 10.2512 3.19662 11.5719 2.93392C12.8926 2.67123 14.2615 2.80605 15.5055 3.32135C16.7495 3.83664 17.8128 4.70927 18.5609 5.82887C19.309 6.94847 19.7083 8.26476 19.7083 9.6113C19.7063 11.4163 18.9883 13.1468 17.712 14.4232C16.4356 15.6995 14.7051 16.4174 12.9001 16.4195ZM12.9001 3.6591C11.7228 3.6591 10.5719 4.00823 9.59297 4.66233C8.61406 5.31643 7.85109 6.24613 7.40057 7.33385C6.95004 8.42158 6.83218 9.61847 7.0619 10.7732C7.29162 11.9279 7.85859 12.9885 8.69113 13.821C9.52366 14.6535 10.5844 15.2204 11.7391 15.45C12.8938 15.6797 14.0907 15.5617 15.1784 15.1111C16.2661 14.6605 17.1957 13.8975 17.8497 12.9185C18.5038 11.9396 18.8528 10.7886 18.8527 9.6113C18.8509 8.03316 18.2232 6.52018 17.1072 5.40431C15.9913 4.28843 14.4783 3.6608 12.9001 3.6591Z" fill="currentColor"/>
<path d="M18.3393 18.6878C20.5287 16.3161 22.473 13.038 22.473 9.57296C22.473 7.03406 21.4644 4.59913 19.6692 2.80386C17.8739 1.00858 15.439 0 12.9001 0C10.3612 0 7.92623 1.00858 6.13095 2.80386C4.33567 4.59913 3.3271 7.03406 3.3271 9.57296C3.3271 13.038 5.27138 16.3166 7.46078 18.6878C5.013 19.0052 1.76782 19.7029 1.76782 21.18C1.76782 23.4105 9.04957 24 12.9001 24C16.7506 24 24.0323 23.4105 24.0323 21.18C24.0323 19.7029 20.7871 19.0052 18.3393 18.6878ZM12.9001 0.894498C15.2061 0.891992 17.419 1.80428 19.0532 3.43124C20.6875 5.05819 21.6096 7.26695 21.6175 9.57296C21.6175 15.8541 14.5051 21.5099 12.9001 21.5099C11.295 21.5099 4.18267 15.8541 4.18267 9.57254C4.19059 7.2666 5.11283 5.05795 6.74707 3.43109C8.38131 1.80422 10.5941 0.891992 12.9001 0.894498ZM12.9001 23.1444C6.25058 23.1444 2.62339 21.847 2.62339 21.18C2.62339 20.8288 4.04235 19.9211 8.21454 19.4608C10.0664 21.2558 11.9551 22.3654 12.9001 22.3654C13.845 22.3654 15.7337 21.2558 17.5856 19.4608C21.7578 19.9206 23.1767 20.8288 23.1767 21.1805C23.1767 21.847 19.5495 23.1444 12.9001 23.1444Z" fill="currentColor"/>
<path d="M11.7465 14.1703C11.1065 14.1703 10.6685 13.3378 10.6633 13.3289C10.3963 12.7573 10.2453 12.1385 10.2189 11.5082C10.1798 10.8695 10.1515 10.2301 10.1342 9.59045C10.1311 9.49115 10.1018 9.39444 10.049 9.31025C9.41805 8.30495 9.22341 7.26116 9.51601 6.44666C9.63965 6.10299 9.84904 5.79661 10.1243 5.55658C10.3996 5.31656 10.7317 5.15085 11.089 5.07518C11.5471 5.00206 12.0163 5.0962 12.4108 5.34041C12.5626 5.42083 12.7294 5.4689 12.9006 5.48158C13.0718 5.46878 13.2384 5.42071 13.39 5.34041C13.7804 5.09784 14.2449 5.00329 14.6991 5.0739C15.0587 5.148 15.3934 5.31316 15.6709 5.55359C15.9485 5.79402 16.1598 6.10167 16.2844 6.44709C16.5766 7.26116 16.3824 8.30495 15.7514 9.31153C15.6984 9.3953 15.6688 9.49178 15.6658 9.59088C15.6487 10.2223 15.6205 10.8678 15.5816 11.5082C15.5552 12.1382 15.4043 12.7567 15.1375 13.328C15.132 13.3383 14.6255 14.3008 13.9081 14.1558C13.3597 14.048 13.1526 13.2792 13.147 12.789C13.1325 12.357 13.0492 11.9302 12.9002 11.5245C12.7512 11.9301 12.6678 12.357 12.6534 12.789C12.6478 13.2792 12.4408 14.048 11.8919 14.1562C11.844 14.1655 11.7953 14.1703 11.7465 14.1703ZM11.412 5.90893C11.3396 5.90974 11.2673 5.91489 11.1955 5.92433C10.9958 5.98032 10.8124 6.08311 10.6604 6.22416C10.5084 6.36522 10.3922 6.54048 10.3215 6.73541C10.1213 7.29282 10.2903 8.08593 10.7737 8.85637C10.9073 9.06978 10.9819 9.31483 10.9897 9.56649C11.0068 10.1898 11.0346 10.825 11.0727 11.456C11.0938 11.9708 11.2147 12.4765 11.4286 12.9451C11.4992 13.0668 11.5891 13.1761 11.6947 13.269C11.7603 13.114 11.7952 12.9478 11.7974 12.7796C11.8127 11.9695 12.0455 11.1784 12.4716 10.4892C12.5237 10.426 12.5891 10.3747 12.6632 10.3398C12.7372 10.3049 12.8181 10.2868 12.9 10.2868C12.9819 10.2868 13.0628 10.3049 13.1368 10.3398C13.2109 10.3747 13.2763 10.4256 13.3284 10.4888C13.7545 11.1781 13.9874 11.9693 14.0026 12.7796C14.0047 12.9477 14.0398 13.1138 14.1057 13.2685C14.2111 13.1752 14.301 13.0657 14.3722 12.9443C14.5858 12.4757 14.7064 11.9701 14.7273 11.4556C14.7658 10.825 14.794 10.1893 14.8107 9.56735C14.8184 9.31572 14.8928 9.07065 15.0263 8.85722C15.5097 8.08636 15.6791 7.29324 15.4789 6.73584C15.409 6.54234 15.2944 6.36809 15.1443 6.22729C14.9943 6.08649 14.8132 5.98313 14.6156 5.92562C14.3475 5.87447 14.07 5.92576 13.8379 6.06935C13.5515 6.23246 13.23 6.32431 12.9006 6.33715C12.5711 6.32443 12.2495 6.23257 11.9629 6.06935C11.7986 5.96393 11.6072 5.90823 11.412 5.90893Z" fill="currentColor"/>
</g>
<defs>
<clipPath id="eclip0_557_11024">
<rect width="24" height="24" fill="currentColor" transform="translate(0.900024)"/>
</clipPath>
</defs>
</symbol><symbol viewBox="0 0 16 16" fill="none" id="icon-clock" xmlns="http://www.w3.org/2000/svg">
<path fill-rule="evenodd" clip-rule="evenodd" d="M0.916992 7.99996C0.916992 4.08794 4.08831 0.916626 8.00033 0.916626C11.9123 0.916626 15.0837 4.08794 15.0837 7.99996C15.0837 11.912 11.9123 15.0833 8.00033 15.0833C4.08831 15.0833 0.916992 11.912 0.916992 7.99996ZM8.62533 3.83329C8.62533 3.48811 8.3455 3.20829 8.00033 3.20829C7.65515 3.20829 7.37533 3.48811 7.37533 3.83329V7.99996C7.37533 8.21545 7.48634 8.41575 7.66908 8.52996L10.1691 10.0925C10.4618 10.2754 10.8474 10.1864 11.0303 9.89371C11.2133 9.601 11.1243 9.2154 10.8316 9.03246L8.62533 7.65355V3.83329Z" fill="currentColor"/>
</symbol><symbol viewBox="0 0 25 24" fill="none" id="icon-doctors" xmlns="http://www.w3.org/2000/svg">
<g clip-path="url(#gclip0_557_10995)">
<path d="M20.6203 15.5369C20.1303 15.2517 19.453 15.2324 18.6058 15.479C17.7585 15.2324 17.0812 15.2517 16.5913 15.5369C16.2054 15.7616 15.9427 16.15 15.8318 16.6599C15.703 17.255 15.8032 17.8813 16.1157 18.4241C16.3585 18.8462 16.4656 19.3517 16.4805 19.427C16.6922 21.2074 17.4398 21.4415 17.5867 21.4701C17.6384 21.4801 17.7131 21.495 17.8009 21.495C17.9192 21.495 18.0598 21.4682 18.1968 21.3674C18.3568 21.2497 18.4906 21.0617 18.6033 20.6372C18.7041 20.9117 18.8455 21.1663 19.044 21.3163C19.2171 21.4471 19.4169 21.4969 19.6255 21.4614C19.8788 21.4352 20.5468 21.1937 20.7317 19.4245C20.7485 19.3398 20.8562 18.8412 21.0959 18.4241C21.4078 17.8813 21.5086 17.2544 21.3797 16.6599C21.2689 16.15 21.0062 15.7616 20.6203 15.5369ZM20.4484 18.0525C20.121 18.6221 19.9996 19.2757 19.9946 19.3031C19.9928 19.3124 19.9915 19.3224 19.9903 19.3324C19.8732 20.479 19.5589 20.6988 19.5159 20.7231C19.5103 20.7237 19.5053 20.7249 19.4997 20.7256C19.3622 20.6565 19.1598 20.062 19.1107 19.412C19.1063 19.3548 19.0889 19.2994 19.0602 19.2502C18.8922 18.9651 18.6749 18.9302 18.5597 18.9358C18.3275 18.9458 18.1638 19.1195 18.0879 19.2788C18.0697 19.3166 18.0581 19.3573 18.0536 19.399C17.9459 20.3825 17.8214 20.6664 17.7704 20.7449C17.766 20.7442 17.7617 20.7436 17.7567 20.7424C17.7006 20.7106 17.3539 20.4691 17.2207 19.3261C17.22 19.3182 17.2188 19.3103 17.2169 19.3025C17.212 19.2751 17.09 18.6214 16.7631 18.0518C16.5434 17.6696 16.4724 17.2314 16.5621 16.818C16.6287 16.5099 16.7613 16.3019 16.9667 16.1824C17.2848 15.9975 17.8127 16.0125 18.4937 16.2254C18.5666 16.2484 18.6444 16.2484 18.7172 16.2254C19.3983 16.0118 19.9262 15.9969 20.2443 16.1824C20.4497 16.3019 20.5823 16.5099 20.6489 16.818C20.7385 17.2314 20.667 17.6696 20.4478 18.0518L20.4484 18.0525Z" fill="currentColor"/>
<mask id="gpath-2-outside-1_557_10995" maskUnits="userSpaceOnUse" x="0.195801" y="-1" width="25" height="26" fill="currentColor">
<rect fill="currentColor" x="0.195801" y="-1" width="25" height="26"/>
<path d="M18.6058 12.8027C17.5656 12.8027 16.5907 13.0885 15.7553 13.5846C15.2293 13.3568 14.6765 13.203 14.1069 13.1264C13.9587 13.1071 13.8168 13.058 13.6854 12.9839C13.6723 12.9752 13.6586 12.9665 13.6443 12.9596C13.4551 12.8407 13.3032 12.6739 13.2048 12.4722L12.7379 11.5266C13.9058 10.6015 14.2239 9.35398 14.3067 8.85596C14.8638 8.5447 15.2056 8.1382 15.3251 7.64516C15.4745 7.02762 15.2156 6.46237 15.0593 6.19531C15.4963 4.49397 15.4185 3.10326 14.8277 2.06054C14.3335 1.18776 13.6263 0.85098 13.4215 0.768185C13.3742 0.748887 13.3268 0.727722 13.2802 0.706556C11.0248 -0.317489 9.56745 -0.0410901 8.74261 0.371018C8.06219 0.710914 7.68619 1.19586 7.52745 1.443C6.84953 1.64967 6.3291 2.05307 5.97862 2.64384C5.19923 3.95735 5.52418 5.79565 5.63188 6.29056C5.33556 7.05128 5.33556 7.67504 5.63188 8.14504C5.89085 8.55653 6.31105 8.73457 6.6055 8.81052C6.73187 10.0456 7.37929 10.8897 8.08087 11.4531L7.57538 12.474C7.47685 12.6754 7.32342 12.8448 7.13277 12.9627C7.12219 12.9683 7.11161 12.9739 7.10165 12.9808C6.96718 13.058 6.82338 13.1078 6.67335 13.1277C6.28801 13.1794 5.90703 13.2678 5.5385 13.3898C5.46317 13.3935 5.39345 13.4197 5.33618 13.4614C2.85606 14.3783 1.1958 16.7464 1.1958 19.3878V21.7726C1.1958 22.5788 1.85194 23.2349 2.65872 23.2349H15.7846C16.64 23.7367 17.614 24.0008 18.6058 24C21.6929 24 24.2041 21.4888 24.2041 18.4017C24.2041 15.3146 21.6929 12.8034 18.6058 12.8034V12.8027ZM6.62231 3.02295C6.89746 2.5598 7.30396 2.26597 7.86485 2.12403C7.91775 2.1106 7.96706 2.08575 8.00932 2.05122C8.05158 2.0167 8.08578 1.97335 8.1095 1.9242C8.12009 1.90179 9.23938 -0.307529 12.9714 1.38635C13.028 1.41187 13.0847 1.43739 13.142 1.46043C13.2472 1.50276 13.7925 1.74865 14.1772 2.42782C14.6497 3.262 14.7126 4.45599 14.3633 5.89339C14.2457 5.82242 14.1654 5.60952 14.1455 5.51926C14.1442 5.51179 14.1423 5.50494 14.1405 5.49747C13.8186 4.30783 13.2633 3.56268 12.4889 3.28254C11.6379 2.97502 10.7895 3.33857 10.3973 3.55334C9.85754 3.23336 9.20888 3.15368 8.6013 3.33546C7.93831 3.53404 7.39921 4.01463 7.12219 4.65395C6.85575 5.27025 6.5364 5.59894 6.29735 5.77138C6.19712 5.11586 6.10624 3.88763 6.62168 3.02108L6.62231 3.02295ZM7.33198 8.48245C7.32638 8.29009 7.17199 8.13322 6.97963 8.12077C6.97465 8.12077 6.47352 8.08528 6.26187 7.74352C6.07511 7.44284 6.16973 6.98965 6.30731 6.61738C6.64845 6.47545 7.327 6.06645 7.80883 4.95276C7.99745 4.51638 8.36474 4.18831 8.81669 4.05322C9.25245 3.92249 9.70004 3.98723 10.0767 4.235C10.1097 4.25679 10.1433 4.2792 10.1769 4.30285C10.3051 4.39249 10.4763 4.39187 10.6052 4.30285C10.6139 4.29663 11.473 3.70897 12.2399 3.98848C12.7684 4.18084 13.165 4.75231 13.4184 5.68547C13.442 5.78881 13.5746 6.29429 13.9842 6.5377C14.1305 6.62485 14.2936 6.66718 14.4654 6.66407C14.5613 6.85332 14.6758 7.16395 14.5987 7.47397C14.5208 7.78959 14.2519 8.06038 13.8 8.27826C13.7412 8.30688 13.6909 8.35037 13.6541 8.40443C13.6173 8.45848 13.5952 8.52122 13.5902 8.58641C13.5833 8.67605 13.391 10.7945 11.0814 11.5782C10.6133 11.737 10.1028 11.7158 9.64464 11.5191C9.36699 11.3996 9.07379 11.2477 8.79365 11.0553C8.77685 11.041 8.75817 11.0286 8.73887 11.0173C8.00617 10.4988 7.37057 9.69948 7.33322 8.48245H7.33198ZM10.0169 22.4873H2.65872C2.26404 22.4873 1.94282 22.1667 1.94282 21.772V19.3871C1.94282 17.2077 3.22522 15.2393 5.18304 14.3323V16.569C4.33206 16.747 3.68588 17.5208 3.68588 18.4347V19.3417C3.68588 19.8546 4.10297 20.2717 4.61592 20.2717H4.90415C5.11021 20.2717 5.27766 20.1043 5.27766 19.8982C5.27766 19.6922 5.11021 19.5247 4.90415 19.5247H4.61592C4.51508 19.5247 4.4329 19.4425 4.4329 19.3417V18.4347C4.4329 17.8072 4.92781 17.288 5.53663 17.2774C5.84478 17.2737 6.13363 17.3888 6.35151 17.6061C6.56379 17.8184 6.6802 18.1004 6.6802 18.4004V19.3411C6.6802 19.4419 6.59803 19.5241 6.49718 19.5241H6.20895C6.0029 19.5241 5.83544 19.6915 5.83544 19.8976C5.83544 20.1036 6.0029 20.2711 6.20895 20.2711H6.49718C7.01014 20.2711 7.42722 19.854 7.42722 19.3411V18.4004C7.42722 17.9006 7.233 17.4305 6.87941 17.0776C6.61484 16.8136 6.28677 16.6399 5.93069 16.5677V14.0478C6.20584 13.9656 6.48784 13.9046 6.77171 13.8666C6.94421 13.8439 7.11268 13.7972 7.27222 13.7278L10.0169 15.6508V22.4867V22.4873ZM7.92213 13.2721C8.05213 13.1327 8.16099 12.975 8.24521 12.804L8.70277 11.8802C8.93248 12.0146 9.15409 12.1229 9.34894 12.2064C9.69382 12.3549 10.0653 12.4315 10.4408 12.4317C10.7378 12.4317 11.0347 12.3832 11.3211 12.2867C11.6112 12.1883 11.8733 12.0719 12.1111 11.9424L12.5356 12.8027C12.6199 12.9744 12.729 13.1328 12.8593 13.2727L10.391 15.0015L7.92275 13.2727L7.92213 13.2721ZM10.7639 22.4873V15.6514L13.5086 13.729C13.6692 13.7981 13.8367 13.8448 14.0091 13.8672C14.3546 13.9139 14.6939 13.993 15.0232 14.1032C13.7925 15.131 13.0081 16.6761 13.0081 18.4011C13.0081 20.0115 13.6923 21.4651 14.7842 22.4873H10.7639ZM18.6058 23.2524C15.9308 23.2524 13.7545 21.076 13.7545 18.4011C13.7545 15.7261 15.9308 13.5498 18.6058 13.5498C21.2808 13.5498 23.4571 15.7261 23.4571 18.4011C23.4571 21.076 21.2808 23.2524 18.6058 23.2524Z"/>
</mask>
<path d="M18.6058 12.8027C17.5656 12.8027 16.5907 13.0885 15.7553 13.5846C15.2293 13.3568 14.6765 13.203 14.1069 13.1264C13.9587 13.1071 13.8168 13.058 13.6854 12.9839C13.6723 12.9752 13.6586 12.9665 13.6443 12.9596C13.4551 12.8407 13.3032 12.6739 13.2048 12.4722L12.7379 11.5266C13.9058 10.6015 14.2239 9.35398 14.3067 8.85596C14.8638 8.5447 15.2056 8.1382 15.3251 7.64516C15.4745 7.02762 15.2156 6.46237 15.0593 6.19531C15.4963 4.49397 15.4185 3.10326 14.8277 2.06054C14.3335 1.18776 13.6263 0.85098 13.4215 0.768185C13.3742 0.748887 13.3268 0.727722 13.2802 0.706556C11.0248 -0.317489 9.56745 -0.0410901 8.74261 0.371018C8.06219 0.710914 7.68619 1.19586 7.52745 1.443C6.84953 1.64967 6.3291 2.05307 5.97862 2.64384C5.19923 3.95735 5.52418 5.79565 5.63188 6.29056C5.33556 7.05128 5.33556 7.67504 5.63188 8.14504C5.89085 8.55653 6.31105 8.73457 6.6055 8.81052C6.73187 10.0456 7.37929 10.8897 8.08087 11.4531L7.57538 12.474C7.47685 12.6754 7.32342 12.8448 7.13277 12.9627C7.12219 12.9683 7.11161 12.9739 7.10165 12.9808C6.96718 13.058 6.82338 13.1078 6.67335 13.1277C6.28801 13.1794 5.90703 13.2678 5.5385 13.3898C5.46317 13.3935 5.39345 13.4197 5.33618 13.4614C2.85606 14.3783 1.1958 16.7464 1.1958 19.3878V21.7726C1.1958 22.5788 1.85194 23.2349 2.65872 23.2349H15.7846C16.64 23.7367 17.614 24.0008 18.6058 24C21.6929 24 24.2041 21.4888 24.2041 18.4017C24.2041 15.3146 21.6929 12.8034 18.6058 12.8034V12.8027ZM6.62231 3.02295C6.89746 2.5598 7.30396 2.26597 7.86485 2.12403C7.91775 2.1106 7.96706 2.08575 8.00932 2.05122C8.05158 2.0167 8.08578 1.97335 8.1095 1.9242C8.12009 1.90179 9.23938 -0.307529 12.9714 1.38635C13.028 1.41187 13.0847 1.43739 13.142 1.46043C13.2472 1.50276 13.7925 1.74865 14.1772 2.42782C14.6497 3.262 14.7126 4.45599 14.3633 5.89339C14.2457 5.82242 14.1654 5.60952 14.1455 5.51926C14.1442 5.51179 14.1423 5.50494 14.1405 5.49747C13.8186 4.30783 13.2633 3.56268 12.4889 3.28254C11.6379 2.97502 10.7895 3.33857 10.3973 3.55334C9.85754 3.23336 9.20888 3.15368 8.6013 3.33546C7.93831 3.53404 7.39921 4.01463 7.12219 4.65395C6.85575 5.27025 6.5364 5.59894 6.29735 5.77138C6.19712 5.11586 6.10624 3.88763 6.62168 3.02108L6.62231 3.02295ZM7.33198 8.48245C7.32638 8.29009 7.17199 8.13322 6.97963 8.12077C6.97465 8.12077 6.47352 8.08528 6.26187 7.74352C6.07511 7.44284 6.16973 6.98965 6.30731 6.61738C6.64845 6.47545 7.327 6.06645 7.80883 4.95276C7.99745 4.51638 8.36474 4.18831 8.81669 4.05322C9.25245 3.92249 9.70004 3.98723 10.0767 4.235C10.1097 4.25679 10.1433 4.2792 10.1769 4.30285C10.3051 4.39249 10.4763 4.39187 10.6052 4.30285C10.6139 4.29663 11.473 3.70897 12.2399 3.98848C12.7684 4.18084 13.165 4.75231 13.4184 5.68547C13.442 5.78881 13.5746 6.29429 13.9842 6.5377C14.1305 6.62485 14.2936 6.66718 14.4654 6.66407C14.5613 6.85332 14.6758 7.16395 14.5987 7.47397C14.5208 7.78959 14.2519 8.06038 13.8 8.27826C13.7412 8.30688 13.6909 8.35037 13.6541 8.40443C13.6173 8.45848 13.5952 8.52122 13.5902 8.58641C13.5833 8.67605 13.391 10.7945 11.0814 11.5782C10.6133 11.737 10.1028 11.7158 9.64464 11.5191C9.36699 11.3996 9.07379 11.2477 8.79365 11.0553C8.77685 11.041 8.75817 11.0286 8.73887 11.0173C8.00617 10.4988 7.37057 9.69948 7.33322 8.48245H7.33198ZM10.0169 22.4873H2.65872C2.26404 22.4873 1.94282 22.1667 1.94282 21.772V19.3871C1.94282 17.2077 3.22522 15.2393 5.18304 14.3323V16.569C4.33206 16.747 3.68588 17.5208 3.68588 18.4347V19.3417C3.68588 19.8546 4.10297 20.2717 4.61592 20.2717H4.90415C5.11021 20.2717 5.27766 20.1043 5.27766 19.8982C5.27766 19.6922 5.11021 19.5247 4.90415 19.5247H4.61592C4.51508 19.5247 4.4329 19.4425 4.4329 19.3417V18.4347C4.4329 17.8072 4.92781 17.288 5.53663 17.2774C5.84478 17.2737 6.13363 17.3888 6.35151 17.6061C6.56379 17.8184 6.6802 18.1004 6.6802 18.4004V19.3411C6.6802 19.4419 6.59803 19.5241 6.49718 19.5241H6.20895C6.0029 19.5241 5.83544 19.6915 5.83544 19.8976C5.83544 20.1036 6.0029 20.2711 6.20895 20.2711H6.49718C7.01014 20.2711 7.42722 19.854 7.42722 19.3411V18.4004C7.42722 17.9006 7.233 17.4305 6.87941 17.0776C6.61484 16.8136 6.28677 16.6399 5.93069 16.5677V14.0478C6.20584 13.9656 6.48784 13.9046 6.77171 13.8666C6.94421 13.8439 7.11268 13.7972 7.27222 13.7278L10.0169 15.6508V22.4867V22.4873ZM7.92213 13.2721C8.05213 13.1327 8.16099 12.975 8.24521 12.804L8.70277 11.8802C8.93248 12.0146 9.15409 12.1229 9.34894 12.2064C9.69382 12.3549 10.0653 12.4315 10.4408 12.4317C10.7378 12.4317 11.0347 12.3832 11.3211 12.2867C11.6112 12.1883 11.8733 12.0719 12.1111 11.9424L12.5356 12.8027C12.6199 12.9744 12.729 13.1328 12.8593 13.2727L10.391 15.0015L7.92275 13.2727L7.92213 13.2721ZM10.7639 22.4873V15.6514L13.5086 13.729C13.6692 13.7981 13.8367 13.8448 14.0091 13.8672C14.3546 13.9139 14.6939 13.993 15.0232 14.1032C13.7925 15.131 13.0081 16.6761 13.0081 18.4011C13.0081 20.0115 13.6923 21.4651 14.7842 22.4873H10.7639ZM18.6058 23.2524C15.9308 23.2524 13.7545 21.076 13.7545 18.4011C13.7545 15.7261 15.9308 13.5498 18.6058 13.5498C21.2808 13.5498 23.4571 15.7261 23.4571 18.4011C23.4571 21.076 21.2808 23.2524 18.6058 23.2524Z" fill="currentColor"/>
<path d="M18.6058 12.8027C17.5656 12.8027 16.5907 13.0885 15.7553 13.5846C15.2293 13.3568 14.6765 13.203 14.1069 13.1264C13.9587 13.1071 13.8168 13.058 13.6854 12.9839C13.6723 12.9752 13.6586 12.9665 13.6443 12.9596C13.4551 12.8407 13.3032 12.6739 13.2048 12.4722L12.7379 11.5266C13.9058 10.6015 14.2239 9.35398 14.3067 8.85596C14.8638 8.5447 15.2056 8.1382 15.3251 7.64516C15.4745 7.02762 15.2156 6.46237 15.0593 6.19531C15.4963 4.49397 15.4185 3.10326 14.8277 2.06054C14.3335 1.18776 13.6263 0.85098 13.4215 0.768185C13.3742 0.748887 13.3268 0.727722 13.2802 0.706556C11.0248 -0.317489 9.56745 -0.0410901 8.74261 0.371018C8.06219 0.710914 7.68619 1.19586 7.52745 1.443C6.84953 1.64967 6.3291 2.05307 5.97862 2.64384C5.19923 3.95735 5.52418 5.79565 5.63188 6.29056C5.33556 7.05128 5.33556 7.67504 5.63188 8.14504C5.89085 8.55653 6.31105 8.73457 6.6055 8.81052C6.73187 10.0456 7.37929 10.8897 8.08087 11.4531L7.57538 12.474C7.47685 12.6754 7.32342 12.8448 7.13277 12.9627C7.12219 12.9683 7.11161 12.9739 7.10165 12.9808C6.96718 13.058 6.82338 13.1078 6.67335 13.1277C6.28801 13.1794 5.90703 13.2678 5.5385 13.3898C5.46317 13.3935 5.39345 13.4197 5.33618 13.4614C2.85606 14.3783 1.1958 16.7464 1.1958 19.3878V21.7726C1.1958 22.5788 1.85194 23.2349 2.65872 23.2349H15.7846C16.64 23.7367 17.614 24.0008 18.6058 24C21.6929 24 24.2041 21.4888 24.2041 18.4017C24.2041 15.3146 21.6929 12.8034 18.6058 12.8034V12.8027ZM6.62231 3.02295C6.89746 2.5598 7.30396 2.26597 7.86485 2.12403C7.91775 2.1106 7.96706 2.08575 8.00932 2.05122C8.05158 2.0167 8.08578 1.97335 8.1095 1.9242C8.12009 1.90179 9.23938 -0.307529 12.9714 1.38635C13.028 1.41187 13.0847 1.43739 13.142 1.46043C13.2472 1.50276 13.7925 1.74865 14.1772 2.42782C14.6497 3.262 14.7126 4.45599 14.3633 5.89339C14.2457 5.82242 14.1654 5.60952 14.1455 5.51926C14.1442 5.51179 14.1423 5.50494 14.1405 5.49747C13.8186 4.30783 13.2633 3.56268 12.4889 3.28254C11.6379 2.97502 10.7895 3.33857 10.3973 3.55334C9.85754 3.23336 9.20888 3.15368 8.6013 3.33546C7.93831 3.53404 7.39921 4.01463 7.12219 4.65395C6.85575 5.27025 6.5364 5.59894 6.29735 5.77138C6.19712 5.11586 6.10624 3.88763 6.62168 3.02108L6.62231 3.02295ZM7.33198 8.48245C7.32638 8.29009 7.17199 8.13322 6.97963 8.12077C6.97465 8.12077 6.47352 8.08528 6.26187 7.74352C6.07511 7.44284 6.16973 6.98965 6.30731 6.61738C6.64845 6.47545 7.327 6.06645 7.80883 4.95276C7.99745 4.51638 8.36474 4.18831 8.81669 4.05322C9.25245 3.92249 9.70004 3.98723 10.0767 4.235C10.1097 4.25679 10.1433 4.2792 10.1769 4.30285C10.3051 4.39249 10.4763 4.39187 10.6052 4.30285C10.6139 4.29663 11.473 3.70897 12.2399 3.98848C12.7684 4.18084 13.165 4.75231 13.4184 5.68547C13.442 5.78881 13.5746 6.29429 13.9842 6.5377C14.1305 6.62485 14.2936 6.66718 14.4654 6.66407C14.5613 6.85332 14.6758 7.16395 14.5987 7.47397C14.5208 7.78959 14.2519 8.06038 13.8 8.27826C13.7412 8.30688 13.6909 8.35037 13.6541 8.40443C13.6173 8.45848 13.5952 8.52122 13.5902 8.58641C13.5833 8.67605 13.391 10.7945 11.0814 11.5782C10.6133 11.737 10.1028 11.7158 9.64464 11.5191C9.36699 11.3996 9.07379 11.2477 8.79365 11.0553C8.77685 11.041 8.75817 11.0286 8.73887 11.0173C8.00617 10.4988 7.37057 9.69948 7.33322 8.48245H7.33198ZM10.0169 22.4873H2.65872C2.26404 22.4873 1.94282 22.1667 1.94282 21.772V19.3871C1.94282 17.2077 3.22522 15.2393 5.18304 14.3323V16.569C4.33206 16.747 3.68588 17.5208 3.68588 18.4347V19.3417C3.68588 19.8546 4.10297 20.2717 4.61592 20.2717H4.90415C5.11021 20.2717 5.27766 20.1043 5.27766 19.8982C5.27766 19.6922 5.11021 19.5247 4.90415 19.5247H4.61592C4.51508 19.5247 4.4329 19.4425 4.4329 19.3417V18.4347C4.4329 17.8072 4.92781 17.288 5.53663 17.2774C5.84478 17.2737 6.13363 17.3888 6.35151 17.6061C6.56379 17.8184 6.6802 18.1004 6.6802 18.4004V19.3411C6.6802 19.4419 6.59803 19.5241 6.49718 19.5241H6.20895C6.0029 19.5241 5.83544 19.6915 5.83544 19.8976C5.83544 20.1036 6.0029 20.2711 6.20895 20.2711H6.49718C7.01014 20.2711 7.42722 19.854 7.42722 19.3411V18.4004C7.42722 17.9006 7.233 17.4305 6.87941 17.0776C6.61484 16.8136 6.28677 16.6399 5.93069 16.5677V14.0478C6.20584 13.9656 6.48784 13.9046 6.77171 13.8666C6.94421 13.8439 7.11268 13.7972 7.27222 13.7278L10.0169 15.6508V22.4867V22.4873ZM7.92213 13.2721C8.05213 13.1327 8.16099 12.975 8.24521 12.804L8.70277 11.8802C8.93248 12.0146 9.15409 12.1229 9.34894 12.2064C9.69382 12.3549 10.0653 12.4315 10.4408 12.4317C10.7378 12.4317 11.0347 12.3832 11.3211 12.2867C11.6112 12.1883 11.8733 12.0719 12.1111 11.9424L12.5356 12.8027C12.6199 12.9744 12.729 13.1328 12.8593 13.2727L10.391 15.0015L7.92275 13.2727L7.92213 13.2721ZM10.7639 22.4873V15.6514L13.5086 13.729C13.6692 13.7981 13.8367 13.8448 14.0091 13.8672C14.3546 13.9139 14.6939 13.993 15.0232 14.1032C13.7925 15.131 13.0081 16.6761 13.0081 18.4011C13.0081 20.0115 13.6923 21.4651 14.7842 22.4873H10.7639ZM18.6058 23.2524C15.9308 23.2524 13.7545 21.076 13.7545 18.4011C13.7545 15.7261 15.9308 13.5498 18.6058 13.5498C21.2808 13.5498 23.4571 15.7261 23.4571 18.4011C23.4571 21.076 21.2808 23.2524 18.6058 23.2524Z" stroke="currentColor" stroke-width="0.2" mask="url(#gpath-2-outside-1_557_10995)"/>
</g>
<defs>
<clipPath id="gclip0_557_10995">
<rect width="24" height="24" fill="currentColor" transform="translate(0.699951)"/>
</clipPath>
</defs>
</symbol><symbol viewBox="0 0 16 16" fill="none" id="icon-headphones" xmlns="http://www.w3.org/2000/svg">
<path d="M16 6C16.0012 5.63294 15.9014 5.27263 15.7114 4.95853C15.5215 4.64443 15.2488 4.38866 14.9232 4.21924C14.5975 4.04981 14.2316 3.97327 13.8653 3.99798C13.4991 4.0227 13.1467 4.14773 12.8468 4.35937C12.5469 4.57102 12.3111 4.86111 12.165 5.19788C12.019 5.53466 11.9685 5.90512 12.019 6.26869C12.0696 6.63225 12.2192 6.97491 12.4514 7.25912C12.6837 7.54333 12.9898 7.75813 13.336 7.88V10.664C13.336 11.7249 12.9146 12.7423 12.1644 13.4924C11.4143 14.2426 10.3969 14.664 9.336 14.664C8.27513 14.664 7.25772 14.2426 6.50757 13.4924C5.75743 12.7423 5.336 11.7249 5.336 10.664V10.616C6.44572 10.4547 7.46041 9.89965 8.19479 9.05218C8.92916 8.20472 9.33422 7.12138 9.336 6V3.336C9.336 2.89791 9.24971 2.46411 9.08206 2.05937C8.91441 1.65463 8.66868 1.28687 8.35891 0.977092C8.04913 0.667316 7.68137 0.421588 7.27663 0.253938C6.87189 0.0862882 6.43809 0 6 0C5.82284 2.63996e-09 5.65293 0.0703784 5.52765 0.195653C5.40238 0.320927 5.332 0.490835 5.332 0.668C5.332 0.845165 5.40238 1.01507 5.52765 1.14035C5.65293 1.26562 5.82284 1.336 6 1.336C6.53043 1.336 7.03914 1.54671 7.41421 1.92179C7.78929 2.29686 8 2.80557 8 3.336V6C7.95807 6.85546 7.58872 7.66202 6.96844 8.25264C6.34817 8.84326 5.52449 9.17268 4.668 9.17268C3.81151 9.17268 2.98783 8.84326 2.36756 8.25264C1.74728 7.66202 1.37793 6.85546 1.336 6V3.336C1.336 2.80557 1.54671 2.29686 1.92179 1.92179C2.29686 1.54671 2.80557 1.336 3.336 1.336C3.51316 1.336 3.68307 1.26562 3.80835 1.14035C3.93362 1.01507 4.004 0.845165 4.004 0.668C4.004 0.490835 3.93362 0.320927 3.80835 0.195653C3.68307 0.0703784 3.51316 2.63996e-09 3.336 0C2.45124 0 1.60271 0.35147 0.977092 0.977092C0.35147 1.60271 0 2.45124 0 3.336L0 6C0.00178085 7.12138 0.40684 8.20472 1.14121 9.05218C1.87559 9.89965 2.89028 10.4547 4 10.616V10.664C4.0534 12.0424 4.63853 13.3466 5.63263 14.3029C6.62674 15.2592 7.95257 15.7934 9.332 15.7934C10.7114 15.7934 12.0373 15.2592 13.0314 14.3029C14.0255 13.3466 14.6106 12.0424 14.664 10.664V7.88C15.0535 7.7429 15.3911 7.48859 15.6303 7.15197C15.8695 6.81536 15.9986 6.41295 16 6ZM14 6.664C13.8239 6.664 13.655 6.59404 13.5305 6.46952C13.406 6.345 13.336 6.1761 13.336 6C13.336 5.8239 13.406 5.655 13.5305 5.53048C13.655 5.40596 13.8239 5.336 14 5.336C14.1761 5.336 14.345 5.40596 14.4695 5.53048C14.594 5.655 14.664 5.8239 14.664 6C14.664 6.1761 14.594 6.345 14.4695 6.46952C14.345 6.59404 14.1761 6.664 14 6.664Z" fill="currentColor"/>
</symbol><symbol viewBox="0 0 36 36" fill="none" id="icon-list" xmlns="http://www.w3.org/2000/svg">
<path d="M23.625 19.5C23.625 18.8787 23.1213 18.375 22.5 18.375H13.5C12.8787 18.375 12.375 18.8787 12.375 19.5C12.375 20.1213 12.8787 20.625 13.5 20.625H22.5C23.1213 20.625 23.625 20.1213 23.625 19.5Z" fill="currentColor"/>
<path d="M23.625 25.5C23.625 24.8787 23.1213 24.375 22.5 24.375H13.5C12.8787 24.375 12.375 24.8787 12.375 25.5C12.375 26.1213 12.8787 26.625 13.5 26.625H22.5C23.1213 26.625 23.625 26.1213 23.625 25.5Z" fill="currentColor"/>
<path fill-rule="evenodd" clip-rule="evenodd" d="M10.5 3.375C8.22183 3.375 6.375 5.22182 6.375 7.5V28.5C6.375 30.7782 8.22182 32.625 10.5 32.625H25.5C27.7782 32.625 29.625 30.7782 29.625 28.5V11.9515C29.625 11.3803 29.4387 10.8248 29.0944 10.369L24.5977 4.41756C24.1016 3.76095 23.3263 3.375 22.5033 3.375H10.5ZM8.625 7.5C8.625 6.46447 9.46447 5.625 10.5 5.625H21.375V12.2206C21.375 12.8419 21.8787 13.3456 22.5 13.3456H27.375V28.5C27.375 29.5355 26.5355 30.375 25.5 30.375H10.5C9.46447 30.375 8.625 29.5355 8.625 28.5V7.5Z" fill="currentColor"/>
</symbol><symbol viewBox="0 0 18 18" fill="none" id="icon-location" xmlns="http://www.w3.org/2000/svg">
<path d="M6.5625 7.5C6.5625 6.15381 7.65381 5.0625 9 5.0625C10.3462 5.0625 11.4375 6.15381 11.4375 7.5C11.4375 8.84619 10.3462 9.9375 9 9.9375C7.65381 9.9375 6.5625 8.84619 6.5625 7.5Z" fill="currentColor"/>
<path fill-rule="evenodd" clip-rule="evenodd" d="M2.83016 6.65804C3.08789 3.53134 5.70073 1.125 8.83804 1.125H9.162C12.2993 1.125 14.9122 3.53134 15.1699 6.65804C15.3086 8.34149 14.7886 10.0131 13.7194 11.3207L10.1246 15.7171C9.54337 16.4279 8.45667 16.4279 7.87544 15.7171L4.28064 11.3207C3.2114 10.0131 2.69139 8.34149 2.83016 6.65804ZM9 3.9375C7.03249 3.9375 5.4375 5.53249 5.4375 7.5C5.4375 9.46751 7.03249 11.0625 9 11.0625C10.9675 11.0625 12.5625 9.46751 12.5625 7.5C12.5625 5.53249 10.9675 3.9375 9 3.9375Z" fill="currentColor"/>
</symbol><symbol viewBox="0 0 20 20" fill="none" id="icon-mail" xmlns="http://www.w3.org/2000/svg">
<path d="M6.07408 4.08974C8.68629 3.86267 11.3133 3.86267 13.9255 4.08974L15.184 4.19914C16.0218 4.27197 16.7393 4.77169 17.1111 5.48651C17.1587 5.57795 17.1231 5.68867 17.0354 5.74293L11.8138 8.97537C10.6939 9.66863 9.2818 9.68318 8.14786 9.01313L2.89134 5.907C2.80642 5.85682 2.76744 5.75352 2.80571 5.6626C3.14584 4.85463 3.91053 4.27781 4.81556 4.19914L6.07408 4.08974Z" fill="currentColor"/>
<path d="M2.80143 7.30579C2.67146 7.22899 2.50563 7.31164 2.49048 7.46184C2.27903 9.55821 2.3302 11.6744 2.644 13.7612C2.80943 14.8613 3.70727 15.7046 4.81556 15.801L6.07409 15.9104C8.68628 16.1374 11.3133 16.1374 13.9255 15.9104L15.184 15.801C16.2923 15.7046 17.1901 14.8613 17.3555 13.7612C17.6785 11.6136 17.7233 9.43484 17.4899 7.27862C17.4735 7.12736 17.3049 7.04624 17.1755 7.12632L12.4717 10.0382C10.9566 10.9761 9.0461 10.9958 7.51195 10.0893L2.80143 7.30579Z" fill="currentColor"/>
</symbol><symbol viewBox="0 0 25 22" fill="none" id="icon-main" xmlns="http://www.w3.org/2000/svg">
<mask id="lpath-1-outside-1_557_11021" maskUnits="userSpaceOnUse" x="-0.800049" y="-0.900024" width="25" height="23" fill="currentColor">
<rect fill="currentColor" x="-0.800049" y="-0.900024" width="25" height="23"/>
<path d="M22.5018 6.63789C23.8458 5.11223 24.298 3.87266 23.8078 3.04275C23.296 2.18124 21.8858 1.95618 19.7232 2.38796C19.3146 1.90877 18.8182 1.53076 18.2479 1.27954C16.5266 0.52143 14.388 1.01274 12.2045 2.66202C10.7195 1.53866 9.28533 0.95734 7.93863 0.933681C6.81068 0.913699 5.81099 1.29253 5.02363 2.0337L4.11695 0.274842C4.08981 0.222261 4.04826 0.178072 3.99694 0.147198C3.94561 0.116323 3.88651 0.0999756 3.82624 0.0999756C3.76596 0.0999756 3.70686 0.116323 3.65554 0.147198C3.60421 0.178072 3.56266 0.222261 3.53552 0.274842L2.47833 2.32574L0.378946 3.35864C0.325121 3.38514 0.279886 3.42572 0.248282 3.47586C0.216678 3.526 0.199946 3.58373 0.199951 3.64261C0.199956 3.7015 0.216697 3.75922 0.24831 3.80936C0.279922 3.85949 0.325163 3.90007 0.378992 3.92656L2.47833 4.95941L3.42707 6.79983C3.51581 8.07028 3.8962 9.33714 4.5434 10.5385C2.41064 12.5549 1.57002 14.2214 2.17525 15.2459C2.42357 15.6663 2.83616 15.951 3.40155 16.0923C3.68102 16.1621 3.99981 16.1969 4.35774 16.1969C4.79697 16.1969 5.29529 16.1441 5.85082 16.0394C5.97689 17.0705 6.13847 17.9951 6.33287 18.7883C6.81798 20.7675 7.45872 21.7823 8.29186 21.8905C8.34072 21.8968 8.38939 21.9 8.43806 21.9C9.02492 21.8999 9.59682 21.4369 10.1814 20.4901C10.7924 19.5005 11.4258 17.9562 12.0644 15.899C12.0837 15.8355 12.1361 15.7976 12.2045 15.7976C12.272 15.7976 12.3238 15.8355 12.3436 15.9002C12.9783 17.945 13.6083 19.4839 14.2162 20.4739C14.8449 21.4977 15.4589 21.9616 16.0932 21.8929C16.8278 21.8131 17.4115 21.0335 17.8775 19.5098C18.2555 18.2736 18.5415 16.5616 18.7083 14.5425C18.8905 14.5635 19.0757 14.5747 19.2636 14.5747C21.8597 14.5747 23.9718 12.5107 23.9718 9.97372C23.9717 8.66186 23.4066 7.4766 22.5018 6.63789ZM23.2444 3.36127C23.5756 3.92216 23.1224 4.96137 21.9999 6.23286C21.6839 6.01144 21.341 5.82918 20.9791 5.69023C20.9011 4.64693 20.6078 3.71512 20.1381 2.95788C21.7739 2.67092 22.9197 2.81483 23.2444 3.36127ZM7.92696 1.5695C9.16949 1.59134 10.578 2.19482 12.0002 3.31473C12.0037 3.31754 12.0077 3.31945 12.0114 3.32208C13.3238 4.27033 14.7164 4.78508 16.27 4.89429L16.3167 4.26002C15.0286 4.16947 13.8588 3.77325 12.753 3.05388C14.6822 1.64424 16.527 1.21905 17.9804 1.85927C19.2616 2.42365 20.1116 3.76281 20.3062 5.48787C19.964 5.41208 19.6143 5.3739 19.2635 5.37403C16.6667 5.37403 14.5539 7.43746 14.5539 9.97368C14.5539 10.577 14.6736 11.1534 14.8906 11.6818C13.8852 12.2515 11.8737 13.2811 9.8233 14.1152C8.53572 14.639 7.39471 15.023 6.41989 15.2633C6.31901 14.2815 6.2458 13.1839 6.20857 11.9736C6.20651 11.9065 6.18275 11.8418 6.1407 11.7887C4.70758 9.97817 4.23158 8.25638 4.10105 7.03656C4.10658 7.02798 4.11226 7.01953 4.117 7.01041L5.17424 4.95946L7.27357 3.92661C7.32742 3.90013 7.37267 3.85956 7.4043 3.80942C7.43592 3.75928 7.45267 3.70155 7.45267 3.64266C7.45268 3.58377 7.43594 3.52604 7.40432 3.47589C7.37271 3.42575 7.32746 3.38517 7.27362 3.35868L5.48843 2.48032C6.14869 1.86658 6.98346 1.5526 7.92696 1.5695ZM2.86708 4.43867L1.249 3.6426L2.86712 2.84648C2.92944 2.81582 2.98003 2.76641 3.01141 2.70552L3.82628 1.12477L4.64116 2.70552C4.67254 2.76641 4.72312 2.81582 4.78544 2.84648L6.40357 3.6426L4.78549 4.43867C4.72316 4.46933 4.67256 4.51875 4.64116 4.57963L3.82628 6.16043L3.01141 4.57963C2.98001 4.51875 2.92941 4.46933 2.86708 4.43867ZM3.56281 15.4761C3.16816 15.3775 2.89868 15.1983 2.73906 14.928C2.32539 14.2278 3.14073 12.7828 4.87525 11.1113C5.08625 11.4507 5.3152 11.7792 5.56118 12.0953C5.59967 13.2763 5.67316 14.3864 5.77914 15.405C4.84982 15.5855 4.10314 15.6112 3.56281 15.4761ZM16.0211 21.2609C15.7183 21.2935 14.6039 20.991 12.9669 15.7169C12.8654 15.3848 12.5589 15.1616 12.2044 15.1616C11.849 15.1616 11.5421 15.3848 11.4409 15.7156C9.79578 21.0158 8.6801 21.2997 8.37758 21.26C7.67222 21.1684 6.90649 19.3257 6.49124 15.9016C7.51841 15.6553 8.71413 15.2553 10.0735 14.7023C12.1221 13.8689 14.1362 12.8408 15.175 12.2555C15.7952 13.312 16.832 14.1063 18.065 14.4235C17.6924 19.0307 16.7764 21.1788 16.0211 21.2609ZM19.2635 13.9387C17.0256 13.9387 15.2049 12.16 15.2049 9.97363C15.2049 7.78804 17.0256 6.00998 19.2635 6.00998C21.5007 6.00998 23.3208 7.78804 23.3208 9.97363C23.3208 12.16 21.5007 13.9387 19.2635 13.9387ZM21.8581 8.92321H20.3387V7.43769C20.3387 7.35335 20.3044 7.27248 20.2434 7.21284C20.1824 7.15321 20.0996 7.11971 20.0133 7.11971H18.5137C18.4274 7.11971 18.3446 7.15321 18.2836 7.21284C18.2225 7.27248 18.1882 7.35335 18.1882 7.43769V8.92321H16.6676C16.5813 8.92321 16.4985 8.95671 16.4374 9.01634C16.3764 9.07597 16.3421 9.15685 16.3421 9.24118V10.7062C16.3421 10.7905 16.3764 10.8714 16.4374 10.931C16.4985 10.9906 16.5813 11.0242 16.6676 11.0242H18.1882V12.5097C18.1882 12.594 18.2225 12.6749 18.2836 12.7345C18.3446 12.7941 18.4274 12.8276 18.5137 12.8276H20.0133C20.0996 12.8276 20.1824 12.7941 20.2434 12.7345C20.3044 12.6749 20.3387 12.594 20.3387 12.5097V11.0242H21.8581C21.9444 11.0242 22.0272 10.9906 22.0882 10.931C22.1493 10.8714 22.1836 10.7905 22.1836 10.7062V9.24118C22.1836 9.15685 22.1493 9.07598 22.0882 9.01635C22.0272 8.95672 21.9444 8.92322 21.8581 8.92321ZM21.5326 10.3882H20.0133C19.9269 10.3882 19.8441 10.4217 19.7831 10.4813C19.7221 10.541 19.6878 10.6218 19.6878 10.7062V12.1917H18.8392V10.7062C18.8392 10.6218 18.8049 10.541 18.7438 10.4813C18.6828 10.4217 18.6 10.3882 18.5137 10.3882H16.993V9.55916H18.5137C18.5564 9.55916 18.5987 9.55093 18.6382 9.53495C18.6777 9.51897 18.7136 9.49555 18.7438 9.46602C18.774 9.4365 18.798 9.40144 18.8144 9.36287C18.8307 9.32429 18.8392 9.28294 18.8392 9.24118V7.75566H19.6878V9.24118C19.6878 9.32551 19.7221 9.40639 19.7831 9.46602C19.8441 9.52566 19.9269 9.55916 20.0133 9.55916H21.5326V10.3882ZM23.3368 16.7932L22.0807 16.1749L21.4477 14.9478C21.4206 14.8952 21.3791 14.851 21.3277 14.8201C21.2764 14.7892 21.2173 14.7729 21.1571 14.7729C21.0968 14.7729 21.0377 14.7892 20.9864 14.8201C20.935 14.851 20.8935 14.8952 20.8664 14.9478L20.2334 16.1749L18.9773 16.7932C18.9235 16.8197 18.8783 16.8603 18.8467 16.9104C18.8151 16.9606 18.7983 17.0183 18.7983 17.0772C18.7983 17.136 18.8151 17.1938 18.8467 17.2439C18.8783 17.294 18.9235 17.3346 18.9773 17.3611L20.2334 17.9795L20.8664 19.2066C20.8935 19.2592 20.935 19.3034 20.9864 19.3342C21.0377 19.3651 21.0968 19.3815 21.1571 19.3815C21.2173 19.3815 21.2764 19.3651 21.3277 19.3342C21.3791 19.3034 21.4206 19.2592 21.4477 19.2066L22.0807 17.9795L23.3368 17.3611C23.3906 17.3346 23.4358 17.294 23.4674 17.2439C23.499 17.1938 23.5158 17.136 23.5158 17.0772C23.5158 17.0183 23.499 16.9606 23.4674 16.9104C23.4358 16.8603 23.3906 16.8197 23.3368 16.7932ZM21.6919 17.4588C21.6296 17.4895 21.5791 17.5388 21.5477 17.5997L21.1571 18.357L20.7664 17.5997C20.7351 17.5388 20.6845 17.4894 20.6222 17.4588L19.8471 17.0772L20.6222 16.6956C20.6845 16.6649 20.7351 16.6155 20.7664 16.5547L21.1571 15.7974L21.5477 16.5547C21.579 16.6155 21.6296 16.6649 21.6919 16.6956L22.467 17.0772L21.6919 17.4588Z"/>
</mask>
<path d="M22.5018 6.63789C23.8458 5.11223 24.298 3.87266 23.8078 3.04275C23.296 2.18124 21.8858 1.95618 19.7232 2.38796C19.3146 1.90877 18.8182 1.53076 18.2479 1.27954C16.5266 0.52143 14.388 1.01274 12.2045 2.66202C10.7195 1.53866 9.28533 0.95734 7.93863 0.933681C6.81068 0.913699 5.81099 1.29253 5.02363 2.0337L4.11695 0.274842C4.08981 0.222261 4.04826 0.178072 3.99694 0.147198C3.94561 0.116323 3.88651 0.0999756 3.82624 0.0999756C3.76596 0.0999756 3.70686 0.116323 3.65554 0.147198C3.60421 0.178072 3.56266 0.222261 3.53552 0.274842L2.47833 2.32574L0.378946 3.35864C0.325121 3.38514 0.279886 3.42572 0.248282 3.47586C0.216678 3.526 0.199946 3.58373 0.199951 3.64261C0.199956 3.7015 0.216697 3.75922 0.24831 3.80936C0.279922 3.85949 0.325163 3.90007 0.378992 3.92656L2.47833 4.95941L3.42707 6.79983C3.51581 8.07028 3.8962 9.33714 4.5434 10.5385C2.41064 12.5549 1.57002 14.2214 2.17525 15.2459C2.42357 15.6663 2.83616 15.951 3.40155 16.0923C3.68102 16.1621 3.99981 16.1969 4.35774 16.1969C4.79697 16.1969 5.29529 16.1441 5.85082 16.0394C5.97689 17.0705 6.13847 17.9951 6.33287 18.7883C6.81798 20.7675 7.45872 21.7823 8.29186 21.8905C8.34072 21.8968 8.38939 21.9 8.43806 21.9C9.02492 21.8999 9.59682 21.4369 10.1814 20.4901C10.7924 19.5005 11.4258 17.9562 12.0644 15.899C12.0837 15.8355 12.1361 15.7976 12.2045 15.7976C12.272 15.7976 12.3238 15.8355 12.3436 15.9002C12.9783 17.945 13.6083 19.4839 14.2162 20.4739C14.8449 21.4977 15.4589 21.9616 16.0932 21.8929C16.8278 21.8131 17.4115 21.0335 17.8775 19.5098C18.2555 18.2736 18.5415 16.5616 18.7083 14.5425C18.8905 14.5635 19.0757 14.5747 19.2636 14.5747C21.8597 14.5747 23.9718 12.5107 23.9718 9.97372C23.9717 8.66186 23.4066 7.4766 22.5018 6.63789ZM23.2444 3.36127C23.5756 3.92216 23.1224 4.96137 21.9999 6.23286C21.6839 6.01144 21.341 5.82918 20.9791 5.69023C20.9011 4.64693 20.6078 3.71512 20.1381 2.95788C21.7739 2.67092 22.9197 2.81483 23.2444 3.36127ZM7.92696 1.5695C9.16949 1.59134 10.578 2.19482 12.0002 3.31473C12.0037 3.31754 12.0077 3.31945 12.0114 3.32208C13.3238 4.27033 14.7164 4.78508 16.27 4.89429L16.3167 4.26002C15.0286 4.16947 13.8588 3.77325 12.753 3.05388C14.6822 1.64424 16.527 1.21905 17.9804 1.85927C19.2616 2.42365 20.1116 3.76281 20.3062 5.48787C19.964 5.41208 19.6143 5.3739 19.2635 5.37403C16.6667 5.37403 14.5539 7.43746 14.5539 9.97368C14.5539 10.577 14.6736 11.1534 14.8906 11.6818C13.8852 12.2515 11.8737 13.2811 9.8233 14.1152C8.53572 14.639 7.39471 15.023 6.41989 15.2633C6.31901 14.2815 6.2458 13.1839 6.20857 11.9736C6.20651 11.9065 6.18275 11.8418 6.1407 11.7887C4.70758 9.97817 4.23158 8.25638 4.10105 7.03656C4.10658 7.02798 4.11226 7.01953 4.117 7.01041L5.17424 4.95946L7.27357 3.92661C7.32742 3.90013 7.37267 3.85956 7.4043 3.80942C7.43592 3.75928 7.45267 3.70155 7.45267 3.64266C7.45268 3.58377 7.43594 3.52604 7.40432 3.47589C7.37271 3.42575 7.32746 3.38517 7.27362 3.35868L5.48843 2.48032C6.14869 1.86658 6.98346 1.5526 7.92696 1.5695ZM2.86708 4.43867L1.249 3.6426L2.86712 2.84648C2.92944 2.81582 2.98003 2.76641 3.01141 2.70552L3.82628 1.12477L4.64116 2.70552C4.67254 2.76641 4.72312 2.81582 4.78544 2.84648L6.40357 3.6426L4.78549 4.43867C4.72316 4.46933 4.67256 4.51875 4.64116 4.57963L3.82628 6.16043L3.01141 4.57963C2.98001 4.51875 2.92941 4.46933 2.86708 4.43867ZM3.56281 15.4761C3.16816 15.3775 2.89868 15.1983 2.73906 14.928C2.32539 14.2278 3.14073 12.7828 4.87525 11.1113C5.08625 11.4507 5.3152 11.7792 5.56118 12.0953C5.59967 13.2763 5.67316 14.3864 5.77914 15.405C4.84982 15.5855 4.10314 15.6112 3.56281 15.4761ZM16.0211 21.2609C15.7183 21.2935 14.6039 20.991 12.9669 15.7169C12.8654 15.3848 12.5589 15.1616 12.2044 15.1616C11.849 15.1616 11.5421 15.3848 11.4409 15.7156C9.79578 21.0158 8.6801 21.2997 8.37758 21.26C7.67222 21.1684 6.90649 19.3257 6.49124 15.9016C7.51841 15.6553 8.71413 15.2553 10.0735 14.7023C12.1221 13.8689 14.1362 12.8408 15.175 12.2555C15.7952 13.312 16.832 14.1063 18.065 14.4235C17.6924 19.0307 16.7764 21.1788 16.0211 21.2609ZM19.2635 13.9387C17.0256 13.9387 15.2049 12.16 15.2049 9.97363C15.2049 7.78804 17.0256 6.00998 19.2635 6.00998C21.5007 6.00998 23.3208 7.78804 23.3208 9.97363C23.3208 12.16 21.5007 13.9387 19.2635 13.9387ZM21.8581 8.92321H20.3387V7.43769C20.3387 7.35335 20.3044 7.27248 20.2434 7.21284C20.1824 7.15321 20.0996 7.11971 20.0133 7.11971H18.5137C18.4274 7.11971 18.3446 7.15321 18.2836 7.21284C18.2225 7.27248 18.1882 7.35335 18.1882 7.43769V8.92321H16.6676C16.5813 8.92321 16.4985 8.95671 16.4374 9.01634C16.3764 9.07597 16.3421 9.15685 16.3421 9.24118V10.7062C16.3421 10.7905 16.3764 10.8714 16.4374 10.931C16.4985 10.9906 16.5813 11.0242 16.6676 11.0242H18.1882V12.5097C18.1882 12.594 18.2225 12.6749 18.2836 12.7345C18.3446 12.7941 18.4274 12.8276 18.5137 12.8276H20.0133C20.0996 12.8276 20.1824 12.7941 20.2434 12.7345C20.3044 12.6749 20.3387 12.594 20.3387 12.5097V11.0242H21.8581C21.9444 11.0242 22.0272 10.9906 22.0882 10.931C22.1493 10.8714 22.1836 10.7905 22.1836 10.7062V9.24118C22.1836 9.15685 22.1493 9.07598 22.0882 9.01635C22.0272 8.95672 21.9444 8.92322 21.8581 8.92321ZM21.5326 10.3882H20.0133C19.9269 10.3882 19.8441 10.4217 19.7831 10.4813C19.7221 10.541 19.6878 10.6218 19.6878 10.7062V12.1917H18.8392V10.7062C18.8392 10.6218 18.8049 10.541 18.7438 10.4813C18.6828 10.4217 18.6 10.3882 18.5137 10.3882H16.993V9.55916H18.5137C18.5564 9.55916 18.5987 9.55093 18.6382 9.53495C18.6777 9.51897 18.7136 9.49555 18.7438 9.46602C18.774 9.4365 18.798 9.40144 18.8144 9.36287C18.8307 9.32429 18.8392 9.28294 18.8392 9.24118V7.75566H19.6878V9.24118C19.6878 9.32551 19.7221 9.40639 19.7831 9.46602C19.8441 9.52566 19.9269 9.55916 20.0133 9.55916H21.5326V10.3882ZM23.3368 16.7932L22.0807 16.1749L21.4477 14.9478C21.4206 14.8952 21.3791 14.851 21.3277 14.8201C21.2764 14.7892 21.2173 14.7729 21.1571 14.7729C21.0968 14.7729 21.0377 14.7892 20.9864 14.8201C20.935 14.851 20.8935 14.8952 20.8664 14.9478L20.2334 16.1749L18.9773 16.7932C18.9235 16.8197 18.8783 16.8603 18.8467 16.9104C18.8151 16.9606 18.7983 17.0183 18.7983 17.0772C18.7983 17.136 18.8151 17.1938 18.8467 17.2439C18.8783 17.294 18.9235 17.3346 18.9773 17.3611L20.2334 17.9795L20.8664 19.2066C20.8935 19.2592 20.935 19.3034 20.9864 19.3342C21.0377 19.3651 21.0968 19.3815 21.1571 19.3815C21.2173 19.3815 21.2764 19.3651 21.3277 19.3342C21.3791 19.3034 21.4206 19.2592 21.4477 19.2066L22.0807 17.9795L23.3368 17.3611C23.3906 17.3346 23.4358 17.294 23.4674 17.2439C23.499 17.1938 23.5158 17.136 23.5158 17.0772C23.5158 17.0183 23.499 16.9606 23.4674 16.9104C23.4358 16.8603 23.3906 16.8197 23.3368 16.7932ZM21.6919 17.4588C21.6296 17.4895 21.5791 17.5388 21.5477 17.5997L21.1571 18.357L20.7664 17.5997C20.7351 17.5388 20.6845 17.4894 20.6222 17.4588L19.8471 17.0772L20.6222 16.6956C20.6845 16.6649 20.7351 16.6155 20.7664 16.5547L21.1571 15.7974L21.5477 16.5547C21.579 16.6155 21.6296 16.6649 21.6919 16.6956L22.467 17.0772L21.6919 17.4588Z" fill="currentColor"/>
<path d="M22.5018 6.63789C23.8458 5.11223 24.298 3.87266 23.8078 3.04275C23.296 2.18124 21.8858 1.95618 19.7232 2.38796C19.3146 1.90877 18.8182 1.53076 18.2479 1.27954C16.5266 0.52143 14.388 1.01274 12.2045 2.66202C10.7195 1.53866 9.28533 0.95734 7.93863 0.933681C6.81068 0.913699 5.81099 1.29253 5.02363 2.0337L4.11695 0.274842C4.08981 0.222261 4.04826 0.178072 3.99694 0.147198C3.94561 0.116323 3.88651 0.0999756 3.82624 0.0999756C3.76596 0.0999756 3.70686 0.116323 3.65554 0.147198C3.60421 0.178072 3.56266 0.222261 3.53552 0.274842L2.47833 2.32574L0.378946 3.35864C0.325121 3.38514 0.279886 3.42572 0.248282 3.47586C0.216678 3.526 0.199946 3.58373 0.199951 3.64261C0.199956 3.7015 0.216697 3.75922 0.24831 3.80936C0.279922 3.85949 0.325163 3.90007 0.378992 3.92656L2.47833 4.95941L3.42707 6.79983C3.51581 8.07028 3.8962 9.33714 4.5434 10.5385C2.41064 12.5549 1.57002 14.2214 2.17525 15.2459C2.42357 15.6663 2.83616 15.951 3.40155 16.0923C3.68102 16.1621 3.99981 16.1969 4.35774 16.1969C4.79697 16.1969 5.29529 16.1441 5.85082 16.0394C5.97689 17.0705 6.13847 17.9951 6.33287 18.7883C6.81798 20.7675 7.45872 21.7823 8.29186 21.8905C8.34072 21.8968 8.38939 21.9 8.43806 21.9C9.02492 21.8999 9.59682 21.4369 10.1814 20.4901C10.7924 19.5005 11.4258 17.9562 12.0644 15.899C12.0837 15.8355 12.1361 15.7976 12.2045 15.7976C12.272 15.7976 12.3238 15.8355 12.3436 15.9002C12.9783 17.945 13.6083 19.4839 14.2162 20.4739C14.8449 21.4977 15.4589 21.9616 16.0932 21.8929C16.8278 21.8131 17.4115 21.0335 17.8775 19.5098C18.2555 18.2736 18.5415 16.5616 18.7083 14.5425C18.8905 14.5635 19.0757 14.5747 19.2636 14.5747C21.8597 14.5747 23.9718 12.5107 23.9718 9.97372C23.9717 8.66186 23.4066 7.4766 22.5018 6.63789ZM23.2444 3.36127C23.5756 3.92216 23.1224 4.96137 21.9999 6.23286C21.6839 6.01144 21.341 5.82918 20.9791 5.69023C20.9011 4.64693 20.6078 3.71512 20.1381 2.95788C21.7739 2.67092 22.9197 2.81483 23.2444 3.36127ZM7.92696 1.5695C9.16949 1.59134 10.578 2.19482 12.0002 3.31473C12.0037 3.31754 12.0077 3.31945 12.0114 3.32208C13.3238 4.27033 14.7164 4.78508 16.27 4.89429L16.3167 4.26002C15.0286 4.16947 13.8588 3.77325 12.753 3.05388C14.6822 1.64424 16.527 1.21905 17.9804 1.85927C19.2616 2.42365 20.1116 3.76281 20.3062 5.48787C19.964 5.41208 19.6143 5.3739 19.2635 5.37403C16.6667 5.37403 14.5539 7.43746 14.5539 9.97368C14.5539 10.577 14.6736 11.1534 14.8906 11.6818C13.8852 12.2515 11.8737 13.2811 9.8233 14.1152C8.53572 14.639 7.39471 15.023 6.41989 15.2633C6.31901 14.2815 6.2458 13.1839 6.20857 11.9736C6.20651 11.9065 6.18275 11.8418 6.1407 11.7887C4.70758 9.97817 4.23158 8.25638 4.10105 7.03656C4.10658 7.02798 4.11226 7.01953 4.117 7.01041L5.17424 4.95946L7.27357 3.92661C7.32742 3.90013 7.37267 3.85956 7.4043 3.80942C7.43592 3.75928 7.45267 3.70155 7.45267 3.64266C7.45268 3.58377 7.43594 3.52604 7.40432 3.47589C7.37271 3.42575 7.32746 3.38517 7.27362 3.35868L5.48843 2.48032C6.14869 1.86658 6.98346 1.5526 7.92696 1.5695ZM2.86708 4.43867L1.249 3.6426L2.86712 2.84648C2.92944 2.81582 2.98003 2.76641 3.01141 2.70552L3.82628 1.12477L4.64116 2.70552C4.67254 2.76641 4.72312 2.81582 4.78544 2.84648L6.40357 3.6426L4.78549 4.43867C4.72316 4.46933 4.67256 4.51875 4.64116 4.57963L3.82628 6.16043L3.01141 4.57963C2.98001 4.51875 2.92941 4.46933 2.86708 4.43867ZM3.56281 15.4761C3.16816 15.3775 2.89868 15.1983 2.73906 14.928C2.32539 14.2278 3.14073 12.7828 4.87525 11.1113C5.08625 11.4507 5.3152 11.7792 5.56118 12.0953C5.59967 13.2763 5.67316 14.3864 5.77914 15.405C4.84982 15.5855 4.10314 15.6112 3.56281 15.4761ZM16.0211 21.2609C15.7183 21.2935 14.6039 20.991 12.9669 15.7169C12.8654 15.3848 12.5589 15.1616 12.2044 15.1616C11.849 15.1616 11.5421 15.3848 11.4409 15.7156C9.79578 21.0158 8.6801 21.2997 8.37758 21.26C7.67222 21.1684 6.90649 19.3257 6.49124 15.9016C7.51841 15.6553 8.71413 15.2553 10.0735 14.7023C12.1221 13.8689 14.1362 12.8408 15.175 12.2555C15.7952 13.312 16.832 14.1063 18.065 14.4235C17.6924 19.0307 16.7764 21.1788 16.0211 21.2609ZM19.2635 13.9387C17.0256 13.9387 15.2049 12.16 15.2049 9.97363C15.2049 7.78804 17.0256 6.00998 19.2635 6.00998C21.5007 6.00998 23.3208 7.78804 23.3208 9.97363C23.3208 12.16 21.5007 13.9387 19.2635 13.9387ZM21.8581 8.92321H20.3387V7.43769C20.3387 7.35335 20.3044 7.27248 20.2434 7.21284C20.1824 7.15321 20.0996 7.11971 20.0133 7.11971H18.5137C18.4274 7.11971 18.3446 7.15321 18.2836 7.21284C18.2225 7.27248 18.1882 7.35335 18.1882 7.43769V8.92321H16.6676C16.5813 8.92321 16.4985 8.95671 16.4374 9.01634C16.3764 9.07597 16.3421 9.15685 16.3421 9.24118V10.7062C16.3421 10.7905 16.3764 10.8714 16.4374 10.931C16.4985 10.9906 16.5813 11.0242 16.6676 11.0242H18.1882V12.5097C18.1882 12.594 18.2225 12.6749 18.2836 12.7345C18.3446 12.7941 18.4274 12.8276 18.5137 12.8276H20.0133C20.0996 12.8276 20.1824 12.7941 20.2434 12.7345C20.3044 12.6749 20.3387 12.594 20.3387 12.5097V11.0242H21.8581C21.9444 11.0242 22.0272 10.9906 22.0882 10.931C22.1493 10.8714 22.1836 10.7905 22.1836 10.7062V9.24118C22.1836 9.15685 22.1493 9.07598 22.0882 9.01635C22.0272 8.95672 21.9444 8.92322 21.8581 8.92321ZM21.5326 10.3882H20.0133C19.9269 10.3882 19.8441 10.4217 19.7831 10.4813C19.7221 10.541 19.6878 10.6218 19.6878 10.7062V12.1917H18.8392V10.7062C18.8392 10.6218 18.8049 10.541 18.7438 10.4813C18.6828 10.4217 18.6 10.3882 18.5137 10.3882H16.993V9.55916H18.5137C18.5564 9.55916 18.5987 9.55093 18.6382 9.53495C18.6777 9.51897 18.7136 9.49555 18.7438 9.46602C18.774 9.4365 18.798 9.40144 18.8144 9.36287C18.8307 9.32429 18.8392 9.28294 18.8392 9.24118V7.75566H19.6878V9.24118C19.6878 9.32551 19.7221 9.40639 19.7831 9.46602C19.8441 9.52566 19.9269 9.55916 20.0133 9.55916H21.5326V10.3882ZM23.3368 16.7932L22.0807 16.1749L21.4477 14.9478C21.4206 14.8952 21.3791 14.851 21.3277 14.8201C21.2764 14.7892 21.2173 14.7729 21.1571 14.7729C21.0968 14.7729 21.0377 14.7892 20.9864 14.8201C20.935 14.851 20.8935 14.8952 20.8664 14.9478L20.2334 16.1749L18.9773 16.7932C18.9235 16.8197 18.8783 16.8603 18.8467 16.9104C18.8151 16.9606 18.7983 17.0183 18.7983 17.0772C18.7983 17.136 18.8151 17.1938 18.8467 17.2439C18.8783 17.294 18.9235 17.3346 18.9773 17.3611L20.2334 17.9795L20.8664 19.2066C20.8935 19.2592 20.935 19.3034 20.9864 19.3342C21.0377 19.3651 21.0968 19.3815 21.1571 19.3815C21.2173 19.3815 21.2764 19.3651 21.3277 19.3342C21.3791 19.3034 21.4206 19.2592 21.4477 19.2066L22.0807 17.9795L23.3368 17.3611C23.3906 17.3346 23.4358 17.294 23.4674 17.2439C23.499 17.1938 23.5158 17.136 23.5158 17.0772C23.5158 17.0183 23.499 16.9606 23.4674 16.9104C23.4358 16.8603 23.3906 16.8197 23.3368 16.7932ZM21.6919 17.4588C21.6296 17.4895 21.5791 17.5388 21.5477 17.5997L21.1571 18.357L20.7664 17.5997C20.7351 17.5388 20.6845 17.4894 20.6222 17.4588L19.8471 17.0772L20.6222 16.6956C20.6845 16.6649 20.7351 16.6155 20.7664 16.5547L21.1571 15.7974L21.5477 16.5547C21.579 16.6155 21.6296 16.6649 21.6919 16.6956L22.467 17.0772L21.6919 17.4588Z" stroke="currentColor" stroke-width="0.2" mask="url(#lpath-1-outside-1_557_11021)"/>
</symbol><symbol viewBox="0 0 24 24" fill="none" id="icon-paperclip" xmlns="http://www.w3.org/2000/svg">
<path d="M12.3297 12.15L9.85969 14.62C8.48969 15.99 8.48969 18.2 9.85969 19.57C11.2297 20.94 13.4397 20.94 14.8097 19.57L18.6997 15.68C21.4297 12.95 21.4297 8.51004 18.6997 5.78004C15.9697 3.05004 11.5297 3.05004 8.79969 5.78004L4.55969 10.02C2.21969 12.36 2.21969 16.16 4.55969 18.51" stroke="currentColor" stroke-width="1.5" stroke-linecap="round" stroke-linejoin="round"/>
</symbol><symbol viewBox="0 0 13 12" fill="none" id="icon-plus" xmlns="http://www.w3.org/2000/svg">
<path d="M6.0625 5.5625V0.75C6.0625 0.62225 6.10348 0.517396 6.18544 0.435437C6.2674 0.353479 6.37225 0.3125 6.5 0.3125C6.62775 0.3125 6.7326 0.353479 6.81456 0.435437C6.89652 0.517396 6.9375 0.62225 6.9375 0.75V5.5625H11.75C11.8777 5.5625 11.9826 5.60348 12.0646 5.68544C12.1465 5.7674 12.1875 5.87225 12.1875 6C12.1875 6.12775 12.1465 6.2326 12.0646 6.31456C11.9826 6.39652 11.8777 6.4375 11.75 6.4375H6.9375V11.25C6.9375 11.3777 6.89652 11.4826 6.81456 11.5646C6.7326 11.6465 6.62775 11.6875 6.5 11.6875C6.37225 11.6875 6.2674 11.6465 6.18544 11.5646C6.10348 11.4826 6.0625 11.3777 6.0625 11.25V6.4375H1.25C1.12225 6.4375 1.0174 6.39652 0.935437 6.31456C0.853479 6.2326 0.8125 6.12775 0.8125 6C0.8125 5.87225 0.853479 5.7674 0.935437 5.68544C1.0174 5.60348 1.12225 5.5625 1.25 5.5625H6.0625Z" fill="currentColor"/>
</symbol><symbol viewBox="0 0 20 20" fill="none" id="icon-search" xmlns="http://www.w3.org/2000/svg">
<path d="M9.5 17C13.6421 17 17 13.6421 17 9.5C17 5.35786 13.6421 2 9.5 2C5.35786 2 2 5.35786 2 9.5C2 13.6421 5.35786 17 9.5 17Z" stroke="currentColor" stroke-width="1.5" stroke-linecap="round" stroke-linejoin="round"/>
<path d="M15.775 17.2415C16.2167 18.5748 17.225 18.7082 18 17.5415C18.7084 16.4748 18.2417 15.5998 16.9584 15.5998C16.0084 15.5915 15.475 16.3332 15.775 17.2415Z" stroke="currentColor" stroke-width="1.5" stroke-linecap="round" stroke-linejoin="round"/>
</symbol><symbol viewBox="0 0 25 24" fill="none" id="icon-services" xmlns="http://www.w3.org/2000/svg">
<mask id="ppath-1-outside-1_557_11000" maskUnits="userSpaceOnUse" x="0.457153" y="-0.244751" width="23" height="24" fill="currentColor">
<rect fill="currentColor" x="0.457153" y="-0.244751" width="23" height="24"/>
<path d="M4.76315 10.3335C4.93265 11.4109 5.0669 12.2651 5.6744 12.2651C5.68265 12.2651 5.69053 12.2651 5.6984 12.2644C6.22565 12.2449 6.38315 11.6359 6.5354 11.0475C6.5879 10.8435 6.6704 10.5262 6.74803 10.3759C6.82565 10.5259 6.90815 10.8435 6.96103 11.0475C7.11328 11.6362 7.27078 12.2449 7.79803 12.2644L7.8224 12.2651C8.42953 12.2651 8.56378 11.4109 8.73365 10.3331C8.8049 9.8775 8.90315 9.25387 9.01115 9.08962C9.3149 8.62537 9.46715 7.66537 9.20953 6.9765C9.03328 6.5055 8.72653 6.33037 8.50003 6.267C8.0429 6.13687 7.56065 6.23362 7.1399 6.537C7.02661 6.62126 6.88916 6.66673 6.74797 6.66666C6.60677 6.66659 6.46937 6.62099 6.35615 6.53662C5.93615 6.23362 5.4524 6.13762 4.99603 6.26662C4.7699 6.33037 4.46315 6.5055 4.2869 6.9765C4.0289 7.66575 4.1819 8.62575 4.48565 9.08962C4.59328 9.25387 4.69153 9.87787 4.76315 10.3335ZM4.98928 7.23937C5.04215 7.09687 5.11303 7.01287 5.19965 6.98812C5.43965 6.92212 5.6804 6.97425 5.91778 7.14525C6.15947 7.32003 6.45014 7.41411 6.7484 7.41411C7.04667 7.41411 7.33733 7.32003 7.57903 7.14525C7.8164 6.97387 8.05903 6.92137 8.2964 6.98887C8.38265 7.01287 8.4539 7.09725 8.50715 7.23937C8.66728 7.668 8.57315 8.38912 8.3834 8.679C8.18765 8.9775 8.09728 9.552 7.99265 10.2165C7.94503 10.5195 7.87565 10.9605 7.79765 11.2601C7.75758 11.1275 7.72069 10.994 7.68703 10.8596C7.53178 10.2596 7.3559 9.58087 6.78328 9.58087H6.7634L6.73828 9.58162C6.15365 9.5685 5.9669 10.251 5.80903 10.8596C5.77978 10.9736 5.7404 11.1259 5.6984 11.2597C5.62078 10.9597 5.55178 10.5199 5.50415 10.2172C5.39915 9.552 5.30915 8.9775 5.11303 8.67862C4.92328 8.38912 4.82878 7.668 4.98928 7.23937ZM17.1858 3.51862H13.9244C13.8546 3.23867 13.6998 2.98723 13.4812 2.79892C13.2626 2.61061 12.991 2.49469 12.7038 2.46712C12.3318 1.44862 11.3688 0.755249 10.2588 0.755249C9.14878 0.755249 8.18615 1.449 7.81415 2.46712C7.52695 2.49469 7.25535 2.61061 7.03676 2.79892C6.81816 2.98723 6.66331 3.23867 6.59353 3.51862H3.33215C2.29828 3.51862 1.45715 4.35975 1.45715 5.39362V21.3697C1.45715 22.4036 2.29828 23.2447 3.33215 23.2447H17.1858C18.2197 23.2447 19.0608 22.4036 19.0608 21.3697V5.39362C19.0608 4.35975 18.2197 3.51862 17.1858 3.51862ZM10.2592 1.50487C10.9469 1.50487 11.5548 1.87987 11.8773 2.45362H8.64103C8.80186 2.16576 9.03664 1.92605 9.3211 1.75926C9.60557 1.59247 9.9294 1.50465 10.2592 1.50487ZM7.29853 3.85312C7.29853 3.495 7.5899 3.20362 7.9484 3.20362H12.5699C12.928 3.20362 13.2194 3.495 13.2194 3.85312V3.93637C13.2194 4.2945 12.928 4.58587 12.5699 4.58587H7.9484C7.77617 4.58568 7.61104 4.51719 7.48922 4.39544C7.3674 4.27369 7.29883 4.10861 7.29853 3.93637V3.85312ZM18.3112 21.3697C18.3112 21.9904 17.8068 22.4947 17.1862 22.4947H3.33215C2.7119 22.4947 2.20715 21.9904 2.20715 21.3697V5.39362C2.20715 4.77337 2.7119 4.26862 3.33215 4.26862H6.59278C6.74278 4.87987 7.29178 5.33587 7.9484 5.33587H12.5699C13.2262 5.33587 13.7752 4.8795 13.9252 4.26862H17.1858C17.8064 4.26862 18.3108 4.77337 18.3108 5.39362L18.3112 21.3697ZM16.1849 7.68112C16.1849 7.78058 16.1454 7.87596 16.0751 7.94629C16.0047 8.01662 15.9094 8.05612 15.8099 8.05612H10.8277C10.7282 8.05612 10.6328 8.01662 10.5625 7.94629C10.4922 7.87596 10.4527 7.78058 10.4527 7.68112C10.4527 7.58167 10.4922 7.48629 10.5625 7.41596C10.6328 7.34563 10.7282 7.30612 10.8277 7.30612H15.8099C15.9094 7.30612 16.0047 7.34563 16.0751 7.41596C16.1454 7.48629 16.1849 7.58167 16.1849 7.68112ZM16.1849 10.8289C16.1849 10.9283 16.1454 11.0237 16.0751 11.094C16.0047 11.1644 15.9094 11.2039 15.8099 11.2039H10.8277C10.7282 11.2039 10.6328 11.1644 10.5625 11.094C10.4922 11.0237 10.4527 10.9283 10.4527 10.8289C10.4527 10.7294 10.4922 10.634 10.5625 10.5637C10.6328 10.4934 10.7282 10.4539 10.8277 10.4539H15.8099C15.9094 10.4539 16.0047 10.4934 16.0751 10.5637C16.1454 10.634 16.1849 10.7294 16.1849 10.8289ZM16.1849 13.9762C16.1849 14.0757 16.1454 14.1711 16.0751 14.2414C16.0047 14.3117 15.9094 14.3512 15.8099 14.3512H4.38365C4.2842 14.3512 4.18881 14.3117 4.11849 14.2414C4.04816 14.1711 4.00865 14.0757 4.00865 13.9762C4.00865 13.8768 4.04816 13.7814 4.11849 13.7111C4.18881 13.6408 4.2842 13.6012 4.38365 13.6012H15.8099C15.9094 13.6012 16.0047 13.6408 16.0751 13.7111C16.1454 13.7814 16.1849 13.8768 16.1849 13.9762ZM16.1849 17.1236C16.1849 17.2231 16.1454 17.3185 16.0751 17.3888C16.0047 17.4591 15.9094 17.4986 15.8099 17.4986H4.38365C4.2842 17.4986 4.18881 17.4591 4.11849 17.3888C4.04816 17.3185 4.00865 17.2231 4.00865 17.1236C4.00865 17.0242 4.04816 16.9288 4.11849 16.8585C4.18881 16.7881 4.2842 16.7486 4.38365 16.7486H15.8099C15.9094 16.7486 16.0047 16.7881 16.0751 16.8585C16.1454 16.9288 16.1849 17.0242 16.1849 17.1236ZM16.1849 20.271C16.1849 20.3705 16.1454 20.4658 16.0751 20.5362C16.0047 20.6065 15.9094 20.646 15.8099 20.646H4.38365C4.2842 20.646 4.18881 20.6065 4.11849 20.5362C4.04816 20.4658 4.00865 20.3705 4.00865 20.271C4.00865 20.1715 4.04816 20.0762 4.11849 20.0058C4.18881 19.9355 4.2842 19.896 4.38365 19.896H15.8099C15.9094 19.896 16.0047 19.9355 16.0751 20.0058C16.1454 20.0762 16.1849 20.1715 16.1849 20.271ZM22.018 4.99725H21.0685C20.4483 4.99725 19.9435 5.50162 19.9435 6.12225V8.30062C19.9435 8.58937 20.056 8.84962 20.2349 9.04912V17.8072C20.2349 17.8222 20.2413 17.8346 20.2432 17.8489C20.2405 17.8789 20.2345 17.9074 20.2394 17.9381L20.5942 20.1559C20.6186 20.3224 20.6865 20.4795 20.7909 20.6116C20.8953 20.7436 21.0325 20.8459 21.1889 20.9081V22.2326C21.1889 22.3321 21.2284 22.4275 21.2987 22.4978C21.3691 22.5681 21.4644 22.6076 21.5639 22.6076C21.6634 22.6076 21.7587 22.5681 21.8291 22.4978C21.8994 22.4275 21.9389 22.3321 21.9389 22.2326V20.9051C22.0939 20.8421 22.2297 20.7396 22.3329 20.6078C22.436 20.4761 22.5029 20.3196 22.5269 20.154L22.8884 17.8661C22.8903 17.856 22.8865 17.847 22.8873 17.8369C22.888 17.8267 22.8933 17.8181 22.8933 17.8072V9.05062C22.8933 9.03562 22.8865 9.02325 22.885 9.00862C23.0507 8.80977 23.1419 8.55943 23.143 8.30062V6.12187C23.143 5.50162 22.6383 4.99687 22.018 4.99687V4.99725ZM21.7855 20.0374C21.7589 20.2106 21.6194 20.2297 21.5605 20.2297C21.5017 20.2297 21.3625 20.211 21.3348 20.0374L21.0378 18.1822H22.0795L21.7859 20.0374H21.7855ZM22.1433 9.42562V17.4322H20.9845V9.42562H22.1433ZM20.6935 6.12187C20.6935 6.02242 20.733 5.92704 20.8034 5.85671C20.8737 5.78638 20.9691 5.74687 21.0685 5.74687H22.018C22.1175 5.74687 22.2129 5.78638 22.2832 5.85671C22.3535 5.92704 22.393 6.02242 22.393 6.12187V8.30062C22.393 8.40008 22.3535 8.49546 22.2832 8.56579C22.2129 8.63612 22.1175 8.67562 22.018 8.67562H21.0685C20.9691 8.67562 20.8737 8.63612 20.8034 8.56579C20.733 8.49546 20.6935 8.40008 20.6935 8.30062V6.12187Z"/>
</mask>
<path d="M4.76315 10.3335C4.93265 11.4109 5.0669 12.2651 5.6744 12.2651C5.68265 12.2651 5.69053 12.2651 5.6984 12.2644C6.22565 12.2449 6.38315 11.6359 6.5354 11.0475C6.5879 10.8435 6.6704 10.5262 6.74803 10.3759C6.82565 10.5259 6.90815 10.8435 6.96103 11.0475C7.11328 11.6362 7.27078 12.2449 7.79803 12.2644L7.8224 12.2651C8.42953 12.2651 8.56378 11.4109 8.73365 10.3331C8.8049 9.8775 8.90315 9.25387 9.01115 9.08962C9.3149 8.62537 9.46715 7.66537 9.20953 6.9765C9.03328 6.5055 8.72653 6.33037 8.50003 6.267C8.0429 6.13687 7.56065 6.23362 7.1399 6.537C7.02661 6.62126 6.88916 6.66673 6.74797 6.66666C6.60677 6.66659 6.46937 6.62099 6.35615 6.53662C5.93615 6.23362 5.4524 6.13762 4.99603 6.26662C4.7699 6.33037 4.46315 6.5055 4.2869 6.9765C4.0289 7.66575 4.1819 8.62575 4.48565 9.08962C4.59328 9.25387 4.69153 9.87787 4.76315 10.3335ZM4.98928 7.23937C5.04215 7.09687 5.11303 7.01287 5.19965 6.98812C5.43965 6.92212 5.6804 6.97425 5.91778 7.14525C6.15947 7.32003 6.45014 7.41411 6.7484 7.41411C7.04667 7.41411 7.33733 7.32003 7.57903 7.14525C7.8164 6.97387 8.05903 6.92137 8.2964 6.98887C8.38265 7.01287 8.4539 7.09725 8.50715 7.23937C8.66728 7.668 8.57315 8.38912 8.3834 8.679C8.18765 8.9775 8.09728 9.552 7.99265 10.2165C7.94503 10.5195 7.87565 10.9605 7.79765 11.2601C7.75758 11.1275 7.72069 10.994 7.68703 10.8596C7.53178 10.2596 7.3559 9.58087 6.78328 9.58087H6.7634L6.73828 9.58162C6.15365 9.5685 5.9669 10.251 5.80903 10.8596C5.77978 10.9736 5.7404 11.1259 5.6984 11.2597C5.62078 10.9597 5.55178 10.5199 5.50415 10.2172C5.39915 9.552 5.30915 8.9775 5.11303 8.67862C4.92328 8.38912 4.82878 7.668 4.98928 7.23937ZM17.1858 3.51862H13.9244C13.8546 3.23867 13.6998 2.98723 13.4812 2.79892C13.2626 2.61061 12.991 2.49469 12.7038 2.46712C12.3318 1.44862 11.3688 0.755249 10.2588 0.755249C9.14878 0.755249 8.18615 1.449 7.81415 2.46712C7.52695 2.49469 7.25535 2.61061 7.03676 2.79892C6.81816 2.98723 6.66331 3.23867 6.59353 3.51862H3.33215C2.29828 3.51862 1.45715 4.35975 1.45715 5.39362V21.3697C1.45715 22.4036 2.29828 23.2447 3.33215 23.2447H17.1858C18.2197 23.2447 19.0608 22.4036 19.0608 21.3697V5.39362C19.0608 4.35975 18.2197 3.51862 17.1858 3.51862ZM10.2592 1.50487C10.9469 1.50487 11.5548 1.87987 11.8773 2.45362H8.64103C8.80186 2.16576 9.03664 1.92605 9.3211 1.75926C9.60557 1.59247 9.9294 1.50465 10.2592 1.50487ZM7.29853 3.85312C7.29853 3.495 7.5899 3.20362 7.9484 3.20362H12.5699C12.928 3.20362 13.2194 3.495 13.2194 3.85312V3.93637C13.2194 4.2945 12.928 4.58587 12.5699 4.58587H7.9484C7.77617 4.58568 7.61104 4.51719 7.48922 4.39544C7.3674 4.27369 7.29883 4.10861 7.29853 3.93637V3.85312ZM18.3112 21.3697C18.3112 21.9904 17.8068 22.4947 17.1862 22.4947H3.33215C2.7119 22.4947 2.20715 21.9904 2.20715 21.3697V5.39362C2.20715 4.77337 2.7119 4.26862 3.33215 4.26862H6.59278C6.74278 4.87987 7.29178 5.33587 7.9484 5.33587H12.5699C13.2262 5.33587 13.7752 4.8795 13.9252 4.26862H17.1858C17.8064 4.26862 18.3108 4.77337 18.3108 5.39362L18.3112 21.3697ZM16.1849 7.68112C16.1849 7.78058 16.1454 7.87596 16.0751 7.94629C16.0047 8.01662 15.9094 8.05612 15.8099 8.05612H10.8277C10.7282 8.05612 10.6328 8.01662 10.5625 7.94629C10.4922 7.87596 10.4527 7.78058 10.4527 7.68112C10.4527 7.58167 10.4922 7.48629 10.5625 7.41596C10.6328 7.34563 10.7282 7.30612 10.8277 7.30612H15.8099C15.9094 7.30612 16.0047 7.34563 16.0751 7.41596C16.1454 7.48629 16.1849 7.58167 16.1849 7.68112ZM16.1849 10.8289C16.1849 10.9283 16.1454 11.0237 16.0751 11.094C16.0047 11.1644 15.9094 11.2039 15.8099 11.2039H10.8277C10.7282 11.2039 10.6328 11.1644 10.5625 11.094C10.4922 11.0237 10.4527 10.9283 10.4527 10.8289C10.4527 10.7294 10.4922 10.634 10.5625 10.5637C10.6328 10.4934 10.7282 10.4539 10.8277 10.4539H15.8099C15.9094 10.4539 16.0047 10.4934 16.0751 10.5637C16.1454 10.634 16.1849 10.7294 16.1849 10.8289ZM16.1849 13.9762C16.1849 14.0757 16.1454 14.1711 16.0751 14.2414C16.0047 14.3117 15.9094 14.3512 15.8099 14.3512H4.38365C4.2842 14.3512 4.18881 14.3117 4.11849 14.2414C4.04816 14.1711 4.00865 14.0757 4.00865 13.9762C4.00865 13.8768 4.04816 13.7814 4.11849 13.7111C4.18881 13.6408 4.2842 13.6012 4.38365 13.6012H15.8099C15.9094 13.6012 16.0047 13.6408 16.0751 13.7111C16.1454 13.7814 16.1849 13.8768 16.1849 13.9762ZM16.1849 17.1236C16.1849 17.2231 16.1454 17.3185 16.0751 17.3888C16.0047 17.4591 15.9094 17.4986 15.8099 17.4986H4.38365C4.2842 17.4986 4.18881 17.4591 4.11849 17.3888C4.04816 17.3185 4.00865 17.2231 4.00865 17.1236C4.00865 17.0242 4.04816 16.9288 4.11849 16.8585C4.18881 16.7881 4.2842 16.7486 4.38365 16.7486H15.8099C15.9094 16.7486 16.0047 16.7881 16.0751 16.8585C16.1454 16.9288 16.1849 17.0242 16.1849 17.1236ZM16.1849 20.271C16.1849 20.3705 16.1454 20.4658 16.0751 20.5362C16.0047 20.6065 15.9094 20.646 15.8099 20.646H4.38365C4.2842 20.646 4.18881 20.6065 4.11849 20.5362C4.04816 20.4658 4.00865 20.3705 4.00865 20.271C4.00865 20.1715 4.04816 20.0762 4.11849 20.0058C4.18881 19.9355 4.2842 19.896 4.38365 19.896H15.8099C15.9094 19.896 16.0047 19.9355 16.0751 20.0058C16.1454 20.0762 16.1849 20.1715 16.1849 20.271ZM22.018 4.99725H21.0685C20.4483 4.99725 19.9435 5.50162 19.9435 6.12225V8.30062C19.9435 8.58937 20.056 8.84962 20.2349 9.04912V17.8072C20.2349 17.8222 20.2413 17.8346 20.2432 17.8489C20.2405 17.8789 20.2345 17.9074 20.2394 17.9381L20.5942 20.1559C20.6186 20.3224 20.6865 20.4795 20.7909 20.6116C20.8953 20.7436 21.0325 20.8459 21.1889 20.9081V22.2326C21.1889 22.3321 21.2284 22.4275 21.2987 22.4978C21.3691 22.5681 21.4644 22.6076 21.5639 22.6076C21.6634 22.6076 21.7587 22.5681 21.8291 22.4978C21.8994 22.4275 21.9389 22.3321 21.9389 22.2326V20.9051C22.0939 20.8421 22.2297 20.7396 22.3329 20.6078C22.436 20.4761 22.5029 20.3196 22.5269 20.154L22.8884 17.8661C22.8903 17.856 22.8865 17.847 22.8873 17.8369C22.888 17.8267 22.8933 17.8181 22.8933 17.8072V9.05062C22.8933 9.03562 22.8865 9.02325 22.885 9.00862C23.0507 8.80977 23.1419 8.55943 23.143 8.30062V6.12187C23.143 5.50162 22.6383 4.99687 22.018 4.99687V4.99725ZM21.7855 20.0374C21.7589 20.2106 21.6194 20.2297 21.5605 20.2297C21.5017 20.2297 21.3625 20.211 21.3348 20.0374L21.0378 18.1822H22.0795L21.7859 20.0374H21.7855ZM22.1433 9.42562V17.4322H20.9845V9.42562H22.1433ZM20.6935 6.12187C20.6935 6.02242 20.733 5.92704 20.8034 5.85671C20.8737 5.78638 20.9691 5.74687 21.0685 5.74687H22.018C22.1175 5.74687 22.2129 5.78638 22.2832 5.85671C22.3535 5.92704 22.393 6.02242 22.393 6.12187V8.30062C22.393 8.40008 22.3535 8.49546 22.2832 8.56579C22.2129 8.63612 22.1175 8.67562 22.018 8.67562H21.0685C20.9691 8.67562 20.8737 8.63612 20.8034 8.56579C20.733 8.49546 20.6935 8.40008 20.6935 8.30062V6.12187Z" fill="currentColor"/>
<path d="M4.76315 10.3335C4.93265 11.4109 5.0669 12.2651 5.6744 12.2651C5.68265 12.2651 5.69053 12.2651 5.6984 12.2644C6.22565 12.2449 6.38315 11.6359 6.5354 11.0475C6.5879 10.8435 6.6704 10.5262 6.74803 10.3759C6.82565 10.5259 6.90815 10.8435 6.96103 11.0475C7.11328 11.6362 7.27078 12.2449 7.79803 12.2644L7.8224 12.2651C8.42953 12.2651 8.56378 11.4109 8.73365 10.3331C8.8049 9.8775 8.90315 9.25387 9.01115 9.08962C9.3149 8.62537 9.46715 7.66537 9.20953 6.9765C9.03328 6.5055 8.72653 6.33037 8.50003 6.267C8.0429 6.13687 7.56065 6.23362 7.1399 6.537C7.02661 6.62126 6.88916 6.66673 6.74797 6.66666C6.60677 6.66659 6.46937 6.62099 6.35615 6.53662C5.93615 6.23362 5.4524 6.13762 4.99603 6.26662C4.7699 6.33037 4.46315 6.5055 4.2869 6.9765C4.0289 7.66575 4.1819 8.62575 4.48565 9.08962C4.59328 9.25387 4.69153 9.87787 4.76315 10.3335ZM4.98928 7.23937C5.04215 7.09687 5.11303 7.01287 5.19965 6.98812C5.43965 6.92212 5.6804 6.97425 5.91778 7.14525C6.15947 7.32003 6.45014 7.41411 6.7484 7.41411C7.04667 7.41411 7.33733 7.32003 7.57903 7.14525C7.8164 6.97387 8.05903 6.92137 8.2964 6.98887C8.38265 7.01287 8.4539 7.09725 8.50715 7.23937C8.66728 7.668 8.57315 8.38912 8.3834 8.679C8.18765 8.9775 8.09728 9.552 7.99265 10.2165C7.94503 10.5195 7.87565 10.9605 7.79765 11.2601C7.75758 11.1275 7.72069 10.994 7.68703 10.8596C7.53178 10.2596 7.3559 9.58087 6.78328 9.58087H6.7634L6.73828 9.58162C6.15365 9.5685 5.9669 10.251 5.80903 10.8596C5.77978 10.9736 5.7404 11.1259 5.6984 11.2597C5.62078 10.9597 5.55178 10.5199 5.50415 10.2172C5.39915 9.552 5.30915 8.9775 5.11303 8.67862C4.92328 8.38912 4.82878 7.668 4.98928 7.23937ZM17.1858 3.51862H13.9244C13.8546 3.23867 13.6998 2.98723 13.4812 2.79892C13.2626 2.61061 12.991 2.49469 12.7038 2.46712C12.3318 1.44862 11.3688 0.755249 10.2588 0.755249C9.14878 0.755249 8.18615 1.449 7.81415 2.46712C7.52695 2.49469 7.25535 2.61061 7.03676 2.79892C6.81816 2.98723 6.66331 3.23867 6.59353 3.51862H3.33215C2.29828 3.51862 1.45715 4.35975 1.45715 5.39362V21.3697C1.45715 22.4036 2.29828 23.2447 3.33215 23.2447H17.1858C18.2197 23.2447 19.0608 22.4036 19.0608 21.3697V5.39362C19.0608 4.35975 18.2197 3.51862 17.1858 3.51862ZM10.2592 1.50487C10.9469 1.50487 11.5548 1.87987 11.8773 2.45362H8.64103C8.80186 2.16576 9.03664 1.92605 9.3211 1.75926C9.60557 1.59247 9.9294 1.50465 10.2592 1.50487ZM7.29853 3.85312C7.29853 3.495 7.5899 3.20362 7.9484 3.20362H12.5699C12.928 3.20362 13.2194 3.495 13.2194 3.85312V3.93637C13.2194 4.2945 12.928 4.58587 12.5699 4.58587H7.9484C7.77617 4.58568 7.61104 4.51719 7.48922 4.39544C7.3674 4.27369 7.29883 4.10861 7.29853 3.93637V3.85312ZM18.3112 21.3697C18.3112 21.9904 17.8068 22.4947 17.1862 22.4947H3.33215C2.7119 22.4947 2.20715 21.9904 2.20715 21.3697V5.39362C2.20715 4.77337 2.7119 4.26862 3.33215 4.26862H6.59278C6.74278 4.87987 7.29178 5.33587 7.9484 5.33587H12.5699C13.2262 5.33587 13.7752 4.8795 13.9252 4.26862H17.1858C17.8064 4.26862 18.3108 4.77337 18.3108 5.39362L18.3112 21.3697ZM16.1849 7.68112C16.1849 7.78058 16.1454 7.87596 16.0751 7.94629C16.0047 8.01662 15.9094 8.05612 15.8099 8.05612H10.8277C10.7282 8.05612 10.6328 8.01662 10.5625 7.94629C10.4922 7.87596 10.4527 7.78058 10.4527 7.68112C10.4527 7.58167 10.4922 7.48629 10.5625 7.41596C10.6328 7.34563 10.7282 7.30612 10.8277 7.30612H15.8099C15.9094 7.30612 16.0047 7.34563 16.0751 7.41596C16.1454 7.48629 16.1849 7.58167 16.1849 7.68112ZM16.1849 10.8289C16.1849 10.9283 16.1454 11.0237 16.0751 11.094C16.0047 11.1644 15.9094 11.2039 15.8099 11.2039H10.8277C10.7282 11.2039 10.6328 11.1644 10.5625 11.094C10.4922 11.0237 10.4527 10.9283 10.4527 10.8289C10.4527 10.7294 10.4922 10.634 10.5625 10.5637C10.6328 10.4934 10.7282 10.4539 10.8277 10.4539H15.8099C15.9094 10.4539 16.0047 10.4934 16.0751 10.5637C16.1454 10.634 16.1849 10.7294 16.1849 10.8289ZM16.1849 13.9762C16.1849 14.0757 16.1454 14.1711 16.0751 14.2414C16.0047 14.3117 15.9094 14.3512 15.8099 14.3512H4.38365C4.2842 14.3512 4.18881 14.3117 4.11849 14.2414C4.04816 14.1711 4.00865 14.0757 4.00865 13.9762C4.00865 13.8768 4.04816 13.7814 4.11849 13.7111C4.18881 13.6408 4.2842 13.6012 4.38365 13.6012H15.8099C15.9094 13.6012 16.0047 13.6408 16.0751 13.7111C16.1454 13.7814 16.1849 13.8768 16.1849 13.9762ZM16.1849 17.1236C16.1849 17.2231 16.1454 17.3185 16.0751 17.3888C16.0047 17.4591 15.9094 17.4986 15.8099 17.4986H4.38365C4.2842 17.4986 4.18881 17.4591 4.11849 17.3888C4.04816 17.3185 4.00865 17.2231 4.00865 17.1236C4.00865 17.0242 4.04816 16.9288 4.11849 16.8585C4.18881 16.7881 4.2842 16.7486 4.38365 16.7486H15.8099C15.9094 16.7486 16.0047 16.7881 16.0751 16.8585C16.1454 16.9288 16.1849 17.0242 16.1849 17.1236ZM16.1849 20.271C16.1849 20.3705 16.1454 20.4658 16.0751 20.5362C16.0047 20.6065 15.9094 20.646 15.8099 20.646H4.38365C4.2842 20.646 4.18881 20.6065 4.11849 20.5362C4.04816 20.4658 4.00865 20.3705 4.00865 20.271C4.00865 20.1715 4.04816 20.0762 4.11849 20.0058C4.18881 19.9355 4.2842 19.896 4.38365 19.896H15.8099C15.9094 19.896 16.0047 19.9355 16.0751 20.0058C16.1454 20.0762 16.1849 20.1715 16.1849 20.271ZM22.018 4.99725H21.0685C20.4483 4.99725 19.9435 5.50162 19.9435 6.12225V8.30062C19.9435 8.58937 20.056 8.84962 20.2349 9.04912V17.8072C20.2349 17.8222 20.2413 17.8346 20.2432 17.8489C20.2405 17.8789 20.2345 17.9074 20.2394 17.9381L20.5942 20.1559C20.6186 20.3224 20.6865 20.4795 20.7909 20.6116C20.8953 20.7436 21.0325 20.8459 21.1889 20.9081V22.2326C21.1889 22.3321 21.2284 22.4275 21.2987 22.4978C21.3691 22.5681 21.4644 22.6076 21.5639 22.6076C21.6634 22.6076 21.7587 22.5681 21.8291 22.4978C21.8994 22.4275 21.9389 22.3321 21.9389 22.2326V20.9051C22.0939 20.8421 22.2297 20.7396 22.3329 20.6078C22.436 20.4761 22.5029 20.3196 22.5269 20.154L22.8884 17.8661C22.8903 17.856 22.8865 17.847 22.8873 17.8369C22.888 17.8267 22.8933 17.8181 22.8933 17.8072V9.05062C22.8933 9.03562 22.8865 9.02325 22.885 9.00862C23.0507 8.80977 23.1419 8.55943 23.143 8.30062V6.12187C23.143 5.50162 22.6383 4.99687 22.018 4.99687V4.99725ZM21.7855 20.0374C21.7589 20.2106 21.6194 20.2297 21.5605 20.2297C21.5017 20.2297 21.3625 20.211 21.3348 20.0374L21.0378 18.1822H22.0795L21.7859 20.0374H21.7855ZM22.1433 9.42562V17.4322H20.9845V9.42562H22.1433ZM20.6935 6.12187C20.6935 6.02242 20.733 5.92704 20.8034 5.85671C20.8737 5.78638 20.9691 5.74687 21.0685 5.74687H22.018C22.1175 5.74687 22.2129 5.78638 22.2832 5.85671C22.3535 5.92704 22.393 6.02242 22.393 6.12187V8.30062C22.393 8.40008 22.3535 8.49546 22.2832 8.56579C22.2129 8.63612 22.1175 8.67562 22.018 8.67562H21.0685C20.9691 8.67562 20.8737 8.63612 20.8034 8.56579C20.733 8.49546 20.6935 8.40008 20.6935 8.30062V6.12187Z" stroke="currentColor" stroke-width="0.2" mask="url(#ppath-1-outside-1_557_11000)"/>
</symbol><symbol viewBox="0 0 20 20" fill="none" id="icon-star" xmlns="http://www.w3.org/2000/svg">
<path d="M9.07668 1.21993C9.41827 0.398635 10.5817 0.398636 10.9233 1.21993L12.9395 6.06735C13.0835 6.41358 13.4091 6.65015 13.7829 6.68012L19.0161 7.09966C19.9027 7.17074 20.2623 8.27725 19.5867 8.85592L15.5996 12.2713C15.3148 12.5153 15.1904 12.8981 15.2774 13.2628L16.4956 18.3695C16.702 19.2348 15.7607 19.9186 15.0016 19.455L10.5213 16.7184C10.2012 16.5229 9.79876 16.5229 9.47875 16.7184L4.9984 19.455C4.2393 19.9186 3.29805 19.2348 3.50444 18.3695L4.72257 13.2628C4.80958 12.8981 4.68521 12.5153 4.40042 12.2713L0.413277 8.85592C-0.26226 8.27725 0.0972674 7.17074 0.983922 7.09966L6.21712 6.68012C6.59091 6.65015 6.91652 6.41358 7.06052 6.06735L9.07668 1.21993Z" fill="currentColor"/>
</symbol><symbol viewBox="0 0 18 18" fill="none" id="icon-tel" xmlns="http://www.w3.org/2000/svg">
<path d="M3.75028 7.39534C5.18758 10.5258 7.74508 13.0146 10.9247 14.3639L11.4344 14.591C12.6005 15.1105 13.9714 14.7158 14.6826 13.6557L15.3487 12.6629C15.5652 12.3401 15.4993 11.9054 15.1968 11.6613L12.9379 9.83898C12.6061 9.57132 12.1182 9.63366 11.8644 9.97616L11.1656 10.9191C9.3725 10.0346 7.91671 8.57881 7.0322 6.7857L7.97514 6.08691C8.31764 5.83309 8.37998 5.34521 8.11232 5.01342L6.28991 2.75446C6.0459 2.452 5.61128 2.38603 5.2885 2.60245L4.28887 3.27273C3.22211 3.98801 2.82958 5.37014 3.36113 6.53936L3.74969 7.39407L3.75028 7.39534Z" fill="currentColor"/>
</symbol><symbol viewBox="0 0 40 40" fill="none" id="icon-triangle" xmlns="http://www.w3.org/2000/svg">
<path d="M29.1513 15.9999L9.33464 27.9499C8.16797 28.6499 6.66797 27.8166 6.66797 26.4499V13.1166C6.66797 7.2999 12.9513 3.66657 18.0013 6.56657L25.6513 10.9666L29.1346 12.9666C30.2846 13.6499 30.3013 15.3166 29.1513 15.9999Z" fill="currentColor"/>
<path d="M30.1481 25.7667L23.3981 29.6667L16.6647 33.5501C14.2481 34.9334 11.5147 34.6501 9.53139 33.2501C8.56472 32.5834 8.68139 31.1001 9.69806 30.5001L30.8814 17.8001C31.8814 17.2001 33.1981 17.7667 33.3814 18.9167C33.7981 21.5001 32.7314 24.2834 30.1481 25.7667Z" fill="currentColor"/>
</symbol></svg>