<svg width="200" height="60" viewBox="0 0 200 60" fill="none" xmlns="http://www.w3.org/2000/svg">
<path d="M50.778 29.6139C50.778 26.5869 50.1876 23.6988 49.1548 21.0186C48.8798 29.8352 39.6366 36.6636 34.2094 41.1825H47.7949C49.6949 37.7309 50.778 33.7965 50.778 29.6139ZM40.9565 10.199C36.6564 6.95077 31.2633 5 25.3878 5C11.3666 5 0 16.0199 0 29.6139C0 43.208 11.3666 54.2278 25.3878 54.2278C31.8109 54.2278 37.658 51.9007 42.1269 48.0885H23.745L23.6907 42.8536C34.7657 33.5199 41.5556 27.2073 41.5556 21.1098C41.5556 18.8436 40.6648 15.984 36.6593 15.984C33.4873 15.984 30.4257 17.7659 30.9808 25.2101H24.5265C22.9108 16.579 27.7534 9.7237 36.9926 9.7237C38.4217 9.7237 39.7486 9.89108 40.9565 10.199Z" fill="#AFCA0B"/>
<path d="M74.3267 22.0129H80.3321C80.5366 17.5837 78.9977 10.5669 69.0913 10.5669C61.8029 10.5669 56.5132 14.7973 56.5132 23.6049C56.5132 24.7992 56.5652 30.9699 56.5652 34.8027C56.5652 44.3562 63.3938 46.4474 69.1421 46.4474C72.5821 46.4474 77.5593 45.7 79.8705 43.262V28.0341H68.5783V33.559H73.6086V40.2752C69.8093 41.5189 62.8802 42.0183 62.8802 33.559V23.6049C62.8802 17.6839 65.7033 15.6419 68.8325 15.6419C72.0686 15.6419 74.3267 17.2354 74.3267 22.0129ZM118.995 36.7938C119.254 23.1579 103.137 27.6858 103.29 20.0711C103.341 17.3849 105.138 15.6419 108.064 15.6419C111.193 15.6419 113.042 17.4342 112.989 22.113H118.893C119.048 17.8812 118.023 10.6656 108.271 10.6656C102.213 10.6656 97.2329 13.5537 97.1306 19.9724C96.873 33.0597 113.093 28.7815 112.836 36.6921C112.733 39.9269 110.322 41.3695 107.6 41.3695C104.419 41.3695 101.852 39.5787 102.365 34.2047H96.4103C95.7442 41.3202 98.9786 46.3981 107.55 46.3981C114.787 46.3981 118.893 42.5145 118.995 36.7938ZM91.8808 45.9482H85.8234V11.1141H91.8808V45.9482ZM91.8808 45.9482H85.8234V11.1141H91.8808V45.9482Z" fill="#3C3C3B"/>
</svg>
