<svg width="200" height="60" viewBox="0 0 200 60" fill="none" xmlns="http://www.w3.org/2000/svg">
<path d="M61.5916 31.7227C61.5916 38.4652 56.3336 43.4336 49.881 43.4336C43.4279 43.4336 38.1699 38.4652 38.1699 31.7227C38.1699 24.9328 43.4279 20.0119 49.881 20.0119C56.3336 20.0119 61.5916 24.9328 61.5916 31.7227ZM56.4654 31.7227C56.4654 27.5093 53.4178 24.6265 49.881 24.6265C46.3443 24.6265 43.2967 27.5093 43.2967 31.7227C43.2967 35.8938 46.3443 38.8189 49.881 38.8189C53.4178 38.8189 56.4654 35.8885 56.4654 31.7227Z" fill="#EA4335"/>
<path d="M87.6158 31.7227C87.6158 38.4652 82.1631 43.4336 75.4715 43.4336C68.7794 43.4336 63.3267 38.4652 63.3267 31.7227C63.3267 24.938 68.7794 20.0119 75.4715 20.0119C82.1631 20.0119 87.6158 24.9328 87.6158 31.7227ZM82.2998 31.7227C82.2998 27.5093 79.1393 24.6265 75.4715 24.6265C71.8032 24.6265 68.6433 27.5093 68.6433 31.7227C68.6433 35.8938 71.8032 38.8189 75.4715 38.8189C79.1393 38.8189 82.2998 35.8885 82.2998 31.7227Z" fill="#FBBC05"/>
<path d="M111.905 20.7177V41.6918C111.905 50.3195 106.781 53.8432 100.723 53.8432C95.0207 53.8432 91.5886 50.0562 90.2944 46.959L94.7928 45.0997C95.5935 47.0012 97.5565 49.245 100.718 49.245C104.595 49.245 106.998 46.8695 106.998 42.3976V40.7173H106.818C105.661 42.1342 103.434 43.372 100.623 43.372C94.7398 43.372 89.3506 38.2839 89.3506 31.7367C89.3506 25.1422 94.7398 20.0119 100.623 20.0119C103.428 20.0119 105.656 21.2497 106.818 22.6244H106.998V20.7229H111.905V20.7177ZM107.364 31.7367C107.364 27.623 104.601 24.6154 101.084 24.6154C97.5194 24.6154 94.5327 27.623 94.5327 31.7367C94.5327 35.8083 97.5194 38.7737 101.084 38.7737C104.601 38.7737 107.364 35.8083 107.364 31.7367Z" fill="#4285F4"/>
<path d="M119.712 8.73513V43.4339H114.507V8.73513H119.712Z" fill="#34A853"/>
<path d="M139.77 35.5824L143.777 38.2434C142.484 40.1495 139.366 43.4336 133.981 43.4336C127.301 43.4336 122.313 38.2909 122.313 31.7227C122.313 24.7585 127.343 20.0119 133.403 20.0119C139.505 20.0119 142.489 24.8483 143.464 27.4618L144 28.7924L128.282 35.2761C129.485 37.6257 131.357 38.8242 133.981 38.8242C136.61 38.8242 138.434 37.5359 139.77 35.5824ZM127.433 31.369L137.941 27.0236C137.363 25.5611 135.624 24.542 133.578 24.542C130.954 24.542 127.301 26.8494 127.433 31.369Z" fill="#EA4335"/>
<path d="M18.5119 28.655V23.6776H35.3172C35.4815 24.5451 35.5663 25.5713 35.5663 26.682C35.5663 30.4164 34.5434 35.0341 31.247 38.3241C28.0407 41.6565 23.944 43.4337 18.5172 43.4337C8.45832 43.4337 0 35.2562 0 25.2168C0 15.1775 8.45832 7 18.5172 7C24.0818 7 28.046 9.17923 31.0244 12.0197L27.5054 15.5319C25.3697 13.5325 22.476 11.9773 18.5119 11.9773C11.1665 11.9773 5.42158 17.8857 5.42158 25.2168C5.42158 32.5481 11.1665 38.4563 18.5119 38.4563C23.2762 38.4563 25.9897 36.5469 27.728 34.8119C29.1377 33.405 30.0652 31.395 30.4309 28.6497L18.5119 28.655Z" fill="#4285F4"/>
</svg>
