<svg width="36" height="36" viewBox="0 0 36 36" fill="none" xmlns="http://www.w3.org/2000/svg">
<path d="M31.5 15C31.5 25.5 18 34.5 18 34.5C18 34.5 4.5 25.5 4.5 15C4.5 11.4196 5.92232 7.9858 8.45406 5.45406C10.9858 2.92232 14.4196 1.5 18 1.5C21.5804 1.5 25.0142 2.92232 27.5459 5.45406C30.0777 7.9858 31.5 11.4196 31.5 15Z" fill="#E7975E" stroke="#E7975E" stroke-width="1.5" stroke-linecap="round" stroke-linejoin="round"/>
<path fill-rule="evenodd" clip-rule="evenodd" d="M22.7582 10.868C22.3202 10.3773 21.7447 10.1741 21.2143 10.174C20.5896 10.174 20.1459 10.3509 19.6768 10.5383L19.6755 10.5388C19.194 10.7315 18.6963 10.9301 18.0001 10.9302C17.3039 10.9302 16.8053 10.7311 16.3242 10.5389C15.8552 10.3514 15.4113 10.174 14.786 10.174C14.2557 10.174 13.6798 10.377 13.2418 10.8675C12.8171 11.343 12.5215 12.0889 12.5215 13.1818C12.5215 14.3182 12.9712 15.1724 13.368 15.9262L13.369 15.9281C13.7468 16.6453 14.1039 17.3235 14.0115 18.1094C13.7093 20.6769 13.9908 22.9969 14.7126 23.8828L14.7132 23.8836C14.9175 24.1335 15.1512 24.2609 15.4077 24.2609C16.0794 24.2604 16.1858 23.0298 16.2978 21.7266L16.2981 21.7233C16.4385 20.1013 16.5976 18.264 18.0001 18.264C19.4031 18.264 19.5619 20.1024 19.702 21.7249L19.7021 21.727C19.8145 23.0303 19.9206 24.2609 20.5922 24.2609C20.8489 24.2609 21.0826 24.134 21.287 23.8832C22.0084 22.9977 22.2906 20.677 21.9884 18.1095C21.896 17.3236 22.2526 16.646 22.6304 15.9283L22.6308 15.9275L22.6314 15.9262C23.0283 15.1724 23.478 14.3182 23.478 13.1818C23.478 12.0892 23.1827 11.3435 22.7582 10.868ZM14.7252 21.521C14.8429 22.4901 15.0699 23.0896 15.2784 23.3455C15.2874 23.3565 15.2959 23.3663 15.3039 23.375C15.315 23.3417 15.3265 23.3033 15.3382 23.2591C15.4391 22.8776 15.4891 22.33 15.5475 21.6507L15.5529 21.5881C15.6192 20.8209 15.7018 19.8646 15.9707 19.0985C16.1132 18.6925 16.3282 18.2758 16.6722 17.9584C17.032 17.6265 17.4818 17.4505 18.0001 17.4505C18.5184 17.4505 18.9683 17.6265 19.328 17.9584C19.6721 18.2759 19.8871 18.6925 20.0296 19.0985C20.2985 19.8651 20.381 20.822 20.4471 21.5895L20.4524 21.6511C20.511 22.3305 20.561 22.8775 20.662 23.2591C20.6736 23.3032 20.6852 23.3416 20.6963 23.3748C20.7042 23.3662 20.7126 23.3564 20.7215 23.3455C20.9297 23.0899 21.1568 22.4904 21.2745 21.5212C21.3876 20.5898 21.3852 19.4388 21.2409 18.212C21.1163 17.153 21.5865 16.2626 21.9347 15.6031C21.9485 15.5769 21.9622 15.551 21.9756 15.5255C22.3782 14.7609 22.7244 14.0787 22.7244 13.1818C22.7244 12.2368 22.4688 11.7082 22.2023 11.4179C21.9288 11.1199 21.5661 10.9875 21.2139 10.9875C20.7361 10.9875 20.404 11.1152 19.937 11.3018L19.9209 11.3082C19.4369 11.5019 18.8328 11.7437 17.9997 11.7437C17.1682 11.7437 16.5642 11.5023 16.0816 11.3094L16.0623 11.3017C15.5957 11.1151 15.264 10.9875 14.7856 10.9875C14.4334 10.9875 14.0706 11.1199 13.7971 11.4179C13.5307 11.7082 13.2751 12.2368 13.2751 13.1818C13.2751 14.0786 13.6213 14.7608 14.0238 15.5254C14.0372 15.5508 14.0508 15.5766 14.0647 15.6028C14.4129 16.2619 14.8836 17.1529 14.759 18.212C14.6147 19.4388 14.6122 20.5897 14.7252 21.521Z" fill="white"/>
<path fill-rule="evenodd" clip-rule="evenodd" d="M23.478 13.1818C23.478 12.0892 23.1827 11.3435 22.7582 10.868C22.3202 10.3773 21.7447 10.1741 21.2143 10.174C20.5896 10.174 20.1459 10.3509 19.6768 10.5383L19.6755 10.5388C19.194 10.7315 18.6963 10.9301 18.0001 10.9302C17.3039 10.9302 16.8053 10.7311 16.3242 10.5389C15.8552 10.3514 15.4113 10.174 14.786 10.174C14.2557 10.174 13.6798 10.377 13.2418 10.8675C12.8171 11.343 12.5215 12.0889 12.5215 13.1818C12.5215 14.3182 12.9712 15.1724 13.368 15.9262L13.369 15.9281C13.7468 16.6453 14.1039 17.3235 14.0115 18.1094C13.7093 20.6769 13.9908 22.9969 14.7126 23.8828L14.7132 23.8836C14.9175 24.1335 15.1512 24.2609 15.4077 24.2609C16.0794 24.2604 16.1858 23.0298 16.2978 21.7266L16.2981 21.7233C16.4385 20.1013 16.5976 18.264 18.0001 18.264C19.4031 18.264 19.5619 20.1024 19.702 21.7249L19.7021 21.727C19.8145 23.0303 19.9206 24.2609 20.5922 24.2609C20.8489 24.2609 21.0826 24.134 21.287 23.8832C22.0084 22.9977 22.2906 20.677 21.9884 18.1095C21.896 17.3236 22.2526 16.646 22.6304 15.9283L22.6308 15.9275L22.6314 15.9262C23.0283 15.1724 23.478 14.3182 23.478 13.1818ZM14.7252 21.521C14.8429 22.4901 15.0699 23.0896 15.2784 23.3455C15.2874 23.3565 15.2959 23.3663 15.3039 23.375C15.315 23.3417 15.3265 23.3033 15.3382 23.2591C15.4391 22.8776 15.4891 22.33 15.5475 21.6507L15.5529 21.5881C15.6192 20.8209 15.7018 19.8646 15.9707 19.0985C16.1132 18.6925 16.3282 18.2758 16.6722 17.9584C17.032 17.6265 17.4818 17.4505 18.0001 17.4505C18.5184 17.4505 18.9683 17.6265 19.328 17.9584C19.6721 18.2759 19.8871 18.6925 20.0296 19.0985C20.2985 19.8651 20.381 20.822 20.4471 21.5895L20.4524 21.6511C20.511 22.3305 20.561 22.8775 20.662 23.2591C20.6736 23.3032 20.6852 23.3416 20.6963 23.3748C20.7042 23.3662 20.7126 23.3564 20.7215 23.3455C20.9297 23.0899 21.1568 22.4904 21.2745 21.5212C21.3876 20.5898 21.3852 19.4388 21.2409 18.212C21.1163 17.153 21.5865 16.2626 21.9347 15.6031L21.9756 15.5255C22.3782 14.7609 22.7244 14.0787 22.7244 13.1818C22.7244 12.2368 22.4688 11.7082 22.2023 11.4179C21.9288 11.1199 21.5661 10.9875 21.2139 10.9875C20.7361 10.9875 20.404 11.1152 19.937 11.3018L19.9209 11.3082C19.4369 11.5019 18.8328 11.7437 17.9997 11.7437C17.1682 11.7437 16.5642 11.5023 16.0816 11.3094L16.0623 11.3017C15.5957 11.1151 15.264 10.9875 14.7856 10.9875C14.4334 10.9875 14.0706 11.1199 13.7971 11.4179C13.5307 11.7082 13.2751 12.2368 13.2751 13.1818C13.2751 14.0786 13.6213 14.7608 14.0238 15.5254L14.0647 15.6028C14.4129 16.2619 14.8836 17.1529 14.759 18.212C14.6147 19.4388 14.6122 20.5897 14.7252 21.521Z" fill="white"/>
<path d="M15.2784 23.3455C15.0699 23.0896 14.8429 22.4901 14.7252 21.521C14.6122 20.5897 14.6147 19.4388 14.759 18.212C14.8836 17.1529 14.4129 16.2619 14.0647 15.6028L14.0238 15.5254C13.6213 14.7608 13.2751 14.0786 13.2751 13.1818C13.2751 12.2368 13.5307 11.7082 13.7971 11.4179C14.0706 11.1199 14.4334 10.9875 14.7856 10.9875C15.264 10.9875 15.5957 11.1151 16.0623 11.3017L16.0816 11.3094C16.5642 11.5023 17.1682 11.7437 17.9997 11.7437C18.8328 11.7437 19.4369 11.5019 19.9209 11.3082L19.937 11.3018C20.404 11.1152 20.7361 10.9875 21.2139 10.9875C21.5661 10.9875 21.9288 11.1199 22.2023 11.4179C22.4688 11.7082 22.7244 12.2368 22.7244 13.1818C22.7244 14.0787 22.3782 14.7609 21.9756 15.5255L21.9347 15.6031C21.5865 16.2626 21.1163 17.153 21.2409 18.212C21.3852 19.4388 21.3876 20.5898 21.2745 21.5212C21.1568 22.4904 20.9297 23.0899 20.7215 23.3455C20.7126 23.3564 20.7042 23.3662 20.6963 23.3748C20.6852 23.3416 20.6736 23.3032 20.662 23.2591C20.561 22.8775 20.511 22.3305 20.4524 21.6511L20.4471 21.5895C20.381 20.822 20.2985 19.8651 20.0296 19.0985C19.8871 18.6925 19.6721 18.2759 19.328 17.9584C18.9683 17.6265 18.5184 17.4505 18.0001 17.4505C17.4818 17.4505 17.032 17.6265 16.6722 17.9584C16.3282 18.2758 16.1132 18.6925 15.9707 19.0985C15.7018 19.8646 15.6192 20.8209 15.5529 21.5881L15.5475 21.6507C15.4891 22.33 15.4391 22.8776 15.3382 23.2591C15.3265 23.3033 15.315 23.3417 15.3039 23.375C15.2959 23.3663 15.2874 23.3565 15.2784 23.3455Z" fill="white"/>
</svg>
