<svg width="2276" height="561" viewBox="0 0 2276 561" fill="none" xmlns="http://www.w3.org/2000/svg">
<path opacity="0.03" d="M19.3511 450.002C19.3511 450.002 228.765 374.047 440.872 486.649C589.127 565.724 785.322 305.176 1139.1 126.021C1419.98 -16.2049 1680.58 384.652 1910.41 456.223" stroke="white" stroke-miterlimit="10"/>
<path opacity="0.06" d="M30.0619 438.425C30.0619 438.425 240.745 366.26 451.006 480.481C598.631 561.392 793.009 317.463 1147.97 133.164C1423.97 -10.1247 1681.49 370.745 1920.74 443.05" stroke="white" stroke-miterlimit="10"/>
<path opacity="0.09" d="M40.7449 426.883C40.7449 426.883 253.02 357.935 461.107 474.346C608.321 556.712 800.659 329.843 1156.81 140.321C1427.95 -3.95225 1682.39 356.841 1931.06 429.911" stroke="white" stroke-miterlimit="10"/>
<path opacity="0.12" d="M51.4545 415.321C51.4545 415.321 265.107 350.003 471.239 468.192C617.904 552.282 808.331 342.262 1165.66 147.472C1431.98 2.30834 1683.28 342.952 1941.38 416.771" stroke="white" stroke-miterlimit="10"/>
<path opacity="0.15" d="M62.0899 403.836C62.0899 403.836 277.105 342.146 481.295 462.128C627.396 547.959 815.954 354.831 1174.46 154.694C1435.97 8.71902 1684.13 329.139 1951.65 403.691" stroke="white" stroke-miterlimit="10"/>
<path opacity="0.18" d="M72.8273 392.266C72.8273 392.266 289.189 334.235 491.453 455.963C636.996 543.55 823.675 367.375 1183.36 161.829C1440.11 15.1194 1685.09 315.227 1962.03 390.543" stroke="white" stroke-miterlimit="10"/>
<path opacity="0.21" d="M83.5192 380.745C83.5192 380.745 301.243 326.373 501.57 449.848C646.529 539.191 831.372 380.027 1192.21 168.995C1444.21 21.6292 1686 301.367 1972.36 377.431" stroke="white" stroke-miterlimit="10"/>
<path opacity="0.24" d="M94.13 369.217C94.13 369.217 313.202 318.534 511.603 443.725C656 534.84 839.007 392.731 1200.99 176.167C1448.29 28.2219 1686.83 287.517 1982.63 364.314" stroke="white" stroke-miterlimit="10"/>
<path opacity="0.26" d="M104.833 357.656C104.833 357.656 325.253 310.662 521.729 437.585C665.555 530.488 846.749 405.509 1209.86 183.303C1452.47 34.8416 1687.78 273.621 1992.98 351.182" stroke="white" stroke-miterlimit="10"/>
<path opacity="0.29" d="M115.524 346.143C115.524 346.143 337.276 302.853 531.849 431.476C675.094 526.169 854.502 418.379 1218.7 190.485C1456.69 41.5838 1688.69 259.79 2003.34 338.101" stroke="white" stroke-miterlimit="10"/>
<path opacity="0.32" d="M126.172 334.601C126.172 334.601 349.26 295.031 541.925 425.341C684.595 521.824 862.265 431.298 1227.53 197.637C1460.9 48.3431 1689.58 245.919 2013.65 324.995" stroke="white" stroke-miterlimit="10"/>
<path opacity="0.35" d="M136.814 323.107C136.814 323.107 361.22 287.272 551.996 419.255C694.082 517.544 870.047 444.342 1236.36 204.821C1465.14 55.2273 1690.49 232.099 2023.98 311.911" stroke="white" stroke-miterlimit="10"/>
<path opacity="0.38" d="M147.474 311.567C147.474 311.567 373.2 279.483 562.094 413.139C703.588 513.252 877.879 457.435 1245.2 211.991C1469.47 62.142 1691.42 218.269 2034.34 298.833" stroke="white" stroke-miterlimit="10"/>
<path opacity="0.41" d="M158.143 300.049C158.143 300.049 385.175 271.717 572.198 407.033C713.106 508.971 885.795 470.614 1254.07 219.152C1473.82 69.1104 1692.36 204.418 2044.73 285.751" stroke="white" stroke-miterlimit="10"/>
<path opacity="0.44" d="M168.768 288.511C168.768 288.511 397.109 263.961 582.268 400.908C722.571 504.689 893.71 483.853 1262.9 226.311C1478.19 76.1208 1693.29 190.583 2055.08 272.656" stroke="white" stroke-miterlimit="10"/>
<path opacity="0.47" d="M179.416 276.974C179.416 276.974 409.051 256.192 592.359 394.789C732.065 500.43 901.699 497.193 1271.75 233.459C1482.61 83.1815 1694.23 176.723 2065.46 259.571" stroke="white" stroke-miterlimit="10"/>
<path opacity="0.5" d="M190.016 265.411C190.016 265.411 420.95 248.43 602.41 388.663C741.52 496.167 909.719 510.607 1280.58 240.617C1487.04 90.2984 1695.15 162.891 2075.82 246.501" stroke="white" stroke-miterlimit="10"/>
<path opacity="0.53" d="M200.644 253.877C200.644 253.877 432.864 240.697 612.493 382.555C750.995 491.925 917.84 524.136 1289.44 247.779C1491.56 97.4773 1696.12 149.06 2086.23 233.42" stroke="white" stroke-miterlimit="10"/>
<path opacity="0.56" d="M211.279 242.29C211.279 242.29 444.787 232.928 622.592 376.398C760.468 487.652 926.045 537.698 1298.33 254.909C1496.13 104.655 1697.11 135.181 2096.68 220.326" stroke="white" stroke-miterlimit="10"/>
<path opacity="0.59" d="M221.876 230.691C221.876 230.691 456.655 225.165 632.656 370.235C769.928 483.392 934.288 551.355 1307.2 262.021C1500.71 111.874 1698.08 121.298 2107.11 207.216" stroke="white" stroke-miterlimit="10"/>
<path opacity="0.62" d="M232.43 219.12C232.43 219.12 468.475 217.433 642.683 364.121C779.323 479.169 942.585 565.161 1316.02 269.202C1505.29 119.19 1699.02 107.478 2117.51 194.158" stroke="white" stroke-miterlimit="10"/>
<path opacity="0.65" d="M243.033 207.48C243.033 207.48 480.344 209.647 652.768 357.927C788.788 474.9 951.039 578.987 1324.91 276.29C1510 126.458 1700.02 93.5452 2127.98 181.023" stroke="white" stroke-miterlimit="10"/>
<path opacity="0.68" d="M253.531 195.883C253.531 195.883 492.107 201.908 662.748 351.782C798.121 470.683 959.472 592.962 1333.72 283.447C1514.63 133.825 1700.94 79.6905 2138.39 167.953" stroke="white" stroke-miterlimit="10"/>
<path opacity="0.71" d="M264.105 184.239C264.105 184.239 503.923 194.14 672.814 345.593C807.539 466.424 968.095 606.995 1342.61 290.548C1519.4 141.165 1701.95 65.7577 2148.87 154.809" stroke="white" stroke-miterlimit="10"/>
<path opacity="0.74" d="M274.677 172.59C274.677 172.59 515.735 186.368 682.876 339.419C816.962 462.199 976.833 621.16 1351.51 297.685C1524.21 148.57 1702.95 51.869 2159.37 141.711" stroke="white" stroke-miterlimit="10"/>
<path opacity="0.76" d="M285.183 160.931C285.183 160.931 527.467 178.604 692.875 333.223C826.301 457.951 985.626 635.384 1360.34 304.788C1529.01 155.986 1703.89 37.9383 2169.8 128.574" stroke="white" stroke-miterlimit="10"/>
<path opacity="0.79" d="M295.734 149.278C295.734 149.278 539.251 170.847 702.926 327.035C835.677 453.73 994.569 649.75 1369.21 311.919C1533.87 163.444 1704.89 24.0122 2180.29 115.459" stroke="white" stroke-miterlimit="10"/>
<path opacity="0.82" d="M306.233 137.623C306.233 137.623 550.964 163.09 712.922 320.847C844.999 449.51 1003.61 664.214 1378.05 319.055C1538.76 170.921 1705.82 10.0985 2190.72 102.326" stroke="white" stroke-miterlimit="10"/>
<path opacity="0.85" d="M316.79 125.933C316.79 125.933 562.719 155.315 722.975 314.642C854.385 445.273 1012.84 678.759 1386.96 326.161C1543.73 178.399 1706.83 -3.85169 2201.24 89.1728" stroke="white" stroke-miterlimit="10"/>
<path opacity="0.88" d="M327.314 114.271C327.314 114.271 574.443 147.57 733.003 308.452C863.703 441.069 1022.19 693.448 1395.83 333.302C1548.72 185.926 1707.8 -17.7913 2211.71 76.0478" stroke="white" stroke-miterlimit="10"/>
<path opacity="0.91" d="M337.813 102.602C337.813 102.602 586.128 139.835 743 302.255C872.997 436.858 1031.64 708.23 1404.68 340.424C1553.73 193.465 1708.75 -31.7411 2222.17 62.8808" stroke="white" stroke-miterlimit="10"/>
<path opacity="0.94" d="M348.327 90.9235C348.327 90.9235 597.518 132.363 753.016 296.05C882.062 432.864 1041.29 723.115 1413.54 347.557C1558.79 201.013 1709.7 -45.7029 2232.64 49.7348" stroke="white" stroke-miterlimit="10"/>
<path opacity="0.97" d="M358.903 79.241C358.903 79.241 609.406 124.489 763.096 289.859C891.529 428.563 1051.16 738.127 1422.45 354.691C1563.93 208.577 1710.71 -59.6553 2243.14 36.5828" stroke="white" stroke-miterlimit="10"/>
<path d="M369.439 67.5474C369.439 67.5474 621.255 116.588 773.131 283.641C900.97 424.22 1061.16 753.225 1431.35 361.818C1569.1 216.15 1711.69 -73.6212 2253.65 23.4019" stroke="white" stroke-miterlimit="10"/>
</svg>
