<svg width="2222" height="575" viewBox="0 0 2222 575" fill="none" xmlns="http://www.w3.org/2000/svg">
<path d="M1 507.583C1 507.583 208.499 425.487 422.007 531.042C571.247 605.191 762.311 339.714 1111.96 150.405C1389.56 0.117752 1656.51 391.173 1886.96 455.329M11.4407 495.728C11.4407 495.728 220.28 417.4 431.987 524.587C580.639 600.556 770.188 351.784 1120.94 157.4C1393.66 6.271 1657.21 377.382 1897.08 441.958M21.8812 483.897C21.8812 483.897 232.373 408.758 441.961 518.152C590.237 595.553 778.057 363.921 1129.91 164.391C1397.78 12.4995 1657.91 363.587 1907.21 428.612M32.3379 472.062C32.3379 472.062 244.276 400.524 451.956 511.706C599.723 590.811 785.938 376.092 1138.89 171.376C1401.94 18.8159 1658.61 349.824 1917.33 415.282M42.7771 460.256C42.7771 460.256 256.146 392.318 461.932 505.3C609.174 586.123 793.829 388.347 1147.87 178.373C1406.12 25.2223 1659.31 336.092 1927.46 401.968M53.2158 448.447C53.2158 448.447 268 384.137 471.906 498.87C618.631 581.424 801.716 400.636 1156.84 185.347C1410.35 31.6826 1660.02 322.343 1937.59 388.666M63.6717 436.667C63.6717 436.667 279.887 375.979 481.902 492.464C628.082 576.748 809.642 412.991 1165.84 192.315C1414.6 38.2135 1660.73 308.625 1947.73 375.379M74.11 424.886C74.11 424.886 291.743 367.849 491.876 486.051C637.534 572.081 817.57 425.383 1174.82 199.276C1418.88 44.8127 1661.44 294.922 1957.87 362.092M84.5484 413.119C84.5484 413.119 303.598 359.728 501.851 479.666C646.977 567.456 825.512 437.875 1183.79 206.231C1423.18 51.4632 1662.15 281.217 1968 348.837M95.0021 401.383C95.0021 401.383 315.454 351.649 511.846 473.29C656.431 562.843 833.493 450.42 1192.77 213.193C1427.54 58.1936 1662.86 267.558 1978.15 335.611M105.438 389.645C105.438 389.645 327.294 343.579 521.82 466.913C665.868 558.229 841.508 463.022 1201.76 220.131C1431.91 64.9399 1663.57 253.878 1988.28 322.384M115.874 377.936C115.874 377.936 339.117 335.55 531.794 460.565C675.297 553.664 849.546 475.715 1210.74 227.061C1436.33 71.762 1664.29 240.223 1998.42 309.153M126.323 366.222C126.323 366.222 350.954 327.527 541.788 454.229C684.736 549.132 857.629 488.486 1219.73 233.995C1440.8 78.6236 1665.02 226.588 2008.58 295.961M136.756 354.533C136.756 354.533 362.76 319.525 551.761 447.907C694.159 544.62 865.765 501.337 1228.71 240.905C1445.28 85.5103 1665.73 212.922 2018.73 282.76M147.186 342.834C147.186 342.834 374.564 311.538 561.737 441.58C703.566 540.129 873.94 514.259 1237.7 247.803C1449.82 92.4156 1666.46 199.264 2028.87 269.543M157.628 331.15C157.628 331.15 386.366 303.549 571.721 435.28C712.988 535.688 882.174 527.303 1246.68 254.691C1454.38 99.3545 1667.17 185.579 2039.03 256.335M168.05 319.446C168.05 319.446 398.15 295.568 581.689 428.987C722.393 531.266 890.461 540.44 1255.66 261.581C1458.96 106.325 1667.89 171.904 2049.17 243.132M178.468 307.745C178.468 307.745 409.915 287.589 591.652 422.697C731.78 526.862 898.811 553.69 1264.63 268.444C1463.61 113.308 1668.61 158.183 2059.31 229.876M188.896 296.009C188.896 296.009 421.69 279.591 601.632 416.39C741.164 522.471 907.244 567.025 1273.63 275.294C1468.29 120.289 1669.34 144.409 2069.49 216.607M199.302 284.251C199.302 284.251 433.425 271.588 611.587 410.079C750.545 518.105 915.724 580.48 1282.6 282.119C1472.98 127.286 1670.05 130.594 2079.64 203.292M209.701 272.481C209.701 272.481 445.145 263.577 621.539 403.792C759.892 513.763 924.287 594.087 1291.56 288.984C1477.71 134.338 1670.77 116.782 2089.78 189.972M220.111 260.667C220.111 260.667 456.875 255.54 631.505 397.463C769.266 509.421 932.963 607.781 1300.55 295.797C1482.52 141.368 1671.49 102.863 2099.95 176.583M230.498 248.842C230.498 248.842 468.581 247.498 641.447 391.139C778.585 505.096 941.697 621.611 1309.51 302.643C1487.32 148.452 1672.2 88.9522 2110.11 163.194M240.881 236.975C240.881 236.975 480.256 239.438 651.39 384.788C787.906 500.751 950.534 635.541 1318.48 309.463C1492.18 155.533 1672.92 74.9601 2120.26 149.727M251.275 225.103C251.275 225.103 491.939 231.378 661.342 378.458C797.242 496.447 959.499 649.63 1327.47 316.338C1497.08 162.697 1673.64 61.004 2130.44 136.297M261.648 213.196C261.648 213.196 503.588 223.305 671.274 372.087C806.538 492.106 968.561 663.782 1336.43 323.177C1502.02 169.869 1674.34 46.9795 2140.59 122.802M272.037 201.289C272.037 201.289 515.256 215.238 681.226 365.721C815.84 487.789 977.742 678.089 1345.4 330.06C1506.98 177.102 1675.07 32.9532 2150.76 109.32M282.405 189.354C282.405 189.354 526.885 207.148 691.155 359.333C825.118 483.451 987.052 692.484 1354.36 336.939C1512 184.348 1675.77 18.9145 2160.9 95.7935M292.773 177.423C292.773 177.423 538.499 199.086 701.084 352.968C834.403 479.135 996.491 707.012 1363.33 343.846C1517.05 191.656 1676.47 4.8817 2171.08 82.2866M303.154 165.465C303.154 165.465 550.127 191.001 711.031 346.564C843.664 474.797 1006.1 721.638 1372.31 350.749C1522.16 198.978 1677.2 -9.19158 2181.24 68.7555M313.518 153.516C313.518 153.516 561.724 182.946 720.957 340.171C852.911 470.467 1015.81 736.379 1381.28 357.664C1527.3 206.347 1677.9 -23.2538 2191.41 55.2006M323.878 141.545C323.878 141.545 573.012 175.154 730.882 333.756C861.914 466.348 1025.72 751.214 1390.24 364.591C1532.47 213.73 1678.6 -37.336 2201.56 41.6568M334.255 129.566C334.255 129.566 584.746 166.946 740.828 327.35C871.268 461.905 1035.79 766.173 1399.21 371.527C1537.68 221.141 1679.31 -51.4064 2211.72 28.1081M344.617 117.599C344.617 117.599 596.463 158.736 750.752 320.941C880.621 457.44 1046.02 781.241 1408.18 378.487C1542.95 228.597 1680.01 -65.4629 2221.89 14.5543" stroke="#E0D6FF" stroke-miterlimit="10"/>
</svg>
