<svg width="137" height="27" viewBox="0 0 137 27" fill="none" xmlns="http://www.w3.org/2000/svg">
<g clip-path="url(#clip0_226_8374)">
<path d="M24.4975 19.8753H22.1006V6.77026H24.4975V19.8753Z" fill="#007DD4"/>
<path d="M36.4289 16.6706C36.0555 17.7448 35.458 18.5981 34.6358 19.2295C33.8136 19.861 32.8136 20.1771 31.6358 20.1771C29.9331 20.1771 28.586 19.6068 27.5945 18.4648C26.7196 17.4647 26.2822 16.276 26.2822 14.8993C26.2822 13.5226 26.7019 12.452 27.5418 11.4749C28.5212 10.3337 29.857 9.7627 31.5483 9.7627C32.7496 9.7627 33.7816 10.0845 34.6451 10.7268C35.5078 11.3698 36.1031 12.2288 36.4296 13.3045H33.8058C33.5839 12.8681 33.2781 12.5405 32.8876 12.3216C32.4964 12.1035 32.0391 11.994 31.5142 11.994C30.6159 11.994 29.9075 12.2784 29.389 12.848C28.8698 13.4175 28.6101 14.1123 28.6101 14.9339C28.6101 15.7554 28.8726 16.5064 29.3975 17.0817C29.9224 17.657 30.628 17.9443 31.5142 17.9443C32.0625 17.9443 32.5227 17.8377 32.8961 17.6253C33.2695 17.4129 33.5725 17.0939 33.8058 16.6691H36.4296L36.4289 16.6706Z" fill="#007DD4"/>
<path d="M47.6249 14.9735V15.2385C47.6249 15.4862 47.6071 15.7447 47.5723 16.0154H39.9797C40.1312 16.6 40.437 17.0688 40.8979 17.4194C41.3588 17.7701 41.898 17.9458 42.516 17.9458C42.9243 17.9458 43.3034 17.8824 43.6533 17.7549C44.0729 17.5929 44.4172 17.3553 44.6853 17.0428H47.3091C46.8774 18.0646 46.2387 18.8422 45.3937 19.3764C44.5481 19.91 43.6185 20.1778 42.6035 20.1778C40.994 20.1778 39.7052 19.6011 38.7372 18.4483C37.8972 17.4482 37.4775 16.3127 37.4775 15.0419C37.4775 13.7711 37.8972 12.5888 38.7372 11.5649C39.7166 10.3647 41.0174 9.76489 42.6384 9.76489C44.1078 9.76489 45.3063 10.2624 46.2337 11.2575C47.1612 12.2526 47.6242 13.4917 47.6242 14.975L47.6249 14.9735ZM45.1932 13.9259C45.0296 13.3175 44.7145 12.8437 44.2486 12.5046C43.782 12.1654 43.2458 11.9955 42.6391 11.9955C42.0324 11.9955 41.452 12.1712 40.9683 12.5218C40.484 12.8725 40.1433 13.3405 39.9449 13.9259H45.1932Z" fill="#007DD4"/>
<path d="M66.7808 19.8753H64.3839V10.0644L61.1122 19.8753H59.083L55.8119 10.0644V19.8753H53.415V6.77026H56.669L60.0979 16.7937L63.5269 6.77026H66.7808V19.8753Z" fill="#007DD4"/>
<path d="M78.5705 19.8754H76.436V18.5469C76.0513 19.0725 75.5761 19.4758 75.01 19.7558C74.4438 20.0359 73.8293 20.1763 73.1643 20.1763C71.8812 20.1763 70.7852 19.7177 69.8755 18.7997C68.9075 17.8233 68.4238 16.5762 68.4238 15.0577C68.4238 13.5392 68.8876 12.2784 69.8143 11.2719C70.7418 10.266 71.8812 9.7627 73.2347 9.7627C74.5882 9.7627 75.6899 10.3236 76.4012 11.4454L76.436 10.0637H78.5705V19.8746V19.8754ZM76.3841 14.9519C76.3841 14.0951 76.1302 13.388 75.6231 12.8307C75.116 12.2734 74.4424 11.9948 73.6024 11.9948C72.7624 11.9948 72.0917 12.2828 71.5555 12.8573C71.0192 13.4326 70.751 14.1656 70.751 15.0577C70.751 15.8915 71.0163 16.5806 71.5469 17.1263C72.0775 17.6721 72.7624 17.945 73.6024 17.945C74.4424 17.945 75.101 17.6692 75.6145 17.1177C76.1274 16.5662 76.3841 15.844 76.3841 14.9519Z" fill="#007DD4"/>
<path d="M84.8693 12.0299C84.1694 12.0299 83.6473 12.2452 83.3038 12.6765C82.9596 13.1078 82.7874 13.7421 82.7874 14.5802V19.8753H80.4609V10.0643H82.5954V10.9499C83.0734 10.1356 83.7554 9.72803 84.6424 9.72803H84.87V12.0306L84.8693 12.0299Z" fill="#007DD4"/>
<path d="M94.8226 19.8753H91.7088L88.3851 15.2888V19.8753H86.0586V6.77026H88.3851V14.6862L91.4989 10.0636H94.2458L90.7471 14.8633L94.8233 19.8753H94.8226Z" fill="#007DD4"/>
<path d="M105.932 14.9735V15.2385C105.932 15.4862 105.914 15.7447 105.879 16.0154H98.2864C98.4379 16.6 98.7437 17.0688 99.2046 17.4194C99.6655 17.7701 100.205 17.9458 100.823 17.9458C101.231 17.9458 101.61 17.8824 101.96 17.7549C102.38 17.5929 102.724 17.3553 102.992 17.0428H105.616C105.184 18.0646 104.545 18.8422 103.7 19.3764C102.855 19.91 101.924 20.1778 100.91 20.1778C99.3006 20.1778 98.0118 19.6011 97.0438 18.4483C96.2038 17.4482 95.7842 16.3127 95.7842 15.0419C95.7842 13.7711 96.2038 12.5888 97.0438 11.5649C98.0232 10.3647 99.3241 9.76489 100.945 9.76489C102.414 9.76489 103.613 10.2624 104.54 11.2575C105.467 12.2526 105.93 13.4917 105.93 14.975L105.932 14.9735ZM103.5 13.9259C103.336 13.3175 103.021 12.8437 102.555 12.5046C102.089 12.1654 101.552 11.9955 100.946 11.9955C100.339 11.9955 99.7586 12.1712 99.275 12.5218C98.7906 12.8725 98.4499 13.3405 98.2515 13.9259H103.5Z" fill="#007DD4"/>
<path d="M111.477 12.1546H110.077V19.8761H107.751V12.1546H106.613V10.0651H107.751V6.771H110.077V10.0651H111.477V12.1546Z" fill="#007DD4"/>
<path d="M114.976 8.93104H112.649V6.77026H114.976V8.93104ZM114.976 19.8753H112.649V10.0644H114.976V19.8753Z" fill="#007DD4"/>
<path d="M125.455 19.8754H123.128V14.6689C123.128 13.6775 122.918 12.9574 122.499 12.5081C122.172 12.1539 121.735 11.9768 121.187 11.9768C120.358 11.9768 119.787 12.313 119.472 12.9862C119.274 13.3995 119.175 13.9604 119.175 14.6689V19.8754H116.849V10.0644H118.983V10.9673C119.275 10.6419 119.566 10.3913 119.858 10.217C120.383 9.91463 120.989 9.76343 121.677 9.76343C122.82 9.76343 123.736 10.1522 124.424 10.9306C125.112 11.7082 125.456 12.781 125.456 14.1476V19.8754H125.455Z" fill="#007DD4"/>
<path d="M137 18.3878C137 20.064 136.469 21.3867 135.408 22.3551C134.44 23.2408 133.233 23.6836 131.787 23.6836C130.609 23.6836 129.58 23.3704 128.699 22.7447C127.819 22.119 127.233 21.2333 126.941 20.0885H129.618C129.758 20.5248 130.023 20.8618 130.414 21.098C130.804 21.3341 131.262 21.4522 131.787 21.4522C132.591 21.4522 133.274 21.1923 133.834 20.6732C134.394 20.1533 134.674 19.5283 134.674 18.7961V18.4418C134.277 18.9732 133.843 19.3627 133.371 19.6104C132.899 19.8581 132.359 19.9827 131.753 19.9827C130.4 19.9827 129.245 19.4815 128.289 18.48C127.332 17.4784 126.854 16.2638 126.854 14.8381C126.854 13.4125 127.335 12.1366 128.298 11.1876C129.26 10.2394 130.429 9.76416 131.805 9.76416C132.342 9.76416 132.826 9.852 133.257 10.027C133.934 10.2955 134.458 10.7571 134.832 11.4108L134.867 10.0651H137.001V18.3885L137 18.3878ZM134.813 14.908C134.813 14.0252 134.557 13.3189 134.044 12.789C133.53 12.259 132.848 11.9948 131.997 11.9948C131.145 11.9948 130.422 12.2828 129.897 12.8595C129.419 13.3895 129.18 14.0425 129.18 14.8194C129.18 15.6438 129.419 16.3264 129.897 16.8671C130.422 17.4554 131.122 17.7499 131.997 17.7499C132.872 17.7499 133.53 17.4792 134.044 16.9377C134.557 16.3963 134.813 15.7194 134.813 14.9073V14.908Z" fill="#007DD4"/>
<path d="M0 17.5022L4.10106 27H6.16653L0 17.5022Z" fill="url(#paint0_linear_226_8374)"/>
<path d="M2.86206 15.1133L0 17.5023L6.16653 27.0001L2.86206 15.1133Z" fill="url(#paint1_linear_226_8374)"/>
<path d="M0.53125 7.22827L6.16647 27H9.64732L0.53125 7.22827Z" fill="url(#paint2_linear_226_8374)"/>
<path d="M15.1945 18.6377L9.64746 27H11.89L15.1945 18.6377Z" fill="url(#paint3_linear_226_8374)"/>
<path d="M13.129 12.2454L15.1945 18.6377L9.64746 27L13.129 12.2454Z" fill="url(#paint4_linear_226_8374)"/>
<path d="M5.93034 0L0.53125 7.22827L6.63803 4.09187L5.93034 0Z" fill="url(#paint5_linear_226_8374)"/>
<path d="M10.0908 2.47903L6.63836 4.09187L5.93066 0L10.0908 2.47903Z" fill="url(#paint6_linear_226_8374)"/>
<path d="M0.53125 7.22827L13.1289 12.2454L9.64732 27L0.53125 7.22827Z" fill="white"/>
<path d="M7.41045 9.96787L6.63803 4.0918L0.53125 7.2282L7.41045 9.96787Z" fill="url(#paint7_linear_226_8374)"/>
<path d="M9.64699 27L10.0901 2.479L6.6377 4.09185L9.64699 27Z" fill="url(#paint8_linear_226_8374)"/>
<path d="M0.53125 7.22827L13.1289 12.2454L9.64732 27L0.53125 7.22827Z" fill="url(#paint9_linear_226_8374)"/>
<path d="M9.64703 27.0001L9.93651 10.9746L7.41016 9.96802L9.64703 27.0001Z" fill="url(#paint10_linear_226_8374)"/>
</g>
<defs>
<linearGradient id="paint0_linear_226_8374" x1="3.08326" y1="16.7296" x2="3.08326" y2="28.3464" gradientUnits="userSpaceOnUse">
<stop stop-color="#82F3F3"/>
<stop offset="0.92" stop-color="#4AEDED"/>
</linearGradient>
<linearGradient id="paint1_linear_226_8374" x1="0" y1="21.057" x2="6.16653" y2="21.057" gradientUnits="userSpaceOnUse">
<stop stop-color="#0072FD"/>
<stop offset="0.61" stop-color="#34E1F2"/>
</linearGradient>
<linearGradient id="paint2_linear_226_8374" x1="-1.58471" y1="8.46454" x2="9.35088" y2="27.1741" gradientUnits="userSpaceOnUse">
<stop offset="0.22" stop-color="#0078CC"/>
<stop offset="0.5" stop-color="#00C4FF"/>
</linearGradient>
<linearGradient id="paint3_linear_226_8374" x1="9.64746" y1="22.8188" x2="15.1945" y2="22.8188" gradientUnits="userSpaceOnUse">
<stop stop-color="#82F3F3"/>
<stop offset="0.92" stop-color="#4AEDED"/>
</linearGradient>
<linearGradient id="paint4_linear_226_8374" x1="8.66807" y1="14.8533" x2="14.2098" y2="24.334" gradientUnits="userSpaceOnUse">
<stop offset="0.31" stop-color="#2FC8EC"/>
<stop offset="0.92" stop-color="#0E9BEA"/>
</linearGradient>
<linearGradient id="paint5_linear_226_8374" x1="2.15076" y1="8.17438" x2="6.67395" y2="0.434657" gradientUnits="userSpaceOnUse">
<stop offset="0.28" stop-color="#47EAED"/>
<stop offset="0.93" stop-color="#4AEDED"/>
</linearGradient>
<linearGradient id="paint6_linear_226_8374" x1="5.76139" y1="2.55391" x2="9.06021" y2="0.672947" gradientUnits="userSpaceOnUse">
<stop stop-color="#2FC8EC"/>
<stop offset="0.72" stop-color="#2FC8EC"/>
</linearGradient>
<linearGradient id="paint7_linear_226_8374" x1="2.92745" y1="9.65395" x2="7.58634" y2="5.0518" gradientUnits="userSpaceOnUse">
<stop offset="0.28" stop-color="#41E2ED"/>
<stop offset="0.93" stop-color="#22B6EB"/>
</linearGradient>
<linearGradient id="paint8_linear_226_8374" x1="7.80414" y1="2.88725" x2="12.0322" y2="26.5747" gradientUnits="userSpaceOnUse">
<stop offset="0.28" stop-color="#1190ED"/>
<stop offset="0.93" stop-color="#01299A"/>
</linearGradient>
<linearGradient id="paint9_linear_226_8374" x1="6.83007" y1="7.22827" x2="6.83007" y2="27" gradientUnits="userSpaceOnUse">
<stop offset="0.31" stop-color="#2AC1EB"/>
<stop offset="1" stop-color="#0235F9"/>
</linearGradient>
<linearGradient id="paint10_linear_226_8374" x1="8.1968" y1="9.82761" x2="11.2122" y2="26.721" gradientUnits="userSpaceOnUse">
<stop offset="0.28" stop-color="#1190ED"/>
<stop offset="0.93" stop-color="#01299A"/>
</linearGradient>
<clipPath id="clip0_226_8374">
<rect width="137" height="27" fill="white"/>
</clipPath>
</defs>
</svg>
