<svg width="60" height="60" viewBox="0 0 60 60" fill="none" xmlns="http://www.w3.org/2000/svg">
<path d="M34.143 14.6491L34.1429 14.6491C30.3815 14.1517 28.2081 12.7927 26.3011 11.6004L26.3003 11.5998C24.4296 10.4301 22.8342 9.43392 20.1133 9.43392C18.6497 9.43392 17.3135 9.71388 16.1405 10.264L16.1405 10.264C15.8588 10.3961 15.5233 10.2748 15.3912 9.99307L34.143 14.6491ZM34.143 14.6491C34.1679 14.6524 34.1927 14.654 34.2174 14.654M34.143 14.6491L34.2174 14.654M34.2174 14.654C34.4958 14.654 34.7379 14.4479 34.7753 14.1644C34.8161 13.8559 34.5991 13.5728 34.2906 13.532C30.7721 13.0667 28.8084 11.8391 26.8977 10.6444L26.8941 10.6422C24.9842 9.44799 23.1596 8.3071 20.1133 8.3071C18.4868 8.3071 16.9888 8.62159 15.6621 9.24375M34.2174 14.654L15.7045 9.33429L15.6621 9.24375M15.6621 9.24375C15.3803 9.37585 15.259 9.71134 15.3912 9.99306L15.6621 9.24375Z" fill="#E7975E" stroke="#E7975E" stroke-width="0.2"/>
<path d="M23.876 55.9554L23.8654 55.856L23.876 55.9554C24.3124 55.9087 24.7276 55.7327 25.0767 55.4477C25.8435 54.8219 26.1323 53.813 25.8116 52.8792C25.1124 50.8432 24.7267 48.4245 24.7267 46.0701C24.7267 43.1553 25.3043 40.1537 26.3087 37.8369C26.8015 36.7 27.363 35.8117 27.9499 35.2092C28.5374 34.6061 29.1419 34.2975 29.7233 34.2975C30.3048 34.2975 30.9092 34.6061 31.4967 35.2092C32.0836 35.8117 32.6451 36.7 33.1379 37.8369C34.1424 40.1538 34.7199 43.1553 34.7199 46.0701C34.7199 48.4245 34.3342 50.8432 33.635 52.8792C33.3143 53.813 33.6032 54.8219 34.3699 55.4477C34.7191 55.7328 35.1342 55.9087 35.5706 55.9554L35.5813 55.856L35.5706 55.9554C35.6477 55.9636 35.7247 55.9677 35.8017 55.9677C36.1982 55.9677 36.5896 55.8589 36.9453 55.6493C38.2757 54.8653 39.524 53.7628 40.6561 52.3743C41.797 50.975 42.764 49.3531 43.5309 47.5539C44.333 45.6717 44.8842 43.6659 45.1693 41.5923C45.4745 39.3719 45.4664 37.118 45.1452 34.8932C44.6682 31.5887 45.6409 29.2734 46.7805 26.5649L46.7809 26.564C47.1776 25.6214 47.589 24.6436 47.9623 23.5677C48.7501 21.2969 49.0699 19.1241 48.9096 17.1106C48.8328 16.1456 48.6435 15.2236 48.3467 14.3704C48.0533 13.5269 47.6531 12.7456 47.157 12.0483C45.4383 9.63297 42.6563 8.30723 39.3334 8.30723C37.0155 8.30723 35.5382 8.92301 34.1226 9.51306L34.1209 9.51374L34.1188 9.51462C32.3644 10.2459 30.5592 10.9984 26.9129 10.7307C26.6026 10.7078 26.3326 10.9411 26.3098 11.2514C26.287 11.5617 26.5201 11.8317 26.8304 11.8545C28.5753 11.9826 30.093 11.8995 31.4683 11.5987C32.6871 11.3322 33.6391 10.9354 34.5523 10.5547L34.5545 10.5538C35.9435 9.97484 37.2419 9.43404 39.3334 9.43404C42.2933 9.43404 44.7419 10.5978 46.2388 12.7016C48.0973 15.3135 48.3416 19.0366 46.8977 23.1983C46.5365 24.2394 46.1333 25.1979 45.7419 26.1279L45.7404 26.1314C45.1589 27.5135 44.606 28.8275 44.2582 30.2535C43.8635 31.8722 43.791 33.3985 44.03 35.0542C45.3371 44.1096 41.0478 51.9239 36.3732 54.6784C35.949 54.9284 35.4693 54.8905 35.0824 54.5748C34.7636 54.3146 34.4995 53.8309 34.7007 53.2452C35.4401 51.0921 35.8467 48.5444 35.8467 46.07C35.8467 43.0098 35.2371 39.8462 34.1718 37.3887C33.0066 34.7009 31.435 33.1707 29.7233 33.1707C28.0116 33.1707 26.44 34.7009 25.2748 37.3887C24.2094 39.8462 23.5998 43.0098 23.5998 46.07C23.5998 48.5444 24.0065 51.0921 24.7459 53.2452C24.947 53.8309 24.683 54.3146 24.3642 54.5748C23.9773 54.8906 23.4976 54.9284 23.0733 54.6784C18.3988 51.9239 14.1095 44.1096 15.4166 35.0542C15.6557 33.3985 15.5831 31.8722 15.1884 30.2535C14.8406 28.8275 14.2878 27.5136 13.7062 26.1316L13.7047 26.1279C13.3134 25.1979 12.9101 24.2394 12.5489 23.1983C11.4277 19.9666 11.3237 16.9757 12.2349 14.5447C12.3442 14.2533 12.1965 13.9286 11.9051 13.8194C11.6137 13.7102 11.289 13.8578 11.1798 14.1492C10.6887 15.4595 10.4611 16.9167 10.5018 18.4797C10.544 20.0996 10.875 21.8115 11.4843 23.5677C11.8576 24.6437 12.2691 25.6216 12.6658 26.5642L12.666 26.5649C13.8057 29.2733 14.7784 31.5887 14.3014 34.8932C13.9802 37.118 13.9721 39.3719 14.2773 41.5923C14.5624 43.6659 15.1136 45.6717 15.9157 47.5539C16.6826 49.3531 17.6496 50.975 18.7905 52.3743C19.9226 53.7628 21.1709 54.8653 22.5013 55.6492C22.9263 55.8996 23.4018 56.0061 23.876 55.9554Z" fill="#E7975E" stroke="#E7975E" stroke-width="0.2"/>
<mask id="path-3-outside-1_194_4853" maskUnits="userSpaceOnUse" x="2" y="4" width="44" height="30" fill="black">
<rect fill="white" x="2" y="4" width="44" height="30"/>
<path d="M14.4028 20.561C14.3033 20.561 14.2064 20.529 14.1265 20.4697C14.0467 20.4104 13.988 20.3269 13.9592 20.2317L13.9393 20.166C12.5147 15.4556 12.5147 15.4556 9.62726 13.1766L9.58623 13.1442C9.53127 13.1008 9.48686 13.0456 9.45632 12.9826C9.42579 12.9196 9.40992 12.8505 9.40992 12.7805C9.40992 12.7105 9.42579 12.6414 9.45632 12.5784C9.48686 12.5154 9.53127 12.4601 9.58623 12.4167L9.62699 12.3845C12.5148 10.1054 12.5148 10.1054 13.9391 5.39557L13.9592 5.32923C13.988 5.23402 14.0467 5.1506 14.1265 5.0913C14.2064 5.03201 14.3033 5 14.4027 5C14.5022 5 14.5991 5.03201 14.6789 5.09129C14.7588 5.15058 14.8175 5.234 14.8463 5.32922L14.8663 5.39536C16.2908 10.1054 16.2908 10.1054 19.1784 12.3844L19.2193 12.4167C19.2743 12.4601 19.3187 12.5153 19.3492 12.5783C19.3798 12.6413 19.3956 12.7104 19.3956 12.7804C19.3956 12.8505 19.3798 12.9196 19.3492 12.9826C19.3187 13.0456 19.2743 13.1008 19.2193 13.1442L19.1788 13.1762C16.291 15.4553 16.291 15.4553 14.8667 20.1643L14.8463 20.2317C14.8175 20.3269 14.7588 20.4103 14.679 20.4696C14.5991 20.529 14.5022 20.561 14.4028 20.561ZM10.6208 12.7805C11.8887 13.7853 12.574 14.3689 13.1183 15.2483C13.5853 16.0027 13.9166 16.9329 14.4028 18.506C14.8891 16.9326 15.2204 16.0023 15.6875 15.2477C16.2318 14.3687 16.9171 13.785 18.1848 12.7805C16.917 11.7758 16.2316 11.1921 15.6873 10.3128C15.2202 9.55835 14.889 8.62827 14.4028 7.05511C13.9166 8.62824 13.5853 9.55843 13.1183 10.3129C12.574 11.1922 11.8886 11.7758 10.6208 12.7805ZM41.4162 24.608C41.3167 24.608 41.2199 24.576 41.14 24.5167C41.0601 24.4574 41.0014 24.3739 40.9726 24.2787L40.9567 24.2261C39.8253 20.4849 39.8253 20.4849 37.5377 18.6794L37.5048 18.6535C37.4499 18.6101 37.4055 18.5548 37.3749 18.4918C37.3444 18.4288 37.3285 18.3597 37.3285 18.2897C37.3285 18.2197 37.3444 18.1506 37.3749 18.0876C37.4055 18.0246 37.4499 17.9693 37.5048 17.926L37.5375 17.9002C39.8253 16.0946 39.8253 16.0946 40.9566 12.3537L40.9726 12.3007C41.0318 12.1052 41.2119 11.9714 41.4162 11.9714C41.6205 11.9714 41.8006 12.1052 41.8598 12.3007L41.8758 12.3536C43.0072 16.0945 43.0072 16.0945 45.2949 17.9001L45.3277 17.926C45.3826 17.9693 45.427 18.0246 45.4576 18.0876C45.4881 18.1506 45.5039 18.2197 45.5039 18.2897C45.5039 18.3597 45.4881 18.4288 45.4575 18.4918C45.427 18.5549 45.3826 18.6101 45.3276 18.6535L45.2952 18.6791C43.0073 20.4848 43.0073 20.4848 41.8761 24.225L41.8598 24.2788C41.831 24.374 41.7723 24.4574 41.6924 24.5167C41.6125 24.576 41.5157 24.608 41.4162 24.608ZM38.539 18.2897C39.5038 19.0565 40.0369 19.5206 40.4672 20.2156C40.817 20.7808 41.0714 21.4625 41.4162 22.5597C41.7611 21.4623 42.0155 20.7805 42.3655 20.2152C42.7956 19.5204 43.3288 19.0563 44.2934 18.2897C43.3287 17.523 42.7955 17.0589 42.3653 16.3639C42.0154 15.7987 41.761 15.1169 41.4162 14.0198C41.0714 15.117 40.8171 15.7987 40.4671 16.364C40.0369 17.0589 39.5037 17.523 38.539 18.2897ZM24.1053 32.8162C24.0058 32.8162 23.909 32.7842 23.8291 32.7249C23.7492 32.6656 23.6905 32.5822 23.6617 32.4869L23.6461 32.4354C22.5377 28.7704 22.5377 28.7704 20.2973 27.0022L20.2651 26.9767C20.2102 26.9334 20.1657 26.8781 20.1352 26.8151C20.1047 26.7521 20.0888 26.683 20.0888 26.613C20.0888 26.543 20.1047 26.4739 20.1352 26.4109C20.1657 26.3479 20.2102 26.2926 20.2651 26.2492L20.2971 26.224C22.5377 24.4556 22.5377 24.4556 23.646 20.791L23.6617 20.739C23.6905 20.6438 23.7492 20.5604 23.8291 20.5011C23.9089 20.4418 24.0058 20.4098 24.1053 20.4098C24.2047 20.4098 24.3016 20.4418 24.3815 20.5011C24.4613 20.5604 24.52 20.6438 24.5488 20.739L24.5645 20.7909C25.6728 24.4556 25.6728 24.4556 27.9133 26.2239L27.9454 26.2492C28.0004 26.2926 28.0448 26.3479 28.0753 26.4109C28.1059 26.4739 28.1217 26.543 28.1217 26.613C28.1217 26.683 28.1059 26.7521 28.0753 26.8151C28.0448 26.8781 28.0004 26.9334 27.9454 26.9767L27.9137 27.0018C25.673 28.7702 25.673 28.7702 24.5648 32.4341L24.5488 32.4869C24.52 32.5822 24.4613 32.6656 24.3815 32.7249C24.3016 32.7842 24.2048 32.8162 24.1053 32.8162ZM21.2992 26.613C22.2403 27.3611 22.7614 27.8158 23.1826 28.4962C23.5232 29.0464 23.7714 29.7085 24.1053 30.7687C24.4392 29.7083 24.6875 29.0461 25.0282 28.4958C25.4494 27.8156 25.9705 27.3609 26.9114 26.613C25.9704 25.865 25.4492 25.4102 25.028 24.7298C24.6874 24.1797 24.4391 23.5174 24.1053 22.4574C23.7715 23.5174 23.5232 24.1797 23.1826 24.7299C22.7614 25.4103 22.2402 25.8649 21.2992 26.613ZM18.1984 27.493C18.1873 27.493 18.1762 27.4927 18.165 27.4919C13.7896 27.1807 10.0863 26.6988 7.45549 26.0984C6.10765 25.7908 5.0575 25.4546 4.33427 25.0992C3.93122 24.9011 3.62928 24.699 3.4112 24.4812C3.13835 24.2088 3 23.9118 3 23.5986C3 23.1764 3.25037 22.7868 3.74413 22.4405C4.13376 22.1672 4.70056 21.9034 5.4288 21.6565C6.8109 21.188 8.77613 20.7701 11.2699 20.4145C11.5234 20.3785 11.758 20.5545 11.7941 20.8078C11.8303 21.0612 11.6541 21.2959 11.4008 21.332C8.96352 21.6796 7.05438 22.0841 5.72638 22.5343C4.30294 23.0169 3.92683 23.4415 3.92683 23.5986C3.92683 23.698 4.09874 23.9508 4.74304 24.2674C5.40187 24.5911 6.38386 24.9032 7.66171 25.1948C10.2471 25.7849 13.9018 26.2595 18.2308 26.5674C18.4861 26.5855 18.6783 26.8072 18.6601 27.0625C18.6428 27.3066 18.4393 27.493 18.1984 27.493Z"/>
</mask>
<path d="M14.4028 20.561C14.3033 20.561 14.2064 20.529 14.1265 20.4697C14.0467 20.4104 13.988 20.3269 13.9592 20.2317L13.9393 20.166C12.5147 15.4556 12.5147 15.4556 9.62726 13.1766L9.58623 13.1442C9.53127 13.1008 9.48686 13.0456 9.45632 12.9826C9.42579 12.9196 9.40992 12.8505 9.40992 12.7805C9.40992 12.7105 9.42579 12.6414 9.45632 12.5784C9.48686 12.5154 9.53127 12.4601 9.58623 12.4167L9.62699 12.3845C12.5148 10.1054 12.5148 10.1054 13.9391 5.39557L13.9592 5.32923C13.988 5.23402 14.0467 5.1506 14.1265 5.0913C14.2064 5.03201 14.3033 5 14.4027 5C14.5022 5 14.5991 5.03201 14.6789 5.09129C14.7588 5.15058 14.8175 5.234 14.8463 5.32922L14.8663 5.39536C16.2908 10.1054 16.2908 10.1054 19.1784 12.3844L19.2193 12.4167C19.2743 12.4601 19.3187 12.5153 19.3492 12.5783C19.3798 12.6413 19.3956 12.7104 19.3956 12.7804C19.3956 12.8505 19.3798 12.9196 19.3492 12.9826C19.3187 13.0456 19.2743 13.1008 19.2193 13.1442L19.1788 13.1762C16.291 15.4553 16.291 15.4553 14.8667 20.1643L14.8463 20.2317C14.8175 20.3269 14.7588 20.4103 14.679 20.4696C14.5991 20.529 14.5022 20.561 14.4028 20.561ZM10.6208 12.7805C11.8887 13.7853 12.574 14.3689 13.1183 15.2483C13.5853 16.0027 13.9166 16.9329 14.4028 18.506C14.8891 16.9326 15.2204 16.0023 15.6875 15.2477C16.2318 14.3687 16.9171 13.785 18.1848 12.7805C16.917 11.7758 16.2316 11.1921 15.6873 10.3128C15.2202 9.55835 14.889 8.62827 14.4028 7.05511C13.9166 8.62824 13.5853 9.55843 13.1183 10.3129C12.574 11.1922 11.8886 11.7758 10.6208 12.7805ZM41.4162 24.608C41.3167 24.608 41.2199 24.576 41.14 24.5167C41.0601 24.4574 41.0014 24.3739 40.9726 24.2787L40.9567 24.2261C39.8253 20.4849 39.8253 20.4849 37.5377 18.6794L37.5048 18.6535C37.4499 18.6101 37.4055 18.5548 37.3749 18.4918C37.3444 18.4288 37.3285 18.3597 37.3285 18.2897C37.3285 18.2197 37.3444 18.1506 37.3749 18.0876C37.4055 18.0246 37.4499 17.9693 37.5048 17.926L37.5375 17.9002C39.8253 16.0946 39.8253 16.0946 40.9566 12.3537L40.9726 12.3007C41.0318 12.1052 41.2119 11.9714 41.4162 11.9714C41.6205 11.9714 41.8006 12.1052 41.8598 12.3007L41.8758 12.3536C43.0072 16.0945 43.0072 16.0945 45.2949 17.9001L45.3277 17.926C45.3826 17.9693 45.427 18.0246 45.4576 18.0876C45.4881 18.1506 45.5039 18.2197 45.5039 18.2897C45.5039 18.3597 45.4881 18.4288 45.4575 18.4918C45.427 18.5549 45.3826 18.6101 45.3276 18.6535L45.2952 18.6791C43.0073 20.4848 43.0073 20.4848 41.8761 24.225L41.8598 24.2788C41.831 24.374 41.7723 24.4574 41.6924 24.5167C41.6125 24.576 41.5157 24.608 41.4162 24.608ZM38.539 18.2897C39.5038 19.0565 40.0369 19.5206 40.4672 20.2156C40.817 20.7808 41.0714 21.4625 41.4162 22.5597C41.7611 21.4623 42.0155 20.7805 42.3655 20.2152C42.7956 19.5204 43.3288 19.0563 44.2934 18.2897C43.3287 17.523 42.7955 17.0589 42.3653 16.3639C42.0154 15.7987 41.761 15.1169 41.4162 14.0198C41.0714 15.117 40.8171 15.7987 40.4671 16.364C40.0369 17.0589 39.5037 17.523 38.539 18.2897ZM24.1053 32.8162C24.0058 32.8162 23.909 32.7842 23.8291 32.7249C23.7492 32.6656 23.6905 32.5822 23.6617 32.4869L23.6461 32.4354C22.5377 28.7704 22.5377 28.7704 20.2973 27.0022L20.2651 26.9767C20.2102 26.9334 20.1657 26.8781 20.1352 26.8151C20.1047 26.7521 20.0888 26.683 20.0888 26.613C20.0888 26.543 20.1047 26.4739 20.1352 26.4109C20.1657 26.3479 20.2102 26.2926 20.2651 26.2492L20.2971 26.224C22.5377 24.4556 22.5377 24.4556 23.646 20.791L23.6617 20.739C23.6905 20.6438 23.7492 20.5604 23.8291 20.5011C23.9089 20.4418 24.0058 20.4098 24.1053 20.4098C24.2047 20.4098 24.3016 20.4418 24.3815 20.5011C24.4613 20.5604 24.52 20.6438 24.5488 20.739L24.5645 20.7909C25.6728 24.4556 25.6728 24.4556 27.9133 26.2239L27.9454 26.2492C28.0004 26.2926 28.0448 26.3479 28.0753 26.4109C28.1059 26.4739 28.1217 26.543 28.1217 26.613C28.1217 26.683 28.1059 26.7521 28.0753 26.8151C28.0448 26.8781 28.0004 26.9334 27.9454 26.9767L27.9137 27.0018C25.673 28.7702 25.673 28.7702 24.5648 32.4341L24.5488 32.4869C24.52 32.5822 24.4613 32.6656 24.3815 32.7249C24.3016 32.7842 24.2048 32.8162 24.1053 32.8162ZM21.2992 26.613C22.2403 27.3611 22.7614 27.8158 23.1826 28.4962C23.5232 29.0464 23.7714 29.7085 24.1053 30.7687C24.4392 29.7083 24.6875 29.0461 25.0282 28.4958C25.4494 27.8156 25.9705 27.3609 26.9114 26.613C25.9704 25.865 25.4492 25.4102 25.028 24.7298C24.6874 24.1797 24.4391 23.5174 24.1053 22.4574C23.7715 23.5174 23.5232 24.1797 23.1826 24.7299C22.7614 25.4103 22.2402 25.8649 21.2992 26.613ZM18.1984 27.493C18.1873 27.493 18.1762 27.4927 18.165 27.4919C13.7896 27.1807 10.0863 26.6988 7.45549 26.0984C6.10765 25.7908 5.0575 25.4546 4.33427 25.0992C3.93122 24.9011 3.62928 24.699 3.4112 24.4812C3.13835 24.2088 3 23.9118 3 23.5986C3 23.1764 3.25037 22.7868 3.74413 22.4405C4.13376 22.1672 4.70056 21.9034 5.4288 21.6565C6.8109 21.188 8.77613 20.7701 11.2699 20.4145C11.5234 20.3785 11.758 20.5545 11.7941 20.8078C11.8303 21.0612 11.6541 21.2959 11.4008 21.332C8.96352 21.6796 7.05438 22.0841 5.72638 22.5343C4.30294 23.0169 3.92683 23.4415 3.92683 23.5986C3.92683 23.698 4.09874 23.9508 4.74304 24.2674C5.40187 24.5911 6.38386 24.9032 7.66171 25.1948C10.2471 25.7849 13.9018 26.2595 18.2308 26.5674C18.4861 26.5855 18.6783 26.8072 18.6601 27.0625C18.6428 27.3066 18.4393 27.493 18.1984 27.493Z" fill="#E7975E"/>
<path d="M14.4028 20.561C14.3033 20.561 14.2064 20.529 14.1265 20.4697C14.0467 20.4104 13.988 20.3269 13.9592 20.2317L13.9393 20.166C12.5147 15.4556 12.5147 15.4556 9.62726 13.1766L9.58623 13.1442C9.53127 13.1008 9.48686 13.0456 9.45632 12.9826C9.42579 12.9196 9.40992 12.8505 9.40992 12.7805C9.40992 12.7105 9.42579 12.6414 9.45632 12.5784C9.48686 12.5154 9.53127 12.4601 9.58623 12.4167L9.62699 12.3845C12.5148 10.1054 12.5148 10.1054 13.9391 5.39557L13.9592 5.32923C13.988 5.23402 14.0467 5.1506 14.1265 5.0913C14.2064 5.03201 14.3033 5 14.4027 5C14.5022 5 14.5991 5.03201 14.6789 5.09129C14.7588 5.15058 14.8175 5.234 14.8463 5.32922L14.8663 5.39536C16.2908 10.1054 16.2908 10.1054 19.1784 12.3844L19.2193 12.4167C19.2743 12.4601 19.3187 12.5153 19.3492 12.5783C19.3798 12.6413 19.3956 12.7104 19.3956 12.7804C19.3956 12.8505 19.3798 12.9196 19.3492 12.9826C19.3187 13.0456 19.2743 13.1008 19.2193 13.1442L19.1788 13.1762C16.291 15.4553 16.291 15.4553 14.8667 20.1643L14.8463 20.2317C14.8175 20.3269 14.7588 20.4103 14.679 20.4696C14.5991 20.529 14.5022 20.561 14.4028 20.561ZM10.6208 12.7805C11.8887 13.7853 12.574 14.3689 13.1183 15.2483C13.5853 16.0027 13.9166 16.9329 14.4028 18.506C14.8891 16.9326 15.2204 16.0023 15.6875 15.2477C16.2318 14.3687 16.9171 13.785 18.1848 12.7805C16.917 11.7758 16.2316 11.1921 15.6873 10.3128C15.2202 9.55835 14.889 8.62827 14.4028 7.05511C13.9166 8.62824 13.5853 9.55843 13.1183 10.3129C12.574 11.1922 11.8886 11.7758 10.6208 12.7805ZM41.4162 24.608C41.3167 24.608 41.2199 24.576 41.14 24.5167C41.0601 24.4574 41.0014 24.3739 40.9726 24.2787L40.9567 24.2261C39.8253 20.4849 39.8253 20.4849 37.5377 18.6794L37.5048 18.6535C37.4499 18.6101 37.4055 18.5548 37.3749 18.4918C37.3444 18.4288 37.3285 18.3597 37.3285 18.2897C37.3285 18.2197 37.3444 18.1506 37.3749 18.0876C37.4055 18.0246 37.4499 17.9693 37.5048 17.926L37.5375 17.9002C39.8253 16.0946 39.8253 16.0946 40.9566 12.3537L40.9726 12.3007C41.0318 12.1052 41.2119 11.9714 41.4162 11.9714C41.6205 11.9714 41.8006 12.1052 41.8598 12.3007L41.8758 12.3536C43.0072 16.0945 43.0072 16.0945 45.2949 17.9001L45.3277 17.926C45.3826 17.9693 45.427 18.0246 45.4576 18.0876C45.4881 18.1506 45.5039 18.2197 45.5039 18.2897C45.5039 18.3597 45.4881 18.4288 45.4575 18.4918C45.427 18.5549 45.3826 18.6101 45.3276 18.6535L45.2952 18.6791C43.0073 20.4848 43.0073 20.4848 41.8761 24.225L41.8598 24.2788C41.831 24.374 41.7723 24.4574 41.6924 24.5167C41.6125 24.576 41.5157 24.608 41.4162 24.608ZM38.539 18.2897C39.5038 19.0565 40.0369 19.5206 40.4672 20.2156C40.817 20.7808 41.0714 21.4625 41.4162 22.5597C41.7611 21.4623 42.0155 20.7805 42.3655 20.2152C42.7956 19.5204 43.3288 19.0563 44.2934 18.2897C43.3287 17.523 42.7955 17.0589 42.3653 16.3639C42.0154 15.7987 41.761 15.1169 41.4162 14.0198C41.0714 15.117 40.8171 15.7987 40.4671 16.364C40.0369 17.0589 39.5037 17.523 38.539 18.2897ZM24.1053 32.8162C24.0058 32.8162 23.909 32.7842 23.8291 32.7249C23.7492 32.6656 23.6905 32.5822 23.6617 32.4869L23.6461 32.4354C22.5377 28.7704 22.5377 28.7704 20.2973 27.0022L20.2651 26.9767C20.2102 26.9334 20.1657 26.8781 20.1352 26.8151C20.1047 26.7521 20.0888 26.683 20.0888 26.613C20.0888 26.543 20.1047 26.4739 20.1352 26.4109C20.1657 26.3479 20.2102 26.2926 20.2651 26.2492L20.2971 26.224C22.5377 24.4556 22.5377 24.4556 23.646 20.791L23.6617 20.739C23.6905 20.6438 23.7492 20.5604 23.8291 20.5011C23.9089 20.4418 24.0058 20.4098 24.1053 20.4098C24.2047 20.4098 24.3016 20.4418 24.3815 20.5011C24.4613 20.5604 24.52 20.6438 24.5488 20.739L24.5645 20.7909C25.6728 24.4556 25.6728 24.4556 27.9133 26.2239L27.9454 26.2492C28.0004 26.2926 28.0448 26.3479 28.0753 26.4109C28.1059 26.4739 28.1217 26.543 28.1217 26.613C28.1217 26.683 28.1059 26.7521 28.0753 26.8151C28.0448 26.8781 28.0004 26.9334 27.9454 26.9767L27.9137 27.0018C25.673 28.7702 25.673 28.7702 24.5648 32.4341L24.5488 32.4869C24.52 32.5822 24.4613 32.6656 24.3815 32.7249C24.3016 32.7842 24.2048 32.8162 24.1053 32.8162ZM21.2992 26.613C22.2403 27.3611 22.7614 27.8158 23.1826 28.4962C23.5232 29.0464 23.7714 29.7085 24.1053 30.7687C24.4392 29.7083 24.6875 29.0461 25.0282 28.4958C25.4494 27.8156 25.9705 27.3609 26.9114 26.613C25.9704 25.865 25.4492 25.4102 25.028 24.7298C24.6874 24.1797 24.4391 23.5174 24.1053 22.4574C23.7715 23.5174 23.5232 24.1797 23.1826 24.7299C22.7614 25.4103 22.2402 25.8649 21.2992 26.613ZM18.1984 27.493C18.1873 27.493 18.1762 27.4927 18.165 27.4919C13.7896 27.1807 10.0863 26.6988 7.45549 26.0984C6.10765 25.7908 5.0575 25.4546 4.33427 25.0992C3.93122 24.9011 3.62928 24.699 3.4112 24.4812C3.13835 24.2088 3 23.9118 3 23.5986C3 23.1764 3.25037 22.7868 3.74413 22.4405C4.13376 22.1672 4.70056 21.9034 5.4288 21.6565C6.8109 21.188 8.77613 20.7701 11.2699 20.4145C11.5234 20.3785 11.758 20.5545 11.7941 20.8078C11.8303 21.0612 11.6541 21.2959 11.4008 21.332C8.96352 21.6796 7.05438 22.0841 5.72638 22.5343C4.30294 23.0169 3.92683 23.4415 3.92683 23.5986C3.92683 23.698 4.09874 23.9508 4.74304 24.2674C5.40187 24.5911 6.38386 24.9032 7.66171 25.1948C10.2471 25.7849 13.9018 26.2595 18.2308 26.5674C18.4861 26.5855 18.6783 26.8072 18.6601 27.0625C18.6428 27.3066 18.4393 27.493 18.1984 27.493Z" stroke="#E7975E" stroke-width="0.4" mask="url(#path-3-outside-1_194_4853)"/>
<path d="M55.7597 22.3585L55.7023 22.4404L55.7597 22.3585C55.359 22.0774 54.7821 21.8101 54.0496 21.5617C52.6588 21.0903 50.6864 20.6713 48.19 20.3154L48.1759 20.4144L48.19 20.3154C47.8818 20.2715 47.5966 20.4856 47.5527 20.7936C47.5088 21.1016 47.7229 21.387 48.0309 21.4309C50.4661 21.7781 52.3683 22.1816 53.6878 22.6289C54.3946 22.8685 54.8353 23.0918 55.0972 23.271C55.2282 23.3606 55.3118 23.4375 55.3616 23.4976C55.3865 23.5276 55.4017 23.552 55.4103 23.5703C55.4146 23.5794 55.4171 23.5863 55.4184 23.5913C55.4192 23.5946 55.4195 23.5967 55.4196 23.5977C55.4197 23.5983 55.4197 23.5986 55.4197 23.5985C55.4197 23.5984 55.4197 23.6006 55.4184 23.6054C55.4172 23.6102 55.4148 23.617 55.4107 23.6259C55.4023 23.6437 55.3876 23.6676 55.3635 23.697C55.3152 23.7559 55.234 23.8314 55.1067 23.9195C54.8522 24.0956 54.4237 24.3154 53.7363 24.5516C52.4496 24.9939 50.5916 25.3942 48.2107 25.7403C43.2785 26.4573 36.7128 26.8525 29.7232 26.8525C29.4121 26.8525 29.1598 27.1048 29.1598 27.4159C29.1598 27.7271 29.4121 27.9793 29.7232 27.9793C36.7622 27.9793 43.3854 27.5804 48.3728 26.8554C50.8154 26.5003 52.7441 26.0842 54.1026 25.6173C54.8191 25.371 55.3836 25.1058 55.7759 24.8272C56.2739 24.4734 56.5465 24.0609 56.5465 23.5985C56.5465 23.1312 56.268 22.715 55.7597 22.3585ZM14.3698 29.0961L14.3698 29.0961C11.5808 29.4553 9.36183 29.8982 7.77706 30.4136C6.95007 30.6825 6.29933 30.9735 5.84744 31.2805C5.28268 31.6641 4.97349 32.1116 4.97349 32.6139C4.97349 33.0657 5.22364 33.4742 5.68419 33.8294C6.04986 34.1115 6.57508 34.3794 7.24062 34.6277C8.49694 35.0965 10.2786 35.5139 12.5331 35.8698C17.1311 36.5955 23.236 36.9947 29.7232 36.9947C36.2104 36.9947 42.3153 36.5955 46.9134 35.8698C49.1678 35.5139 50.9495 35.0965 52.2058 34.6277C52.8714 34.3794 53.3966 34.1115 53.7623 33.8294C54.2228 33.4742 54.4729 33.0657 54.4729 32.6139C54.4729 32.1116 54.1638 31.6641 53.599 31.2805C53.1471 30.9735 52.4964 30.6825 51.6694 30.4136C50.0846 29.8982 47.8656 29.4553 45.0767 29.0961C44.768 29.0563 44.4857 29.2743 44.4459 29.5829C44.4061 29.8915 44.6241 30.1739 44.9327 30.2137C47.6212 30.5599 49.8294 31.0001 51.3209 31.4851C52.1426 31.7524 52.6566 32.0045 52.9631 32.2109C53.1163 32.3142 53.2148 32.4042 53.274 32.4766C53.335 32.5512 53.3461 32.5971 53.3461 32.6139C53.3461 32.6257 53.3387 32.6623 53.2932 32.724C53.2493 32.7838 53.1754 32.8592 53.0596 32.9467C52.828 33.1218 52.4378 33.3384 51.8119 33.572C50.6319 34.0123 48.9259 34.4114 46.7377 34.7567C42.1994 35.473 36.1569 35.8679 29.7232 35.8679C23.2896 35.8679 17.247 35.473 12.7087 34.7567C10.5206 34.4114 8.81449 34.0123 7.63454 33.572C7.00861 33.3384 6.61844 33.1218 6.38682 32.9467C6.27099 32.8592 6.19717 32.7838 6.1532 32.724C6.10774 32.6623 6.1003 32.6257 6.1003 32.6139C6.1003 32.5971 6.11144 32.5512 6.17248 32.4766C6.2316 32.4043 6.33012 32.3142 6.48338 32.211C6.78979 32.0045 7.30385 31.7524 8.12555 31.4852C9.61702 31.0001 11.8252 30.56 14.5137 30.2137C14.8223 30.1739 15.0403 29.8915 15.0005 29.5829C14.9608 29.2743 14.6784 29.0564 14.3698 29.0961Z" fill="#E7975E" stroke="#E7975E" stroke-width="0.2"/>
</svg>
