<svg width="36" height="36" viewBox="0 0 36 36" fill="none" xmlns="http://www.w3.org/2000/svg">
<circle cx="18" cy="18" r="18" fill="#E7975E"/>
<path d="M12.8792 16.8438C14.206 19.7335 16.5667 22.0309 19.5018 23.2764L19.9723 23.486C21.0487 23.9656 22.3141 23.6012 22.9706 22.6226L23.5854 21.7062C23.7853 21.4083 23.7245 21.007 23.4452 20.7817L21.3601 19.0995C21.0538 18.8524 20.6035 18.91 20.3692 19.2261L19.7241 20.0965C18.069 19.2801 16.7252 17.9363 15.9087 16.2811L16.7791 15.6361C17.0952 15.4018 17.1528 14.9514 16.9057 14.6451L15.2235 12.56C14.9983 12.2808 14.5971 12.2199 14.2991 12.4196L13.3764 13.0384C12.3917 13.6986 12.0293 14.9744 12.52 16.0537L12.8787 16.8427L12.8792 16.8438Z" fill="white"/>
</svg>
