<svg width="26" height="26" viewBox="0 0 26 26" fill="none" xmlns="http://www.w3.org/2000/svg">
<path d="M4.98646 11.1909C7.06256 15.7126 10.7567 19.3077 15.3496 21.2566L16.0858 21.5846C17.7702 22.3351 19.7502 21.7649 20.7776 20.2336L21.7397 18.7996C22.0525 18.3334 21.9573 17.7054 21.5203 17.3529L18.2575 14.7206C17.7782 14.334 17.0735 14.424 16.7069 14.9187L15.6975 16.2808C13.1074 15.0032 11.0046 12.9003 9.72702 10.3103L11.089 9.30094C11.5838 8.93431 11.6738 8.22959 11.2872 7.75034L8.65482 4.4874C8.30236 4.05051 7.67457 3.95522 7.20834 4.26783L5.76443 5.23601C4.22355 6.26919 3.65656 8.26561 4.42435 9.95447L4.98561 11.1891L4.98646 11.1909Z" fill="#E7975E"/>
</svg>
