<svg width="36" height="36" viewBox="0 0 36 36" fill="none" xmlns="http://www.w3.org/2000/svg">
<circle cx="18" cy="18" r="18" fill="#0DAEE9"/>
<path fill-rule="evenodd" clip-rule="evenodd" d="M22.8622 23.8425L22.8628 23.8412L22.8758 23.8086L25.1249 12.4693V12.4325C25.1249 12.15 25.0205 11.9033 24.7933 11.7554C24.5945 11.6259 24.3659 11.6167 24.2057 11.6288C24.0362 11.6417 23.8763 11.684 23.7657 11.7192C23.7087 11.7373 23.6611 11.7548 23.627 11.768C23.6099 11.7746 23.5961 11.7803 23.586 11.7844L23.5761 11.7886L11.0362 16.7078L11.0328 16.7091C11.026 16.7115 11.017 16.7149 11.0062 16.7191C10.9846 16.7275 10.9553 16.7395 10.9208 16.7551C10.8531 16.7858 10.7595 16.8331 10.6647 16.8981C10.5035 17.0085 10.1967 17.2697 10.2485 17.6839C10.2914 18.0269 10.5279 18.2448 10.6873 18.3576C10.7728 18.4181 10.8545 18.4617 10.9144 18.4902C10.9447 18.5046 10.9705 18.5157 10.9897 18.5235C10.9993 18.5274 11.0074 18.5306 11.0136 18.5329L11.0216 18.5359L11.0267 18.5378L13.2206 19.2764C13.2132 19.414 13.2268 19.5544 13.2633 19.6929L14.3623 23.8617C14.4926 24.356 14.9398 24.7003 15.451 24.6999C15.9091 24.6996 16.3155 24.4224 16.4882 24.0088L18.2039 22.1743L21.1507 24.4334L21.1926 24.4517C21.4603 24.5685 21.7104 24.6056 21.9391 24.5743C22.1675 24.5431 22.349 24.4474 22.4853 24.3383C22.6194 24.231 22.7114 24.1098 22.7692 24.0187C22.7985 23.9723 22.8204 23.9316 22.8356 23.901C22.8433 23.8856 22.8493 23.8725 22.8538 23.8624L22.8594 23.8493L22.8614 23.8445L22.8622 23.8425ZM14.3511 19.4061C14.3262 19.3113 14.3654 19.2113 14.4481 19.1588L21.8896 14.4331C21.8896 14.4331 22.3273 14.1674 22.3116 14.4331C22.3116 14.4331 22.3898 14.48 22.1552 14.6988C21.9328 14.9066 16.8515 19.8124 16.3373 20.3089C16.3076 20.3375 16.2899 20.3704 16.2795 20.4103L15.4501 23.5749L14.3511 19.4061Z" fill="white"/>
</svg>
