<svg width="25" height="28" viewBox="0 0 25 28" fill="none" xmlns="http://www.w3.org/2000/svg">
<mask id="mask0_426_8907" style="mask-type:alpha" maskUnits="userSpaceOnUse" x="0" y="0" width="25" height="28">
<path d="M22.7689 1.99117C20.3602 -0.23199 17.6337 -0.228958 15.5956 0.269896C13.5612 0.766781 11.4388 0.766781 9.40442 0.269896C7.36637 -0.228958 4.6398 -0.23199 2.23099 1.99117C-2.33301 6.20353 1.3396 13.7282 2.44497 15.0243C3.55035 16.3204 3.58593 18.0485 4.3704 21.5769C5.15487 25.1052 6.15317 28.4535 8.14993 27.9495C10.1467 27.4455 10.6816 24.9973 11.1807 21.7209C11.2151 21.4956 11.2509 21.2842 11.2878 21.0856C11.5416 19.7234 13.4583 19.7234 13.7121 21.0856C13.749 21.2841 13.7849 21.4956 13.8193 21.7209C14.3185 24.9973 14.8533 27.4455 16.8501 27.9495C18.8469 28.4535 19.8452 25.1052 20.6296 21.5769C21.4141 18.0485 21.4497 16.3204 22.5551 15.0243C23.6604 13.7282 27.333 6.20353 22.7689 1.99117ZM8.82868 3.62768C8.80212 3.82643 8.69869 4.00646 8.54101 4.12842C8.38334 4.25037 8.18426 4.30432 7.9873 4.27847C7.84059 4.26012 4.58559 3.89728 3.67108 7.48539C3.62134 7.68006 3.4971 7.84684 3.32565 7.94908C3.1542 8.05132 2.94957 8.08065 2.75672 8.03064C2.56388 7.98052 2.39866 7.85512 2.29739 7.682C2.19613 7.50889 2.16711 7.30225 2.21672 7.10753C3.21878 3.17583 6.55847 2.55492 8.18447 2.77523C8.38184 2.80203 8.56059 2.9069 8.6814 3.06676C8.80221 3.22662 8.85519 3.42839 8.82868 3.62768Z" fill="white"/>
</mask>
<g mask="url(#mask0_426_8907)">
<mask id="mask1_426_8907" style="mask-type:luminance" maskUnits="userSpaceOnUse" x="-36" y="-35" width="98" height="97">
<path d="M59.4307 -34.2312L-35.6943 -34.2017L-33.9973 61.0781L61.1277 61.0485L59.4307 -34.2312Z" fill="white"/>
</mask>
<g mask="url(#mask1_426_8907)">
<path d="M59.4368 -34.2312L-35.6934 -34.1989L-34.0015 61.0783L61.1286 61.046L59.4368 -34.2312Z" fill="white"/>
<path d="M59.4368 -34.2312L-35.6934 -34.1989L-34.0015 61.0783L61.1286 61.046L59.4368 -34.2312Z" fill="url(#paint0_radial_426_8907)"/>
<path d="M-34.1846 13.7778C-32.2444 13.7983 -30.2878 14.0386 -28.4082 14.5636C-26.9056 14.9832 -25.3901 15.6359 -24.2754 16.7734C-21.985 19.1109 -22.572 22.8484 -24.5779 25.0928C-26.8546 27.6394 -30.4036 28.584 -32.6328 31.1938C-33.5936 32.3188 -34.2325 33.6969 -34.161 35.2151C-34.0986 36.5323 -33.5285 37.8812 -32.3913 38.6282C-31.0596 39.5028 -29.4096 39.2298 -28.1003 38.5245C-26.6504 37.7433 -25.6317 36.4876 -24.5992 35.2414C-23.5867 34.0181 -22.4877 32.7567 -20.9503 32.201C-19.252 31.5874 -17.3774 31.8268 -15.6321 32.1708C-14.72 32.3507 -13.7849 32.6303 -12.8514 32.5541C-12.0795 32.4916 -11.3886 32.1671 -10.8016 31.6781C-9.56014 30.6452 -8.97244 29.1027 -8.26919 27.6937C-7.90335 26.9616 -7.49231 26.2404 -6.9126 25.6574C-6.33473 25.0759 -5.6061 24.6901 -4.83657 24.4191C-3.31538 23.8834 -1.67626 23.7239 -0.203067 23.0477C1.24337 22.3833 2.52351 21.185 2.80216 19.5495C2.93423 18.7742 2.83819 17.9573 2.44829 17.2576C2.06856 16.577 1.45042 16.0665 0.782446 15.6857C-2.57265 13.7712 -6.57916 14.1004 -10.1979 13.5535C-11.7237 13.3229 -13.2997 12.7219 -14.3102 11.4833C-14.8021 10.8802 -15.0953 10.1345 -15.129 9.36161C-15.1655 8.53796 -14.9163 7.73943 -14.5393 7.02299C-13.7395 5.50327 -12.4424 4.35578 -11.1557 3.2606C-9.90498 2.19533 -8.61657 1.16949 -7.44551 0.014041C-7.29104 -0.138926 -7.1385 -0.294825 -6.98875 -0.453006C-6.95706 -0.479574 -6.92536 -0.505736 -6.89407 -0.532794C-6.24052 -1.09301 -5.59548 -1.67979 -5.08369 -2.37727C-4.61758 -3.01192 -4.2647 -3.7554 -4.23551 -4.56056C-4.21139 -5.22607 -4.40857 -5.92429 -4.82343 -6.45624C-5.27078 -7.0295 -5.96746 -7.348 -6.68733 -7.29463C-8.93925 -7.12791 -10.7626 -4.44226 -12.5423 -3.26623C-14.0018 -2.30162 -15.7408 -1.47277 -17.5288 -1.42772C-19.449 -1.37979 -21.297 -2.12228 -23.1172 -2.66101C-24.607 -3.10204 -26.1488 -3.40234 -27.6941 -3.18967C-29.0954 -2.9965 -30.4093 -2.36256 -31.1785 -1.14348C-31.9799 0.127332 -32.0528 1.69872 -32.3515 3.13946C-32.7798 5.20541 -33.9725 6.31198 -35.7172 6.97885L-35.5955 13.8047C-35.1261 13.7827 -34.6555 13.7727 -34.1846 13.7778ZM-34.9624 10.6619C-35.298 9.6407 -34.1105 9.01249 -33.3248 8.79469C-32.7437 8.63405 -32.1317 8.56172 -31.526 8.5844C-30.9019 8.60699 -30.3019 8.76175 -29.6876 8.86753C-29.1541 8.95956 -28.571 8.99031 -28.0802 8.73509C-27.6011 8.48656 -27.4039 8.01387 -27.4138 7.48574C-27.4244 6.94701 -27.5787 6.42217 -27.6648 5.89259C-27.7648 5.27648 -27.766 4.65326 -27.6694 4.04045C-27.5975 3.58351 -27.4625 3.08329 -27.0966 2.77588C-26.7225 2.46137 -26.2231 2.46982 -25.7953 2.68775C-25.3307 2.92418 -25.0159 3.34119 -24.759 3.78143C-24.5142 4.20131 -24.2876 4.69289 -23.8664 4.9673C-22.932 5.57613 -21.7456 4.85951 -20.9754 4.32966C-20.1385 3.75473 -19.3867 3.06869 -18.6344 2.39014C-17.8765 1.70646 -17.1139 1.02082 -16.2673 0.447358C-15.491 -0.0786693 -14.5319 -0.634233 -13.5713 -0.706637C-13.1101 -0.741368 -12.6325 -0.590416 -12.3558 -0.193358C-12.1152 0.152377 -12.091 0.606933 -12.1835 1.00171C-12.3745 1.81685 -13.0337 2.26969 -13.6376 2.7705C-14.5777 3.67706 -15.4066 4.68325 -16.1011 5.79214C-16.7282 6.79405 -17.2432 7.87055 -17.6196 8.99543C-18.0891 10.3982 -18.5415 11.8785 -17.5648 13.2154C-16.5705 14.5766 -14.9644 14.9259 -13.4247 15.2457C-11.7846 15.5864 -10.1248 15.8216 -8.45868 15.949C-7.21609 16.0442 -5.90479 16.4619 -5.21238 17.6028C-4.93961 18.052 -4.80099 18.6054 -4.97764 19.109C-5.13179 19.5484 -5.48668 19.8829 -5.88726 20.1015C-6.38542 20.3742 -6.95025 20.4613 -7.50039 20.5792C-8.0439 20.6957 -8.5528 20.8716 -8.99373 21.2147C-9.807 21.848 -10.1815 22.7877 -10.2125 23.808C-10.242 24.7823 -10.0616 25.7888 -10.2918 26.746C-10.5039 27.6257 -11.3014 28.6652 -12.3317 28.3339C-12.7728 28.1925 -13.0829 27.8287 -13.369 27.482C-13.6947 27.0888 -14.0206 26.7402 -14.4966 26.5317C-15.5935 26.0508 -16.8061 26.3598 -17.8495 26.7857C-18.9436 27.2315 -19.9973 27.7927 -21.0012 28.4114C-22.0005 29.0268 -22.9544 29.7157 -23.8488 30.475C-24.6442 31.1502 -25.374 32.0015 -26.3502 32.4222C-26.7652 32.6013 -27.2716 32.7278 -27.7214 32.5802C-28.2216 32.4164 -28.4156 31.9457 -28.3297 31.4541C-28.1586 30.4755 -27.3479 29.7001 -26.5838 29.1498C-24.61 27.7287 -22.3266 26.8085 -20.2518 25.5531C-18.7824 24.664 -17.371 23.2875 -17.7076 21.4061C-18.0059 19.7389 -19.1229 18.2628 -20.139 16.9501C-20.824 16.0653 -21.5993 15.2423 -22.4696 14.5385C-23.3288 13.8442 -24.2956 13.2749 -25.3351 12.9085C-26.4637 12.5101 -27.6506 12.3242 -28.8321 12.2005C-30.0401 12.0744 -31.2529 12.0044 -32.457 11.8346C-33.277 11.7194 -34.6464 11.6242 -34.9624 10.6619Z" fill="#E7975E"/>
<path d="M12.0266 -29.9345C11.8545 -28.9609 11.6327 -28.001 11.3757 -27.0495C11.0445 -26.2495 10.6565 -25.4736 10.2128 -24.7297C8.97051 -22.6444 7.31342 -20.9385 5.41228 -19.4622C3.4954 -17.9747 1.45167 -16.5839 0.0681429 -14.5368C-1.14279 -12.7437 -1.4352 -10.8021 -1.11108 -8.64782C-0.909687 -7.30999 -0.528052 -6.00522 -0.622841 -4.64513C-0.704947 -3.46627 -1.07004 -2.33923 -1.57512 -1.2867C-2.59028 0.829201 -4.10728 2.63893 -5.22729 4.69254C-5.7703 5.68801 -6.28179 6.85426 -6.02905 8.02688C-5.81647 9.01599 -5.03823 9.68829 -4.13317 10.0326C-3.16737 10.3999 -2.14673 10.4044 -1.13664 10.397C0.0247652 10.3882 1.36624 10.3647 2.31178 11.1752C3.15206 11.8956 3.59125 12.997 3.93517 14.02C4.48119 15.6442 5.24415 17.9757 7.21835 18.2664C8.26123 18.42 9.21518 17.8472 9.79985 17.0161C10.4889 16.0366 10.6254 14.7667 10.6748 13.5907C10.7242 12.4137 10.6577 11.2343 10.6175 10.0565C10.5398 7.7851 10.5415 5.35564 11.8565 3.42559C12.5491 2.40887 13.5162 1.6248 14.2595 0.650081C14.9242 -0.221734 15.3806 -1.22989 15.6223 -2.30785C16.1126 -4.49346 15.7781 -6.84068 15.0377 -8.95093C14.611 -10.167 14.0212 -11.3867 13.9446 -12.6882C13.9088 -13.2904 14.0035 -13.8841 14.2664 -14.4231C14.5112 -14.9244 14.8609 -15.3582 15.215 -15.7825C15.9194 -16.6274 16.5945 -17.4955 16.8357 -18.6017C17.067 -19.6617 16.9696 -20.7707 16.896 -21.8481C16.8112 -23.092 16.762 -24.4289 17.2906 -25.5782C17.8354 -26.7638 18.6538 -27.7726 19.0895 -29.0233C19.5747 -30.4156 19.5965 -32.1574 18.8389 -33.4607L12.9049 -33.4591C12.8792 -33.4128 12.8543 -33.3661 12.8304 -33.318C12.3125 -32.2739 12.2281 -31.071 12.0266 -29.9345ZM14.116 -25.1776C14.2941 -24.803 14.2812 -24.3641 14.2518 -23.9635C14.2151 -23.4741 14.1263 -22.9922 13.9898 -22.5235C13.4858 -20.7952 12.4485 -19.3287 11.6214 -17.7574C11.6324 -17.7145 11.6299 -17.6664 11.6084 -17.6173C11.3626 -17.0613 11.1607 -16.4869 11.0038 -15.8979C10.6918 -14.7256 10.5553 -13.5117 10.6014 -12.2924C10.649 -11.0409 10.9125 -9.83846 11.3071 -8.64832C11.6942 -7.47906 12.0619 -6.29936 11.9319 -5.05865C11.813 -3.92787 11.2354 -3.04426 10.4454 -2.27813C9.68542 -1.54122 8.83181 -0.893093 8.33163 0.0688511C7.81115 1.0699 7.66245 2.23372 7.68454 3.36017C7.71027 4.66737 7.9674 5.958 8.13768 7.25246C8.28318 8.35856 8.56268 9.83326 7.76502 10.7433C7.42619 11.1299 6.93164 11.3208 6.4198 11.2161C5.88827 11.1073 5.38889 10.7308 5.02919 10.3293C4.66573 9.92351 4.41445 9.44599 4.26429 8.9236C4.11302 8.39749 4.03722 7.80336 3.64602 7.38723C2.90541 6.59884 1.68078 6.70254 0.714853 6.70231C-0.258435 6.70257 -1.69126 6.57887 -2.1079 5.48409C-2.31692 4.93622 -2.08351 4.34443 -1.86296 3.84695C-1.62077 3.29944 -1.29616 2.79627 -0.926459 2.32943C-0.187139 1.39535 0.718723 0.611214 1.41394 -0.361634C2.6899 -2.14767 3.41058 -4.33148 3.50296 -6.54573C3.55052 -7.69349 3.41681 -8.82178 3.15568 -9.94298C3.00818 -10.5744 2.85084 -11.2134 2.83665 -11.8627C2.82466 -12.4139 2.91865 -12.9652 3.10012 -13.4805C3.76037 -15.3552 5.2231 -16.3725 6.73355 -17.491C7.78808 -18.2717 8.60157 -19.289 9.30377 -20.3939C9.7833 -21.1486 10.2085 -21.9373 10.6172 -22.7332C11.0468 -23.569 11.4508 -24.4464 12.1024 -25.1327C12.3922 -25.4377 12.7546 -25.7068 13.1906 -25.7258C13.5807 -25.7424 13.9448 -25.5382 14.116 -25.1776Z" fill="#E7975E"/>
<path d="M10.5654 -22.7209C10.158 -21.9261 9.73418 -21.1383 9.25631 -20.3844C8.55638 -19.2802 7.74561 -18.264 6.69473 -17.4845C5.1894 -16.3673 3.73164 -15.3515 3.07351 -13.4785C2.89254 -12.9636 2.79882 -12.4131 2.81073 -11.8625C2.82481 -11.2138 2.98162 -10.5757 3.12848 -9.945C3.3886 -8.82509 3.52183 -7.69802 3.47425 -6.55165C3.38198 -4.33992 2.6636 -2.15855 1.3919 -0.374396C0.699074 0.5973 -0.203804 1.38059 -0.940651 2.31366C-1.30904 2.77999 -1.63264 3.2826 -1.87397 3.8295C-2.09388 4.32643 -2.32653 4.91763 -2.11821 5.46479C-1.70311 6.55829 -0.275336 6.68177 0.694663 6.68146C1.65717 6.68163 2.87765 6.57797 3.61555 7.36542C4.00544 7.78105 4.08091 8.37449 4.23153 8.90008C4.3812 9.42179 4.63149 9.89874 4.99373 10.304C5.35207 10.705 5.84969 11.0811 6.37938 11.1898C6.88951 11.2943 7.38229 11.1036 7.72006 10.7175C8.51496 9.80837 8.23664 8.33545 8.09174 7.23054C7.9221 5.93765 7.66605 4.64842 7.64052 3.34271C7.61862 2.21754 7.76684 1.05505 8.2856 0.0551068C8.78413 -0.905771 9.63485 -1.55321 10.3924 -2.28932C11.1796 -3.05462 11.7553 -3.93726 11.8739 -5.06668C12.0036 -6.30598 11.6373 -7.48432 11.2515 -8.6523C10.8585 -9.84097 10.5961 -11.042 10.5487 -12.2921C10.5028 -13.5101 10.639 -14.7226 10.9501 -15.8936C11.1064 -16.482 11.3078 -17.0557 11.5527 -17.611C11.5741 -17.6601 11.5766 -17.7081 11.5656 -17.7511C12.39 -19.3206 13.4239 -20.7855 13.9262 -22.5118C14.0624 -22.9799 14.1508 -23.4613 14.1875 -23.9502C14.2168 -24.3503 14.2296 -24.7887 14.0524 -25.1629C13.8818 -25.523 13.5189 -25.727 13.1301 -25.7104C12.6957 -25.6914 12.3345 -25.4226 12.0457 -25.118C11.3962 -24.4323 10.9935 -23.5559 10.5654 -22.7209Z" fill="#EA7F3B"/>
<path d="M19.3096 -7.25548C19.3879 -6.44564 19.3238 -5.63335 19.2355 -4.83062C19.0774 -3.39965 18.8557 -1.94609 19.1701 -0.510991C19.461 0.817112 20.2734 1.89895 21.4434 2.58363C22.4737 3.1865 23.9005 3.64722 25.0245 3.09419C26.2955 2.46864 26.3428 0.78503 26.1717 -0.448916C26.0648 -1.22376 25.8682 -1.98291 25.7121 -2.74962C25.558 -3.50651 25.4687 -4.27039 25.4747 -5.04144C25.4864 -6.50071 25.8417 -7.95673 26.614 -9.18801C27.2967 -10.2758 28.3049 -11.1801 29.5076 -11.6456C30.8287 -12.1575 32.3092 -12.2127 33.5562 -12.9191C34.6382 -13.5323 35.4566 -14.6102 35.2333 -15.9261C34.5922 -19.7064 29.7179 -19.7319 26.9521 -20.6691C26.2331 -20.9127 25.4465 -21.2548 24.8759 -21.7768C24.3684 -22.241 24.0717 -22.8941 23.5351 -23.3319C22.8324 -23.9049 21.7621 -23.9814 21.0192 -23.4776C20.1247 -22.8716 20.1625 -21.7006 20.3281 -20.7171C20.4612 -19.9247 20.7056 -19.15 20.7941 -18.3524C20.8742 -17.6302 20.8072 -16.8951 20.4601 -16.256C20.1452 -15.6761 19.6044 -15.3456 19.0933 -14.9574C18.5864 -14.5725 18.2074 -14.1062 18.0265 -13.4833C17.6337 -12.1285 18.195 -10.7559 18.691 -9.49892C18.9782 -8.77055 19.2341 -8.03642 19.3096 -7.25548ZM20.0712 -12.4291C20.287 -12.8598 20.7106 -13.1193 21.13 -13.3181C21.5686 -13.5266 22.0545 -13.6885 22.4227 -14.0156C22.8489 -14.3939 23.1092 -14.943 23.1253 -15.52C23.1576 -16.6688 21.7414 -19.6367 23.6639 -20.0579C23.9886 -20.1289 24.3317 -20.0187 24.6227 -19.8489C25.2997 -19.4533 25.7454 -18.7813 26.3432 -18.2887C27.1282 -17.6413 27.8808 -17.9183 28.7609 -17.608C29.2694 -17.4287 29.8327 -17.1084 30.0523 -16.583C30.265 -16.0742 30.0696 -15.5521 29.7274 -15.1649C28.894 -14.2228 27.592 -13.9949 26.4487 -13.6486C25.8366 -13.463 25.3363 -13.1515 24.9699 -12.6184C24.6429 -12.1431 24.4224 -11.5992 24.1956 -11.0695C23.9309 -10.4513 23.6767 -9.826 23.5195 -9.16851C23.4954 -9.06669 23.4746 -8.96399 23.4567 -8.86177C23.3653 -8.15038 23.3547 -7.42707 23.4165 -6.70053C23.4776 -5.99006 23.595 -5.28489 23.7284 -4.58345C23.8484 -3.94915 23.9904 -3.31542 24.0442 -2.67169C24.0925 -2.0938 24.0683 -1.49885 23.8715 -0.95347C23.7078 -0.500001 23.4024 0.0794146 22.8233 -0.0724598C22.2703 -0.217682 21.9504 -0.848531 21.8092 -1.35593C21.6529 -1.91488 21.6603 -2.50325 21.7039 -3.07361C21.7556 -3.76185 21.8399 -4.44434 21.8606 -5.13541C21.8816 -5.83315 21.8951 -6.55776 21.7356 -7.24506C21.4463 -8.48979 20.6229 -9.52437 20.1546 -10.7C19.9355 -11.25 19.7967 -11.8814 20.0712 -12.4291Z" fill="#E7975E"/>
<path d="M21.6948 -7.25604C21.8531 -6.5707 21.8396 -5.84815 21.8186 -5.15239C21.798 -4.46328 21.7142 -3.78273 21.6627 -3.09643C21.6194 -2.5277 21.6119 -1.941 21.767 -1.38364C21.9072 -0.877694 22.2248 -0.248657 22.774 -0.103887C23.349 0.0475135 23.6524 -0.530279 23.815 -0.98247C24.0105 -1.52631 24.0346 -2.11958 23.9867 -2.69582C23.9334 -3.33772 23.7924 -3.96964 23.6734 -4.60213C23.541 -5.30157 23.4245 -6.00473 23.3639 -6.71318C23.3026 -7.43765 23.3133 -8.1589 23.4041 -8.86828C23.422 -8.97021 23.4426 -9.07262 23.4665 -9.17415C23.6227 -9.82979 23.8753 -10.4533 24.1383 -11.0698C24.3635 -11.598 24.5825 -12.1404 24.9073 -12.6143C25.2713 -13.1458 25.7681 -13.4566 26.376 -13.6417C27.5114 -13.9871 28.8045 -14.2144 29.6323 -15.1539C29.9721 -15.5401 30.1663 -16.0607 29.955 -16.568C29.737 -17.0919 29.1782 -17.4112 28.6728 -17.59C27.7988 -17.899 27.0514 -17.6231 26.2719 -18.2685C25.6783 -18.7597 25.2362 -19.4298 24.5635 -19.8242C24.2751 -19.9936 23.9339 -20.1035 23.6113 -20.0326C21.7017 -19.6125 23.1077 -16.6531 23.0759 -15.5076C23.0598 -14.9322 22.8013 -14.3847 22.378 -14.0074C22.0123 -13.6812 21.5297 -13.5196 21.0942 -13.3118C20.6776 -13.1135 20.2569 -12.8548 20.0425 -12.4252C19.7699 -11.879 19.9076 -11.2495 20.1251 -10.7011C20.59 -9.5288 21.4076 -8.49721 21.6948 -7.25604Z" fill="#EA7F3B"/>
<path d="M8.15375 57.3168C7.55478 55.2789 6.7016 53.147 7.37723 51.0367C7.65534 50.1688 8.20865 49.447 9.01983 49.0242C9.7985 48.6186 10.6804 48.4507 11.4566 48.0378C12.2304 47.6256 12.789 46.9333 12.8438 46.0307C12.8994 45.1173 12.4541 44.1784 11.7923 43.5521C10.1452 41.9924 7.70178 42.1719 5.67423 41.5794C4.66378 41.2843 3.55988 40.7359 3.16819 39.6821C2.95986 39.1209 2.91653 38.5049 2.87661 37.9156C2.86838 37.8012 2.86261 37.6874 2.85674 37.5731C2.78518 36.1666 3.38445 34.7424 3.48816 33.3444C3.61476 31.6369 3.57174 29.2918 2.1057 28.0946C-0.752431 25.761 -4.7592 28.4805 -6.11874 31.0857C-6.71501 32.2284 -7.17939 33.4553 -7.96812 34.4718C-9.31224 36.2027 -11.0219 36.4239 -12.9816 35.5823C-13.8478 35.2095 -14.7036 34.7571 -15.6313 34.5641C-18.7884 33.9067 -20.5533 37.2562 -20.5384 39.979C-20.5195 43.3456 -18.5693 46.7896 -15.6156 48.4753C-12.893 50.0296 -9.68789 49.8013 -6.6949 50.0789C-4.79944 50.254 -2.69723 50.6806 -1.23823 51.8855C-0.581102 52.4288 -0.0544366 53.1289 0.264233 54.0359C0.851475 55.7078 0.801053 57.5604 0.792906 59.2986C0.791552 59.6222 0.788141 59.9679 0.794423 60.3218L8.67991 60.3191C8.66283 59.3016 8.43226 58.2647 8.15375 57.3168ZM5.41821 57.1453C5.17872 57.7526 4.5725 58.2243 3.89405 58.1118C3.20553 57.9976 2.72805 57.3375 2.56453 56.6993C2.29717 55.6533 2.36784 54.5182 2.11152 53.451C1.62451 51.422 0.69972 48.8783 -1.00857 47.5395C-2.23153 46.5814 -3.79857 46.1755 -5.30145 45.9826C-8.43407 45.5802 -12.0803 45.9673 -14.6154 43.6346C-15.631 42.7006 -16.4143 41.133 -15.598 39.8459C-14.7377 38.4882 -12.799 38.792 -11.4551 39.084C-10.6786 39.2529 -9.8962 39.4599 -9.0989 39.4596C-8.34772 39.4588 -7.65433 39.2313 -7.03955 38.8138C-5.71729 37.9153 -5.01178 36.4171 -4.29837 35.0375C-3.67702 33.8362 -2.90369 32.3257 -1.47392 31.9621C-0.825612 31.797 -0.0505445 31.9097 0.355876 32.5061C0.736318 33.0638 0.664804 33.8066 0.555974 34.4284C0.257873 36.128 -0.410651 37.779 -0.333372 39.5352C-0.298319 40.3284 -0.0870634 41.0821 0.324618 41.7633C1.18111 42.8731 2.60472 43.3943 3.92408 43.7249C4.68142 43.9148 5.47449 44.0255 6.20733 44.3059C6.76057 44.5177 7.34529 44.8434 7.60694 45.4064C7.89973 46.0371 7.65425 46.7061 7.19731 47.1714C6.65573 47.7224 5.87923 47.9286 5.3044 48.4313C4.22181 49.3772 4.28247 51.0247 4.60799 52.3175C4.81887 53.1558 5.12866 53.9672 5.34289 54.8056C5.53559 55.5574 5.71048 56.4048 5.41821 57.1453Z" fill="#E7975E"/>
<path d="M15.4637 43.7742C15.9489 44.5403 16.1104 45.4411 16.44 46.2731C16.7105 46.9574 17.0961 47.5851 17.5756 48.1429C18.5389 49.2634 19.8813 50.0732 21.3175 50.377C22.0046 50.5225 22.8664 50.6459 23.5027 50.2953C24.957 49.4956 23.8709 47.3033 23.2731 46.2841C22.5116 44.9857 21.5088 43.7053 21.5162 42.1345C21.5203 41.2531 21.7742 40.3977 22.0209 39.5637C22.2648 38.7401 22.5154 37.9141 22.5926 37.0516C22.6667 36.2266 22.5761 35.3836 22.3377 34.5853C22.0846 33.7385 21.6633 32.9559 21.1098 32.2803C20.4387 31.2563 19.3926 30.5478 18.336 29.9548C17.1306 29.2785 15.8282 28.7026 14.8079 27.7432C14.1997 27.1715 13.7358 26.4657 13.4433 25.6848C13.1192 24.8186 13.062 23.9411 13.0146 23.0307C12.9727 22.2124 12.8683 21.3638 12.3867 20.6683C11.9632 20.0563 11.2839 19.6629 10.5357 19.7418C8.8898 19.9147 8.12539 21.5766 7.16269 22.6805C6.67135 23.2444 6.06977 23.7105 5.28837 23.7283C4.45453 23.7479 3.64566 23.3919 2.80988 23.4613C2.44976 23.4913 2.07482 23.5895 1.79971 23.8323C0.909639 24.6181 1.92672 25.9573 2.67374 26.4189C3.44607 26.8967 4.35875 27.1165 5.09751 27.646C6.49621 28.6484 6.95419 30.4529 6.89015 32.0801C6.8137 34.016 5.80729 35.5793 6.67116 37.5411C7.54002 39.5142 9.5155 40.272 11.3708 41.0213C12.8796 41.6312 14.5509 42.3311 15.4637 43.7742ZM10.9994 36.2554C10.6981 35.1915 10.8853 34.0896 10.7451 33.0087C10.6045 31.922 9.98556 31.1237 9.2043 30.4629C8.57209 29.9282 7.67303 29.414 7.55555 28.4601C7.45348 27.6351 8.01651 26.8593 8.81828 27.1621C9.24465 27.3237 9.58394 27.6607 9.89177 28.0362C10.0528 28.1689 10.2142 28.3012 10.3761 28.4301C10.4227 28.4476 10.4696 28.4619 10.5165 28.4714C10.6801 28.5059 10.7837 28.468 10.8048 28.2764C10.8267 28.0758 10.8017 27.8597 10.7796 27.6591C10.7358 27.2604 10.6489 26.8664 10.5594 26.4757C10.4079 25.8182 10.2398 25.1487 10.2508 24.4707C10.2597 23.9354 10.583 23.2465 11.1798 23.4645C11.4388 23.5592 11.6406 23.809 11.8112 24.0323C11.9896 24.2665 12.134 24.5273 12.2587 24.798C12.5096 25.3446 12.6562 25.9387 12.7687 26.5303C12.9453 27.4634 13.0367 28.4292 13.3966 29.3133C13.7525 30.188 14.3716 30.8356 15.0902 31.3683C15.6551 31.7873 16.2581 32.1409 16.8185 32.5671C17.533 33.1103 18.3547 33.4975 18.9523 34.2119C19.9436 35.397 19.7828 37.055 19.6244 38.4907C19.45 40.0724 19.4711 41.5455 20.1316 43.0389C20.3649 43.5665 20.6755 44.0439 20.9203 44.5645C21.1273 45.0049 21.2859 45.5045 21.1936 45.9944C21.1169 46.4035 20.8833 46.7791 20.5055 46.9053C20.0995 47.0413 19.652 46.8746 19.3248 46.585C18.9554 46.2575 18.7039 45.7829 18.4718 45.3392C18.2166 44.8509 17.9918 44.3436 17.8041 43.8211C17.4614 42.8672 17.3193 41.8337 16.9034 40.9097C16.5058 40.026 15.8062 39.5492 14.9726 39.262C14.1926 38.9929 13.3687 38.8475 12.6392 38.4157C11.8672 37.9578 11.2583 37.17 10.9994 36.2554Z" fill="#E7975E"/>
<path d="M16.9365 40.8898C17.3493 41.8108 17.4903 42.8409 17.8305 43.7916C18.0169 44.3124 18.2401 44.8179 18.4933 45.3046C18.7238 45.7469 18.9735 46.2199 19.3402 46.5463C19.665 46.8349 20.1095 47.0011 20.5125 46.8655C20.8872 46.7398 21.1197 46.3654 21.1959 45.9576C21.2871 45.4694 21.1297 44.9714 20.9246 44.5324C20.6816 44.0136 20.3731 43.5378 20.1417 43.0119C19.4864 41.5235 19.4651 40.0552 19.6383 38.4787C19.7959 37.0478 19.9556 35.3953 18.9715 34.2141C18.3786 33.5021 17.5628 33.1162 16.853 32.5748C16.2966 32.15 15.6979 31.7977 15.1369 31.3801C14.4235 30.8486 13.8089 30.2032 13.4555 29.3319C13.0982 28.4507 13.0081 27.4881 12.8323 26.5581C12.7211 25.968 12.5752 25.3764 12.326 24.8316C12.2027 24.5618 12.0589 24.3023 11.8818 24.0684C11.7129 23.8459 11.5121 23.5969 11.255 23.5025C10.6624 23.2857 10.3412 23.9719 10.3324 24.5054C10.3213 25.1817 10.4883 25.8484 10.6386 26.5038C10.7275 26.8932 10.8136 27.2854 10.8573 27.6833C10.8786 27.8836 10.9035 28.0991 10.8822 28.2985C10.8612 28.4895 10.7582 28.5277 10.5959 28.4928C10.5494 28.4834 10.5027 28.4692 10.4564 28.4517C10.2953 28.3228 10.1355 28.1914 9.97563 28.0592C9.66953 27.6849 9.33315 27.349 8.90982 27.188C8.11374 26.8857 7.55512 27.6594 7.65583 28.4816C7.77248 29.4324 8.66465 29.9449 9.29274 30.4779C10.0684 31.1364 10.683 31.932 10.8225 33.0151C10.9615 34.0925 10.7757 35.1908 11.0747 36.2512C11.3317 37.1627 11.9357 37.9479 12.7031 38.4042C13.4274 38.8345 14.2456 38.9795 15.0199 39.2477C15.8471 39.5339 16.5422 40.0091 16.9365 40.8898Z" fill="#EA7F3B"/>
<path d="M55.2212 19.2648C54.4605 19.5731 53.684 19.8599 52.8715 20.0081C52.0656 20.1552 51.1325 20.1808 50.3604 19.8416C48.7454 19.1323 48.8147 17.1009 48.8665 15.6443C48.8967 14.8109 48.9083 13.9474 48.6262 13.1451C48.4138 12.5417 48.0594 11.993 47.6119 11.5351C46.7198 10.6234 45.4517 10.0565 44.183 10.0632C42.7203 10.0713 41.5246 10.9286 40.486 11.8596C39.9076 12.3786 39.3565 12.9318 38.7392 13.406C38.1224 13.8801 37.4354 14.2637 36.7046 14.5352C34.4113 15.3877 31.866 15.1631 29.7698 13.9681C28.7834 13.1228 27.9162 12.1185 27.2213 11.0347C26.3359 9.6519 25.8255 8.03968 24.7564 6.77335C22.9384 4.61805 19.6447 4.29179 17.2659 5.53042C14.6563 6.88829 13.2775 9.93252 13.2799 12.8088C13.2821 16.2415 15.0075 19.5053 17.2406 22.0556C18.409 23.3901 19.7774 24.4657 21.1666 25.5536C22.521 26.6143 23.7829 27.7471 24.6862 29.2286C25.5488 30.6433 26.0874 32.2546 26.2283 33.8965C26.3908 35.7839 26.0139 37.6454 25.7233 39.4935C25.2449 42.5378 25.0491 46.2676 27.6653 48.5103C28.8078 49.4896 30.3147 50.0394 31.8078 49.953C33.3109 49.8649 34.7708 49.1717 35.7609 48.0468C37.8542 45.6668 37.467 42.2718 38.0809 39.3547C38.3598 38.0292 38.8362 36.6664 39.775 35.6691C40.9313 34.441 42.5806 34.2197 44.2083 34.4131C45.0471 34.5129 45.915 34.7204 46.6028 35.246C47.1772 35.6844 47.581 36.2935 47.9067 36.929C48.5793 38.2455 48.9321 39.7162 49.9338 40.8477C50.8389 41.8695 52.3036 42.6723 53.6013 41.929C54.7131 41.2931 54.9354 39.9161 54.9814 38.7351C55.0083 38.0428 54.9675 37.3491 54.983 36.6564C55.0028 35.7458 55.1239 34.8408 55.337 33.9592C55.5463 33.0928 55.8409 32.2512 56.2269 31.4511C56.5775 30.7233 57.006 30.02 57.6189 29.4862C58.2439 28.943 59.04 28.6556 59.8265 28.425C60.2125 28.3114 60.601 28.2045 60.987 28.0923L60.8039 17.7609C60.5385 17.7633 60.2741 17.7759 60.0131 17.7988C58.3023 17.9473 56.7854 18.6306 55.2212 19.2648ZM60.0078 23.6716C59.6957 24.4527 59.0383 25.0551 58.3312 25.4782C56.975 26.2893 55.3515 26.6628 54.1115 27.6673C53.4472 28.2059 53.0065 28.9145 52.744 29.7279C52.4723 30.5709 52.3793 31.4554 52.1568 32.3108C51.9794 32.9945 51.6613 33.7527 50.9866 34.0719C50.2301 34.4294 49.363 34.0778 48.7944 33.5136C48.1476 32.872 47.8046 31.9993 47.2328 31.2982C46.6945 30.6371 46.0328 30.0819 45.293 29.6621C43.7754 28.8003 41.9891 28.5673 40.3248 29.0199C38.6644 29.4721 37.3239 30.5415 36.4065 31.9774C35.5411 33.3327 35.0039 34.8643 34.3346 36.3211C34.0068 37.0339 33.6468 37.7349 33.2021 38.3806C32.7621 39.0211 32.2286 39.7093 31.5397 40.0943C30.8264 40.4931 30.0165 40.3862 29.3668 39.8892C28.6866 39.3684 28.3222 38.5766 28.2378 37.7427C28.1357 36.7387 28.4011 35.746 28.5866 34.7728C28.7853 33.7319 28.9276 32.6792 29.0074 31.6208C29.0792 30.6768 29.1484 29.6884 28.9067 28.7573C28.6588 27.802 28.0278 27.1548 27.2865 26.54C25.2327 24.8369 22.9105 23.2254 21.0176 21.3104C20.3708 20.6561 19.6644 19.9688 19.2728 19.1246C18.9421 18.4111 18.791 17.6239 18.7477 16.8464C18.7093 16.1532 18.7831 15.4041 19.1924 14.829C20.1899 13.4265 22.1855 13.9124 23.4996 14.579C24.8627 15.2707 25.8532 16.4279 26.9668 17.4425C27.0017 17.4745 27.0364 17.5059 27.0713 17.5368C27.258 17.676 27.4503 17.808 27.6483 17.9319C29.1876 18.8944 30.9823 19.3819 32.7786 19.3984C34.8031 19.4166 36.748 18.8643 38.5442 17.9868C40.0638 17.2444 41.9203 16.3273 43.6032 17.2511C44.9649 17.9981 45.2087 19.6372 45.7712 20.9347C46.0775 21.6417 46.5206 22.2498 47.2226 22.6038C48.0193 23.0059 48.9483 23.0685 49.8201 23.0467C50.8251 23.022 51.8201 22.849 52.7718 22.5392C53.6903 22.2405 54.5109 21.7681 55.3724 21.3478C56.1239 20.9818 56.9447 20.6615 57.8018 20.7265C58.497 20.7797 59.2294 21.0407 59.6997 21.5874C60.2067 22.1788 60.2885 22.9697 60.0078 23.6716Z" fill="#E7975E"/>
<path d="M58.0034 20.6837C57.1402 20.6188 56.3133 20.9415 55.5562 21.3101C54.6882 21.7336 53.8615 22.2093 52.9363 22.5105C51.9776 22.8228 50.9754 22.9974 49.9624 23.0227C49.0851 23.0452 48.1495 22.9827 47.3472 22.5786C46.6404 22.2228 46.1945 21.6111 45.8864 20.8999C45.3206 19.5946 45.0761 17.9454 43.705 17.1945C42.0106 16.2659 40.1403 17.1897 38.6094 17.9376C36.7998 18.8215 34.8407 19.3785 32.8018 19.3612C30.9926 19.3456 29.1853 18.856 27.6355 17.8884C27.4363 17.7638 27.2427 17.6311 27.0546 17.4912C27.0196 17.4601 26.9845 17.4284 26.9494 17.3964C25.8284 16.3761 24.8316 15.2121 23.4591 14.5168C22.136 13.8469 20.1263 13.359 19.1209 14.7709C18.7084 15.3498 18.6335 16.1036 18.6719 16.801C18.715 17.5835 18.8667 18.3754 19.1994 19.0932C19.5933 19.9425 20.3044 20.6336 20.9555 21.2917C22.8608 23.2175 25.1986 24.8378 27.2663 26.5505C28.0125 27.1687 28.6476 27.8195 28.8967 28.7807C29.1396 29.7174 29.0694 30.712 28.9965 31.6619C28.9154 32.727 28.7716 33.7864 28.5709 34.8339C28.3834 35.8132 28.1157 36.8122 28.2179 37.8225C28.3023 38.6615 28.6689 39.458 29.3536 39.9817C30.0077 40.4814 30.8234 40.5886 31.5421 40.1869C32.236 39.7991 32.7738 39.1064 33.2173 38.4616C33.6656 37.8116 34.0286 37.1061 34.3591 36.3885C35.0341 34.9224 35.5759 33.3809 36.4484 32.0167C37.3731 30.5713 38.7238 29.4945 40.3964 29.0386C42.0728 28.5822 43.8719 28.8156 45.3998 29.682C46.1446 30.1039 46.8107 30.6622 47.3525 31.3271C47.9273 32.0323 48.273 32.9104 48.9241 33.5555C49.4965 34.123 50.3695 34.4762 51.1316 34.1162C51.8114 33.7946 52.1322 33.0315 52.3113 32.3434C52.5359 31.4825 52.63 30.5925 52.9042 29.7441C53.169 28.9254 53.6133 28.212 54.2826 27.6698C55.5312 26.6583 57.1675 26.2816 58.5337 25.4648C59.2462 25.0386 59.9087 24.4321 60.2234 23.6459C60.5066 22.9395 60.4246 22.1437 59.9143 21.5488C59.4409 20.999 58.7035 20.7367 58.0034 20.6837ZM54.7977 24.1312C54.6374 24.8078 53.9432 25.2465 53.3615 25.5248C52.7455 25.8194 52.0466 26.0316 51.5331 26.4984C50.95 27.0306 50.6931 27.8325 50.6662 28.6116C50.6454 29.2233 50.8221 30.0295 50.3227 30.4992C49.6969 31.087 48.8203 30.4823 48.3163 30.0146C47.737 29.4774 47.2978 28.8128 46.7609 28.2367C46.1585 27.5896 45.4381 27.1936 44.5971 26.9453C41.343 25.986 37.0964 25.7622 34.6963 28.5378C34.1644 29.1528 33.8571 29.8847 33.5423 30.6267C33.2427 31.3331 32.8919 32.1039 32.2456 32.5565C31.6802 32.9518 30.8055 33.0404 30.409 32.3442C30.2305 32.0306 30.2149 31.6555 30.245 31.3076C30.2838 30.86 30.3697 30.4157 30.4378 29.9723C30.5154 29.4657 30.5931 28.959 30.6712 28.4523C30.7466 27.959 30.8541 27.4586 30.8825 26.9592C30.9359 26.0207 30.3204 25.3367 29.6279 24.7732C28.3151 23.7056 26.6613 23.1861 25.2953 22.1982C24.2377 21.4325 22.8631 20.0281 23.3094 18.59C23.5297 17.8802 24.221 17.61 24.9022 17.9043C25.2955 18.0743 25.6278 18.3772 25.9443 18.6599C26.2682 18.949 26.5794 19.2518 26.8985 19.5461C27.5432 20.1395 28.2294 20.6895 29.0571 20.9977C31.0379 21.7351 33.2346 21.557 35.2179 21.0111C37.2126 20.4624 39.1972 19.5485 41.2846 20.3779C42.0325 20.6752 42.5963 21.1922 42.9544 21.914C43.3906 22.7929 43.9655 23.7086 44.8177 24.2662C45.8086 24.9149 47.1372 24.9525 48.2609 24.7759C49.174 24.6325 50.0549 24.342 50.9233 24.0394C51.7631 23.7469 52.6197 23.3801 53.4996 23.2191C53.8022 23.1636 54.145 23.1508 54.4297 23.2983C54.7401 23.4597 54.8767 23.7977 54.7977 24.1312Z" fill="#EA7F3B"/>
<path d="M54.5175 23.3364C54.2326 23.1885 53.8876 23.2015 53.5838 23.2574C52.7002 23.4196 51.8407 23.7884 50.9965 24.0826C50.1244 24.3868 49.2397 24.6791 48.3228 24.8236C47.1944 25.0015 45.8605 24.9646 44.866 24.3139C44.0108 23.7542 43.4341 22.8356 42.9968 21.9534C42.6377 21.2291 42.072 20.7103 41.3212 20.4124C39.2259 19.5808 37.2326 20.4995 35.2295 21.0516C33.2379 21.6008 31.0316 21.781 29.0437 21.0419C28.2128 20.7329 27.5243 20.1811 26.8775 19.5858C26.5572 19.2905 26.2449 18.9867 25.92 18.6967C25.6023 18.4131 25.2688 18.1091 24.874 17.9387C24.1903 17.6436 23.4961 17.9153 23.2743 18.628C22.8253 20.0722 24.2045 21.4813 25.2659 22.2494C26.6368 23.2404 28.297 23.761 29.6143 24.832C30.3094 25.3974 30.9269 26.0837 30.8727 27.0259C30.8439 27.5273 30.7356 28.0299 30.6596 28.5251C30.5808 29.0338 30.5025 29.5426 30.4242 30.0513C30.3555 30.4964 30.2689 30.9426 30.2297 31.392C30.1994 31.7413 30.2148 32.1179 30.3937 32.4326C30.7915 33.1313 31.6697 33.0418 32.2376 32.6446C32.8869 32.1899 33.2395 31.4158 33.5408 30.7063C33.8574 29.9613 34.1665 29.2263 34.7008 28.6085C37.1125 25.8204 41.3762 26.0426 44.6427 27.0038C45.4871 27.2525 46.2101 27.6497 46.8146 28.299C47.3533 28.8772 47.7937 29.544 48.375 30.083C48.8808 30.5523 49.7605 31.1588 50.3892 30.5683C50.891 30.0965 50.7141 29.2871 50.7354 28.673C50.7629 27.8908 51.0213 27.0856 51.608 26.551C52.1231 26.0821 52.8249 25.8685 53.4436 25.5724C54.0279 25.2926 54.7251 24.8518 54.8865 24.1724C54.9661 23.8376 54.8291 23.4982 54.5175 23.3364Z" fill="#E7975E"/>
</g>
</g>
<defs>
<radialGradient id="paint0_radial_426_8907" cx="0" cy="0" r="1" gradientUnits="userSpaceOnUse" gradientTransform="translate(-31.2498 -34.2004) rotate(56.5673) scale(114.143 322.883)">
<stop stop-color="#65C4C1"/>
<stop offset="0.479167" stop-color="#ACDEFF"/>
<stop offset="1" stop-color="#9DA7F5"/>
</radialGradient>
</defs>
</svg>
